SplineFontDB: 3.2
FontName: Roboto-GMM-BoldItalic
FullName: Roboto-GMM Bold Italic
FamilyName: Roboto-GMM
Weight: Bold
Copyright: Copyright 2011 Google Inc. All Rights Reserved.
Version: 2.138
ItalicAngle: -12
UnderlinePosition: -200
UnderlineWidth: 100
Ascent: 1638
Descent: 410
InvalidEm: 0
sfntRevision: 0x00022354
LayerCount: 2
Layer: 0 1 "Back" 1
Layer: 1 1 "Fore" 0
XUID: [1021 847 435918304 23937]
StyleMap: 0x0021
FSType: 0
OS2Version: 4
OS2_WeightWidthSlopeOnly: 0
OS2_UseTypoMetrics: 0
CreationTime: 1221247774
ModificationTime: 1611274549
PfmFamily: 17
TTFWeight: 700
TTFWidth: 5
LineGap: 0
VLineGap: 0
Panose: 2 0 0 0 0 0 0 0 0 0
OS2TypoAscent: 2146
OS2TypoAOffset: 0
OS2TypoDescent: -555
OS2TypoDOffset: 0
OS2TypoLinegap: 0
OS2WinAscent: 2146
OS2WinAOffset: 0
OS2WinDescent: 555
OS2WinDOffset: 0
HheadAscent: 1900
HheadAOffset: 0
HheadDescent: -500
HheadDOffset: 0
OS2SubXSize: 1434
OS2SubYSize: 1331
OS2SubXOff: 0
OS2SubYOff: 287
OS2SupXSize: 1434
OS2SupYSize: 1331
OS2SupXOff: 0
OS2SupYOff: 977
OS2StrikeYSize: 102
OS2StrikeYPos: 512
OS2CapHeight: 1456
OS2XHeight: 1082
OS2Vendor: 'GOOG'
OS2CodePages: 2000019f.00000000
OS2UnicodeRanges: e0000aff.5000217f.00000021.00000000
Lookup: 1 0 0 "'c2sc' Capitals to Small Capitals lookup 0" { "'c2sc' Capitals to Small Capitals lookup 0 subtable"  } ['c2sc' ('DFLT' <'dflt' > 'cyrl' <'dflt' > 'grek' <'dflt' > 'latn' <'AZE ' 'CRT ' 'FRA ' 'MOL ' 'NAV ' 'ROM ' 'TRK ' 'dflt' > ) ]
Lookup: 1 0 0 "'smcp' Lowercase to Small Capitals lookup 1" { "'smcp' Lowercase to Small Capitals lookup 1 subtable"  } ['smcp' ('DFLT' <'dflt' > 'cyrl' <'dflt' > 'grek' <'dflt' > 'latn' <'AZE ' 'CRT ' 'FRA ' 'MOL ' 'NAV ' 'ROM ' 'TRK ' 'dflt' > ) ]
Lookup: 1 0 0 "'unic' Unicase lookup 2" { "'unic' Unicase lookup 2 subtable"  } ['unic' ('DFLT' <'dflt' > 'cyrl' <'dflt' > 'grek' <'dflt' > 'latn' <'AZE ' 'CRT ' 'FRA ' 'MOL ' 'NAV ' 'ROM ' 'TRK ' 'dflt' > ) ]

StartChar: .notdef
Encoding: 1114112 -1 0
Width: 918
Flags: W
LayerCount: 2
Fore
SplineSet
100 0 m 1,0,-1
 100 1456 l 1,1,-1
 808 1456 l 1,2,-1
 808 0 l 1,3,-1
 100 0 l 1,0,-1
194 1402 m 1,4,-1
 452 796 l 1,5,-1
 709 1402 l 1,6,-1
 194 1402 l 1,4,-1
480 728 m 1,7,-1
 754 84 l 1,8,-1
 754 1372 l 1,9,-1
 480 728 l 1,7,-1
154 1360 m 1,10,-1
 154 96 l 1,11,-1
 422 728 l 1,12,-1
 154 1360 l 1,10,-1
194 54 m 1,13,-1
 709 54 l 1,14,-1
 452 660 l 1,15,-1
 194 54 l 1,13,-1
EndSplineSet
EndChar

StartChar: exclam
Encoding: 33 33 6
Width: 540
Flags: W
LayerCount: 2
Fore
SplineSet
576 1456 m 1,0,-1
 369 448 l 1,1,-1
 133 448 l 1,2,-1
 276 1456 l 1,3,-1
 576 1456 l 1,0,-1
40 131 m 0,4,5
 38 199 38 199 83 244.5 c 128,-1,6
 128 290 128 290 195 291 c 0,7,8
 261 292 261 292 307 250 c 128,-1,9
 353 208 353 208 355 142 c 0,10,11
 357 74 357 74 312 29 c 128,-1,12
 267 -16 267 -16 200 -18 c 0,13,14
 135 -19 135 -19 88 23 c 128,-1,15
 41 65 41 65 40 131 c 0,4,5
EndSplineSet
EndChar

StartChar: quotedbl
Encoding: 34 34 7
Width: 637
Flags: W
LayerCount: 2
Fore
SplineSet
697 1383 m 1,0,-1
 598 987 l 1,1,-1
 438 987 l 1,2,-1
 524 1537 l 1,3,-1
 721 1537 l 1,4,-1
 697 1383 l 1,0,-1
381 1383 m 1,5,-1
 283 987 l 1,6,-1
 121 987 l 1,7,-1
 208 1537 l 1,8,-1
 406 1537 l 1,9,-1
 381 1383 l 1,5,-1
EndSplineSet
EndChar

StartChar: numbersign
Encoding: 35 35 8
Width: 1184
Flags: W
LayerCount: 2
Fore
SplineSet
469 0 m 1,0,-1
 611 410 l 1,1,-1
 431 410 l 1,2,-1
 290 0 l 1,3,-1
 104 0 l 1,4,-1
 246 410 l 1,5,-1
 28 410 l 1,6,-1
 59 583 l 1,7,-1
 305 583 l 1,8,-1
 403 867 l 1,9,-1
 180 867 l 1,10,-1
 211 1040 l 1,11,-1
 462 1040 l 1,12,-1
 606 1456 l 1,13,-1
 790 1456 l 1,14,-1
 647 1040 l 1,15,-1
 826 1040 l 1,16,-1
 970 1456 l 1,17,-1
 1156 1456 l 1,18,-1
 1013 1040 l 1,19,-1
 1222 1040 l 1,20,-1
 1192 867 l 1,21,-1
 953 867 l 1,22,-1
 855 583 l 1,23,-1
 1070 583 l 1,24,-1
 1039 410 l 1,25,-1
 796 410 l 1,26,-1
 655 0 l 1,27,-1
 469 0 l 1,0,-1
490 583 m 1,28,-1
 669 583 l 1,29,-1
 768 867 l 1,30,-1
 588 867 l 1,31,-1
 490 583 l 1,28,-1
EndSplineSet
EndChar

StartChar: dollar
Encoding: 36 36 9
Width: 1140
Flags: W
LayerCount: 2
Fore
SplineSet
1013 393 m 0,0,1
 1002 205 1002 205 875.5 103.5 c 128,-1,2
 749 2 749 2 573 -16 c 1,3,-1
 534 -215 l 1,4,-1
 378 -215 l 1,5,-1
 417 -15 l 1,6,7
 229 14 229 14 142.5 145 c 128,-1,8
 56 276 56 276 61 458 c 1,9,-1
 343 457 l 1,10,11
 339 365 339 365 374 289 c 128,-1,12
 409 213 409 213 516 212 c 0,13,14
 600 211 600 211 661 259 c 128,-1,15
 722 307 722 307 734 391 c 0,16,17
 747 478 747 478 700 525.5 c 128,-1,18
 653 573 653 573 580 606 c 0,19,20
 427 675 427 675 315 775 c 128,-1,21
 203 875 203 875 215 1062 c 0,22,23
 226 1248 226 1248 352.5 1351.5 c 128,-1,24
 479 1455 479 1455 654 1473 c 1,25,-1
 695 1688 l 1,26,-1
 851 1688 l 1,27,-1
 810 1468 l 1,28,29
 981 1432 981 1432 1050.5 1299.5 c 128,-1,30
 1120 1167 1120 1167 1116 1005 c 1,31,-1
 833 1006 l 1,32,33
 837 1083 837 1083 814 1163 c 128,-1,34
 791 1243 791 1243 693 1245 c 0,35,36
 610 1247 610 1247 558 1195 c 128,-1,37
 506 1143 506 1143 495 1064 c 0,38,39
 483 978 483 978 531.5 932 c 128,-1,40
 580 886 580 886 651 853 c 0,41,42
 802 782 802 782 913 680.5 c 128,-1,43
 1024 579 1024 579 1013 393 c 0,0,1
EndSplineSet
Substitution2: "'c2sc' Capitals to Small Capitals lookup 0 subtable" dollar.smcp
Position2: "'cpsp' Capital Spacing lookup 0 subtable" dx=36 dy=0 dh=72 dv=0
EndChar

StartChar: percent
Encoding: 37 37 10
Width: 1467
Flags: W
LayerCount: 2
Fore
SplineSet
181 1099 m 2,0,-1
 187 1176 l 2,1,2
 200 1312 200 1312 293 1396.5 c 128,-1,3
 386 1481 386 1481 524 1478 c 0,4,5
 656 1475 656 1475 733 1391 c 128,-1,6
 810 1307 810 1307 803 1176 c 1,7,-1
 796 1099 l 2,8,9
 784 963 784 963 692 880 c 128,-1,10
 600 797 600 797 463 800 c 0,11,12
 333 802 333 802 253.5 885.5 c 128,-1,13
 174 969 174 969 181 1099 c 2,0,-1
1260 1237 m 1,14,-1
 384 111 l 1,15,-1
 245 196 l 1,16,-1
 1123 1320 l 1,17,-1
 1260 1237 l 1,14,-1
380 1176 m 2,18,-1
 369 1097 l 2,19,20
 365 1047 365 1047 385.5 1007.5 c 128,-1,21
 406 968 406 968 463 966 c 0,22,23
 522 965 522 965 559 1005 c 128,-1,24
 596 1045 596 1045 605 1099 c 2,25,-1
 616 1178 l 2,26,27
 621 1227 621 1227 601 1268 c 128,-1,28
 581 1309 581 1309 524 1311 c 0,29,30
 464 1313 464 1313 426.5 1272 c 128,-1,31
 389 1231 389 1231 380 1176 c 2,18,-1
714 280 m 1,32,-1
 720 356 l 2,33,34
 732 492 732 492 826 576 c 128,-1,35
 920 660 920 660 1057 657 c 0,36,37
 1188 654 1188 654 1266 571 c 128,-1,38
 1344 488 1344 488 1337 357 c 2,39,-1
 1331 280 l 2,40,41
 1318 144 1318 144 1226.5 60 c 128,-1,42
 1135 -24 1135 -24 997 -21 c 0,43,44
 866 -18 866 -18 787 65.5 c 128,-1,45
 708 149 708 149 714 280 c 1,32,-1
914 357 m 2,46,-1
 904 277 l 2,47,48
 900 229 900 229 921.5 188.5 c 128,-1,49
 943 148 943 148 998 146 c 0,50,51
 1060 144 1060 144 1095.5 183.5 c 128,-1,52
 1131 223 1131 223 1140 280 c 2,53,-1
 1150 359 l 2,54,55
 1155 408 1155 408 1134.5 449 c 128,-1,56
 1114 490 1114 490 1058 491 c 0,57,58
 998 493 998 493 960.5 452.5 c 128,-1,59
 923 412 923 412 914 357 c 2,46,-1
EndSplineSet
EndChar

StartChar: ampersand
Encoding: 38 38 11
Width: 1304
Flags: W
LayerCount: 2
Fore
SplineSet
880 0 m 1,0,-1
 825 85 l 1,1,2
 646 -23 646 -23 452 -20 c 0,3,4
 274 -17 274 -17 149.5 89.5 c 128,-1,5
 25 196 25 196 37 385 c 0,6,7
 46 527 46 527 143 616.5 c 128,-1,8
 240 706 240 706 352 774 c 1,9,10
 317 849 317 849 288.5 925 c 128,-1,11
 260 1001 260 1001 266 1086 c 0,12,13
 277 1260 277 1260 396.5 1370.5 c 128,-1,14
 516 1481 516 1481 691 1477 c 0,15,16
 831 1474 831 1474 928.5 1381.5 c 128,-1,17
 1026 1289 1026 1289 1019 1145 c 0,18,19
 1014 1035 1014 1035 947.5 954 c 128,-1,20
 881 873 881 873 795 815 c 2,21,-1
 678 739 l 1,22,-1
 867 456 l 1,23,24
 951 577 951 577 968 715 c 1,25,-1
 1206 715 l 1,26,27
 1197 583 1197 583 1151.5 464.5 c 128,-1,28
 1106 346 1106 346 1015 248 c 1,29,-1
 1182 0 l 1,30,-1
 880 0 l 1,0,-1
513 1091 m 0,31,32
 505 1042 505 1042 523 996.5 c 128,-1,33
 541 951 541 951 563 910 c 1,34,-1
 646 960 l 2,35,36
 693 990 693 990 731.5 1030 c 128,-1,37
 770 1070 770 1070 778 1129 c 0,38,39
 784 1178 784 1178 755.5 1211 c 128,-1,40
 727 1244 727 1244 677 1245 c 0,41,42
 611 1246 611 1246 566.5 1199.5 c 128,-1,43
 522 1153 522 1153 513 1091 c 0,31,32
326 400 m 0,44,45
 315 322 315 322 355.5 268.5 c 128,-1,46
 396 215 396 215 476 213 c 0,47,48
 532 212 532 212 584.5 230.5 c 128,-1,49
 637 249 637 249 686 274 c 1,50,-1
 470 602 l 1,51,-1
 446 587 l 1,52,53
 400 553 400 553 367 505 c 128,-1,54
 334 457 334 457 326 400 c 0,44,45
EndSplineSet
Substitution2: "'smcp' Lowercase to Small Capitals lookup 1 subtable" ampersand.smcp
Substitution2: "'c2sc' Capitals to Small Capitals lookup 0 subtable" ampersand.smcp
Position2: "'cpsp' Capital Spacing lookup 0 subtable" dx=36 dy=0 dh=72 dv=0
EndChar

StartChar: quotesingle
Encoding: 39 39 12
Width: 322
Flags: W
LayerCount: 2
Fore
SplineSet
389 1373 m 1,0,-1
 301 986 l 1,1,-1
 121 986 l 1,2,-1
 208 1536 l 1,3,-1
 414 1536 l 1,4,-1
 389 1373 l 1,0,-1
EndSplineSet
EndChar

StartChar: parenleft
Encoding: 40 40 13
Width: 697
Flags: W
LayerCount: 2
Fore
SplineSet
115 564 m 1,0,-1
 119 588 l 1,1,2
 145 782 145 782 219.5 988.5 c 128,-1,3
 294 1195 294 1195 424 1365 c 128,-1,4
 554 1535 554 1535 747 1620 c 1,5,-1
 795 1459 l 1,6,7
 591 1302 591 1302 492.5 1071 c 128,-1,8
 394 840 394 840 358 592 c 2,9,-1
 354 566 l 2,10,11
 336 436 336 436 330 269 c 128,-1,12
 324 102 324 102 362.5 -53.5 c 128,-1,13
 401 -209 401 -209 517 -304 c 1,14,-1
 454 -455 l 1,15,16
 285 -361 285 -361 205 -184.5 c 128,-1,17
 125 -8 125 -8 109.5 193.5 c 128,-1,18
 94 395 94 395 115 564 c 1,0,-1
EndSplineSet
EndChar

StartChar: parenright
Encoding: 41 41 14
Width: 700
Flags: W
LayerCount: 2
Fore
SplineSet
590 597 m 2,0,-1
 587 574 l 2,1,2
 560 379 560 379 482 171.5 c 128,-1,3
 404 -36 404 -36 270.5 -206 c 128,-1,4
 137 -376 137 -376 -57 -458 c 1,5,-1
 -105 -300 l 1,6,7
 98 -143 98 -143 197 89 c 128,-1,8
 296 321 296 321 332 569 c 2,9,-1
 336 595 l 2,10,11
 353 722 353 722 359 890 c 128,-1,12
 365 1058 365 1058 327 1214.5 c 128,-1,13
 289 1371 289 1371 174 1463 c 1,14,-1
 236 1617 l 1,15,16
 406 1524 406 1524 489.5 1348 c 128,-1,17
 573 1172 573 1172 592.5 969.5 c 128,-1,18
 612 767 612 767 590 597 c 2,0,-1
EndSplineSet
EndChar

StartChar: asterisk
Encoding: 42 42 15
Width: 901
Flags: W
LayerCount: 2
Fore
SplineSet
135 704 m 1,0,-1
 393 967 l 1,1,-1
 100 1059 l 1,2,-1
 186 1229 l 1,3,-1
 472 1101 l 1,4,-1
 516 1456 l 1,5,-1
 707 1456 l 1,6,-1
 627 1109 l 1,7,-1
 935 1227 l 1,8,-1
 961 1034 l 1,9,-1
 633 945 l 1,10,-1
 793 674 l 1,11,-1
 633 570 l 1,12,-1
 507 862 l 1,13,-1
 284 584 l 1,14,-1
 135 704 l 1,0,-1
EndSplineSet
EndChar

StartChar: plus
Encoding: 43 43 16
Width: 1084
Flags: W
LayerCount: 2
Fore
SplineSet
1017 555 m 1,0,-1
 667 555 l 1,1,-1
 596 146 l 1,2,-1
 328 146 l 1,3,-1
 399 555 l 1,4,-1
 46 555 l 1,5,-1
 92 816 l 1,6,-1
 444 816 l 1,7,-1
 512 1206 l 1,8,-1
 780 1206 l 1,9,-1
 712 816 l 1,10,-1
 1062 816 l 1,11,-1
 1017 555 l 1,0,-1
EndSplineSet
EndChar

StartChar: comma
Encoding: 44 44 17
Width: 486
Flags: W
LayerCount: 2
Fore
SplineSet
312 246 m 1,0,-1
 281 50 l 2,1,2
 261 -73 261 -73 194.5 -180.5 c 128,-1,3
 128 -288 128 -288 31 -366 c 1,4,-1
 -117 -286 l 1,5,6
 -70 -207 -70 -207 -25 -132.5 c 128,-1,7
 20 -58 20 -58 37 35 c 2,8,-1
 74 246 l 1,9,-1
 312 246 l 1,0,-1
EndSplineSet
EndChar

StartChar: hyphen
Encoding: 45 45 18
Width: 771
Flags: W
LayerCount: 2
Fore
SplineSet
679 741 m 1,0,-1
 638 507 l 1,1,-1
 90 507 l 1,2,-1
 132 741 l 1,3,-1
 679 741 l 1,0,-1
EndSplineSet
EndChar

StartChar: period
Encoding: 46 46 19
Width: 578
Flags: W
LayerCount: 2
Fore
SplineSet
44 138 m 0,0,1
 41 207 41 207 86.5 252.5 c 128,-1,2
 132 298 132 298 201 299 c 0,3,4
 267 300 267 300 313.5 258 c 128,-1,5
 360 216 360 216 361 148 c 0,6,7
 363 80 363 80 318 34.5 c 128,-1,8
 273 -11 273 -11 205 -12 c 0,9,10
 138 -14 138 -14 92 28.5 c 128,-1,11
 46 71 46 71 44 138 c 0,0,1
EndSplineSet
EndChar

StartChar: slash
Encoding: 47 47 20
Width: 743
Flags: W
LayerCount: 2
Fore
SplineSet
871 1456 m 1,0,-1
 76 -125 l 1,1,-1
 -146 -125 l 1,2,-1
 648 1456 l 1,3,-1
 871 1456 l 1,0,-1
EndSplineSet
Substitution2: "'frac' Diagonal Fractions lookup 31 subtable" fraction
EndChar

StartChar: zero
Encoding: 48 48 21
Width: 1140
Flags: W
LayerCount: 2
Fore
SplineSet
1088 856 m 1,0,-1
 1049 604 l 2,1,2
 1025 445 1025 445 962.5 300.5 c 128,-1,3
 900 156 900 156 784.5 65.5 c 128,-1,4
 669 -25 669 -25 485 -20 c 0,5,6
 310 -16 310 -16 219.5 77.5 c 128,-1,7
 129 171 129 171 103 312.5 c 128,-1,8
 77 454 77 454 95 603 c 1,9,-1
 133 856 l 2,10,11
 156 1015 156 1015 219.5 1158.5 c 128,-1,12
 283 1302 283 1302 399.5 1391.5 c 128,-1,13
 516 1481 516 1481 698 1476 c 0,14,15
 873 1472 873 1472 963.5 1379 c 128,-1,16
 1054 1286 1054 1286 1080 1145 c 128,-1,17
 1106 1004 1106 1004 1088 856 c 1,0,-1
762 563 m 2,18,-1
 812 898 l 2,19,20
 819 957 819 957 822 1037 c 128,-1,21
 825 1117 825 1117 797 1178.5 c 128,-1,22
 769 1240 769 1240 684 1245 c 0,23,24
 589 1250 589 1250 535.5 1193.5 c 128,-1,25
 482 1137 482 1137 457 1054 c 128,-1,26
 432 971 432 971 421 897 c 2,27,-1
 372 563 l 2,28,29
 364 504 364 504 361 423 c 128,-1,30
 358 342 358 342 386 279 c 128,-1,31
 414 216 414 216 500 212 c 0,32,33
 596 207 596 207 649 264.5 c 128,-1,34
 702 322 702 322 727 405.5 c 128,-1,35
 752 489 752 489 762 563 c 2,18,-1
EndSplineSet
Substitution2: "'numr' Numerators lookup 34 subtable" zero.frac
Substitution2: "'dnom' Denominators lookup 33 subtable" zero.sup
Substitution2: "'pnum' Proportional Numbers lookup 28 subtable" zero.pnum
Substitution2: "'onum' Oldstyle Figures lookup 27 subtable" zero.tnum
Substitution2: "'c2sc' Capitals to Small Capitals lookup 0 subtable" zero.smcp
Position2: "'cpsp' Capital Spacing lookup 0 subtable" dx=36 dy=0 dh=72 dv=0
EndChar

StartChar: one
Encoding: 49 49 22
Width: 1140
Flags: W
LayerCount: 2
Fore
SplineSet
919 1459 m 1,0,-1
 674 0 l 1,1,-1
 392 0 l 1,2,-1
 584 1109 l 1,3,-1
 231 1002 l 1,4,-1
 275 1248 l 1,5,-1
 882 1458 l 1,6,-1
 919 1459 l 1,0,-1
EndSplineSet
Substitution2: "'numr' Numerators lookup 34 subtable" onesuperior
Substitution2: "'dnom' Denominators lookup 33 subtable" one.sup
Substitution2: "'pnum' Proportional Numbers lookup 28 subtable" one.pnum
Substitution2: "'onum' Oldstyle Figures lookup 27 subtable" one.tnum
Substitution2: "'c2sc' Capitals to Small Capitals lookup 0 subtable" one.smcp
Position2: "'cpsp' Capital Spacing lookup 0 subtable" dx=36 dy=0 dh=72 dv=0
EndChar

StartChar: two
Encoding: 50 50 23
Width: 1140
Flags: W
LayerCount: 2
Fore
SplineSet
1008 233 m 1,0,-1
 971 0 l 1,1,-1
 2 0 l 1,2,-1
 35 210 l 1,3,-1
 558 701 l 2,4,5
 627 768 627 768 706 855 c 128,-1,6
 785 942 785 942 800 1044 c 0,7,8
 811 1122 811 1122 779 1183.5 c 128,-1,9
 747 1245 747 1245 659 1247 c 0,10,11
 550 1249 550 1249 491 1172.5 c 128,-1,12
 432 1096 432 1096 419 998 c 1,13,-1
 139 997 l 1,14,15
 151 1212 151 1212 307.5 1346 c 128,-1,16
 464 1480 464 1480 676 1478 c 0,17,18
 862 1475 862 1475 984.5 1371 c 128,-1,19
 1107 1267 1107 1267 1091 1071 c 0,20,21
 1082 953 1082 953 1019.5 852 c 128,-1,22
 957 751 957 751 871 665 c 128,-1,23
 785 579 785 579 705 503 c 2,24,-1
 407 235 l 1,25,-1
 1008 233 l 1,0,-1
EndSplineSet
Substitution2: "'numr' Numerators lookup 34 subtable" twosuperior
Substitution2: "'dnom' Denominators lookup 33 subtable" two.sup
Substitution2: "'pnum' Proportional Numbers lookup 28 subtable" two.pnum
Substitution2: "'onum' Oldstyle Figures lookup 27 subtable" two.tnum
Substitution2: "'c2sc' Capitals to Small Capitals lookup 0 subtable" two.smcp
Position2: "'cpsp' Capital Spacing lookup 0 subtable" dx=36 dy=0 dh=72 dv=0
EndChar

StartChar: three
Encoding: 51 51 24
Width: 1140
Flags: W
LayerCount: 2
Fore
SplineSet
552 629 m 1,0,-1
 386 630 l 1,1,-1
 422 857 l 1,2,-1
 557 856 l 2,3,4
 655 857 655 857 726 910.5 c 128,-1,5
 797 964 797 964 810 1066 c 0,6,7
 819 1146 819 1146 778 1195 c 128,-1,8
 737 1244 737 1244 656 1246 c 0,9,10
 577 1248 577 1248 517 1203 c 128,-1,11
 457 1158 457 1158 443 1080 c 1,12,-1
 161 1078 l 1,13,14
 168 1208 168 1208 241.5 1298 c 128,-1,15
 315 1388 315 1388 426.5 1433.5 c 128,-1,16
 538 1479 538 1479 659 1478 c 0,17,18
 845 1475 845 1475 976.5 1372 c 128,-1,19
 1108 1269 1108 1269 1095 1069 c 0,20,21
 1088 949 1088 949 1009.5 869.5 c 128,-1,22
 931 790 931 790 830 742 c 1,23,24
 926 695 926 695 972 608.5 c 128,-1,25
 1018 522 1018 522 1012 417 c 0,26,27
 1004 272 1004 272 924 174 c 128,-1,28
 844 76 844 76 722 27 c 128,-1,29
 600 -22 600 -22 465 -20 c 0,30,31
 276 -17 276 -17 150 94 c 128,-1,32
 24 205 24 205 26 400 c 1,33,-1
 307 400 l 1,34,35
 306 317 306 317 353 266 c 128,-1,36
 400 215 400 215 485 213 c 0,37,38
 580 211 580 211 651 268 c 128,-1,39
 722 325 722 325 734 421 c 0,40,41
 760 622 760 622 552 629 c 1,0,-1
EndSplineSet
Substitution2: "'numr' Numerators lookup 34 subtable" threesuperior
Substitution2: "'dnom' Denominators lookup 33 subtable" three.sup
Substitution2: "'pnum' Proportional Numbers lookup 28 subtable" three.pnum
Substitution2: "'onum' Oldstyle Figures lookup 27 subtable" three.tnum
Substitution2: "'c2sc' Capitals to Small Capitals lookup 0 subtable" three.smcp
Position2: "'cpsp' Capital Spacing lookup 0 subtable" dx=36 dy=0 dh=72 dv=0
EndChar

StartChar: four
Encoding: 52 52 25
Width: 1140
Flags: W
LayerCount: 2
Fore
SplineSet
38 512 m 1,0,-1
 781 1456 l 1,1,-1
 1076 1456 l 1,2,-1
 919 548 l 1,3,-1
 1079 548 l 1,4,-1
 1038 315 l 1,5,-1
 878 315 l 1,6,-1
 823 0 l 1,7,-1
 541 0 l 1,8,-1
 596 315 l 1,9,-1
 18 315 l 1,10,-1
 38 512 l 1,0,-1
330 550 m 1,11,-1
 637 548 l 1,12,-1
 736 1069 l 1,13,-1
 709 1031 l 1,14,-1
 330 550 l 1,11,-1
EndSplineSet
Substitution2: "'numr' Numerators lookup 34 subtable" four.frac
Substitution2: "'dnom' Denominators lookup 33 subtable" four.sup
Substitution2: "'pnum' Proportional Numbers lookup 28 subtable" four.pnum
Substitution2: "'onum' Oldstyle Figures lookup 27 subtable" four.tnum
Substitution2: "'c2sc' Capitals to Small Capitals lookup 0 subtable" four.smcp
Position2: "'cpsp' Capital Spacing lookup 0 subtable" dx=36 dy=0 dh=72 dv=0
EndChar

StartChar: five
Encoding: 53 53 26
Width: 1140
Flags: W
LayerCount: 2
Fore
SplineSet
386 661 m 1,0,-1
 154 720 l 1,1,-1
 349 1456 l 1,2,-1
 1145 1456 l 1,3,-1
 1107 1216 l 1,4,-1
 549 1216 l 1,5,-1
 453 900 l 1,6,7
 543 956 543 956 663 956 c 0,8,9
 871 956 871 956 962 810 c 128,-1,10
 1053 664 1053 664 1038 475 c 0,11,12
 1021 258 1021 258 872.5 116 c 128,-1,13
 724 -26 724 -26 504 -21 c 0,14,15
 316 -18 316 -18 193 100.5 c 128,-1,16
 70 219 70 219 67 407 c 1,17,-1
 344 407 l 1,18,19
 348 328 348 328 387.5 272 c 128,-1,20
 427 216 427 216 514 214 c 0,21,22
 632 211 632 211 689 300.5 c 128,-1,23
 746 390 746 390 757 492 c 0,24,25
 767 589 767 589 728.5 663.5 c 128,-1,26
 690 738 690 738 580 740 c 0,27,28
 473 741 473 741 386 661 c 1,0,-1
EndSplineSet
Substitution2: "'numr' Numerators lookup 34 subtable" five.frac
Substitution2: "'dnom' Denominators lookup 33 subtable" five.sup
Substitution2: "'pnum' Proportional Numbers lookup 28 subtable" five.pnum
Substitution2: "'onum' Oldstyle Figures lookup 27 subtable" five.tnum
Substitution2: "'c2sc' Capitals to Small Capitals lookup 0 subtable" five.smcp
Position2: "'cpsp' Capital Spacing lookup 0 subtable" dx=36 dy=0 dh=72 dv=0
EndChar

StartChar: six
Encoding: 54 54 27
Width: 1140
Flags: W
LayerCount: 2
Fore
SplineSet
1054 487 m 0,0,1
 1036 274 1036 274 886.5 124.5 c 128,-1,2
 737 -25 737 -25 518 -20 c 0,3,4
 359 -17 359 -17 259.5 68 c 128,-1,5
 160 153 160 153 119 284.5 c 128,-1,6
 78 416 78 416 93 560 c 2,7,-1
 107 671 l 2,8,9
 137 895 137 895 244.5 1076 c 128,-1,10
 352 1257 352 1257 528 1363.5 c 128,-1,11
 704 1470 704 1470 940 1472 c 2,12,-1
 987 1472 l 1,13,-1
 965 1233 l 1,14,-1
 952 1233 l 2,15,16
 754 1236 754 1236 621 1133 c 128,-1,17
 488 1030 488 1030 414 854 c 1,18,19
 540 977 540 977 708 974 c 0,20,21
 841 972 841 972 920.5 899 c 128,-1,22
 1000 826 1000 826 1031.5 714.5 c 128,-1,23
 1063 603 1063 603 1054 487 c 0,0,1
371 521 m 2,24,25
 364 461 364 461 370 390 c 128,-1,26
 376 319 376 319 411.5 267.5 c 128,-1,27
 447 216 447 216 527 214 c 0,28,29
 637 211 637 211 698.5 299.5 c 128,-1,30
 760 388 760 388 770 485 c 0,31,32
 780 570 780 570 748 655.5 c 128,-1,33
 716 741 716 741 613 744 c 0,34,35
 539 746 539 746 480.5 707 c 128,-1,36
 422 668 422 668 384 609 c 1,37,-1
 371 521 l 2,24,25
EndSplineSet
Substitution2: "'numr' Numerators lookup 34 subtable" six.frac
Substitution2: "'dnom' Denominators lookup 33 subtable" six.sup
Substitution2: "'lnum' Lining Figures lookup 30 subtable" six.pnum
Substitution2: "'tnum' Tabular Numbers lookup 29 subtable" six.tnum
Substitution2: "'pnum' Proportional Numbers lookup 28 subtable" six.pnum
Substitution2: "'onum' Oldstyle Figures lookup 27 subtable" six.tnum
Substitution2: "'c2sc' Capitals to Small Capitals lookup 0 subtable" six.smcp
Position2: "'cpsp' Capital Spacing lookup 0 subtable" dx=36 dy=0 dh=72 dv=0
EndChar

StartChar: seven
Encoding: 55 55 28
Width: 1140
Flags: W
LayerCount: 2
Fore
SplineSet
1191 1456 m 1,0,-1
 1164 1280 l 1,1,-1
 424 0 l 1,2,-1
 113 0 l 1,3,-1
 850 1223 l 1,4,-1
 154 1223 l 1,5,-1
 191 1456 l 1,6,-1
 1191 1456 l 1,0,-1
EndSplineSet
Substitution2: "'numr' Numerators lookup 34 subtable" seven.frac
Substitution2: "'dnom' Denominators lookup 33 subtable" seven.sup
Substitution2: "'pnum' Proportional Numbers lookup 28 subtable" seven.pnum
Substitution2: "'onum' Oldstyle Figures lookup 27 subtable" seven.tnum
Substitution2: "'c2sc' Capitals to Small Capitals lookup 0 subtable" seven.smcp
Position2: "'cpsp' Capital Spacing lookup 0 subtable" dx=36 dy=0 dh=72 dv=0
EndChar

StartChar: eight
Encoding: 56 56 29
Width: 1140
Flags: W
LayerCount: 2
Fore
SplineSet
1011 408 m 0,0,1
 998 195 998 195 842 85.5 c 128,-1,2
 686 -24 686 -24 487 -20 c 0,3,4
 302 -17 302 -17 173 88 c 128,-1,5
 44 193 44 193 57 390 c 0,6,7
 67 525 67 525 146.5 614 c 128,-1,8
 226 703 226 703 343 757 c 1,9,10
 195 872 195 872 206 1060 c 0,11,12
 217 1262 217 1262 361.5 1371.5 c 128,-1,13
 506 1481 506 1481 699 1477 c 0,14,15
 877 1474 877 1474 994.5 1369.5 c 128,-1,16
 1112 1265 1112 1265 1100 1077 c 0,17,18
 1092 957 1092 957 1022 876.5 c 128,-1,19
 952 796 952 796 850 744 c 1,20,21
 1025 623 1025 623 1011 408 c 0,0,1
815 1063 m 0,22,23
 823 1133 823 1133 792.5 1188.5 c 128,-1,24
 762 1244 762 1244 684 1245 c 0,25,26
 598 1247 598 1247 545.5 1187 c 128,-1,27
 493 1127 493 1127 484 1047 c 0,28,29
 475 977 475 977 505 920 c 128,-1,30
 535 863 535 863 614 862 c 0,31,32
 701 860 701 860 753 921.5 c 128,-1,33
 805 983 805 983 815 1063 c 0,22,23
734 428 m 0,34,35
 744 510 744 510 705 569.5 c 128,-1,36
 666 629 666 629 579 631 c 0,37,38
 482 633 482 633 418.5 568.5 c 128,-1,39
 355 504 355 504 344 411 c 0,40,41
 334 329 334 329 373.5 271.5 c 128,-1,42
 413 214 413 214 500 212 c 0,43,44
 596 210 596 210 659.5 273 c 128,-1,45
 723 336 723 336 734 428 c 0,34,35
EndSplineSet
Substitution2: "'numr' Numerators lookup 34 subtable" eight.frac
Substitution2: "'dnom' Denominators lookup 33 subtable" eight.sup
Substitution2: "'lnum' Lining Figures lookup 30 subtable" eight.pnum
Substitution2: "'tnum' Tabular Numbers lookup 29 subtable" eight.tnum
Substitution2: "'pnum' Proportional Numbers lookup 28 subtable" eight.pnum
Substitution2: "'onum' Oldstyle Figures lookup 27 subtable" eight.tnum
Substitution2: "'c2sc' Capitals to Small Capitals lookup 0 subtable" eight.smcp
Position2: "'cpsp' Capital Spacing lookup 0 subtable" dx=36 dy=0 dh=72 dv=0
EndChar

StartChar: nine
Encoding: 57 57 30
Width: 1140
Flags: W
LayerCount: 2
Fore
SplineSet
1067 782 m 2,0,1
 1021 436 1021 436 810 211.5 c 128,-1,2
 599 -13 599 -13 235 -16 c 2,3,-1
 206 -16 l 1,4,-1
 228 227 l 1,5,-1
 242 227 l 1,6,7
 627 221 627 221 761 585 c 1,8,9
 706 534 706 534 639.5 502 c 128,-1,10
 573 470 573 470 496 471 c 0,11,12
 362 473 362 473 280 544 c 128,-1,13
 198 615 198 615 164 725.5 c 128,-1,14
 130 836 130 836 140 955 c 0,15,16
 152 1096 152 1096 223 1216 c 128,-1,17
 294 1336 294 1336 410.5 1408 c 128,-1,18
 527 1480 527 1480 674 1477 c 0,19,20
 836 1474 836 1474 930 1384 c 128,-1,21
 1024 1294 1024 1294 1059.5 1158 c 128,-1,22
 1095 1022 1095 1022 1080 882 c 2,23,-1
 1067 782 l 2,0,1
422 957 m 0,24,25
 413 873 413 873 441.5 784 c 128,-1,26
 470 695 470 695 574 692 c 0,27,28
 643 690 643 690 696.5 726.5 c 128,-1,29
 750 763 750 763 787 817 c 1,30,-1
 804 936 l 2,31,32
 811 991 811 991 806 1062.5 c 128,-1,33
 801 1134 801 1134 768.5 1188 c 128,-1,34
 736 1242 736 1242 659 1244 c 0,35,36
 549 1246 549 1246 491 1148 c 128,-1,37
 433 1050 433 1050 422 957 c 0,24,25
EndSplineSet
Substitution2: "'numr' Numerators lookup 34 subtable" nine.frac
Substitution2: "'dnom' Denominators lookup 33 subtable" nine.sup
Substitution2: "'pnum' Proportional Numbers lookup 28 subtable" nine.pnum
Substitution2: "'onum' Oldstyle Figures lookup 27 subtable" nine.tnum
Substitution2: "'c2sc' Capitals to Small Capitals lookup 0 subtable" nine.smcp
Position2: "'cpsp' Capital Spacing lookup 0 subtable" dx=36 dy=0 dh=72 dv=0
EndChar

StartChar: less
Encoding: 60 60 33
Width: 1012
Flags: W
LayerCount: 2
Fore
SplineSet
809 144 m 1,0,-1
 36 510 l 1,1,-1
 77 745 l 1,2,-1
 977 1110 l 1,3,-1
 926 818 l 1,4,-1
 338 613 l 1,5,-1
 856 412 l 1,6,-1
 809 144 l 1,0,-1
EndSplineSet
EndChar

StartChar: equal
Encoding: 61 61 34
Width: 1137
Flags: W
LayerCount: 2
Fore
SplineSet
1068 982 m 1,0,-1
 1026 746 l 1,1,-1
 157 746 l 1,2,-1
 199 982 l 1,3,-1
 1068 982 l 1,0,-1
993 549 m 1,4,-1
 952 314 l 1,5,-1
 82 314 l 1,6,-1
 124 549 l 1,7,-1
 993 549 l 1,4,-1
EndSplineSet
EndChar

StartChar: greater
Encoding: 62 62 35
Width: 1026
Flags: W
LayerCount: 2
Fore
SplineSet
201 1096 m 1,0,-1
 986 731 l 1,1,-1
 944 495 l 1,2,-1
 33 130 l 1,3,-1
 84 421 l 1,4,-1
 684 629 l 1,5,-1
 154 831 l 1,6,-1
 201 1096 l 1,0,-1
EndSplineSet
EndChar

StartChar: question
Encoding: 63 63 36
Width: 989
Flags: W
LayerCount: 2
Fore
SplineSet
567 448 m 1,0,-1
 320 447 l 1,1,2
 328 567 328 567 371 659.5 c 128,-1,3
 414 752 414 752 508 828 c 0,4,5
 571 879 571 879 634 938 c 128,-1,6
 697 997 697 997 711 1081 c 0,7,8
 721 1147 721 1147 696.5 1194.5 c 128,-1,9
 672 1242 672 1242 599 1243 c 0,10,11
 520 1245 520 1245 474.5 1193.5 c 128,-1,12
 429 1142 429 1142 415 1071 c 1,13,-1
 132 1069 l 1,14,15
 147 1268 147 1268 283 1374 c 128,-1,16
 419 1480 419 1480 613 1477 c 0,17,18
 789 1473 789 1473 901.5 1375 c 128,-1,19
 1014 1277 1014 1277 1001 1092 c 0,20,21
 991 953 991 953 899 860 c 128,-1,22
 807 767 807 767 706 686 c 0,23,24
 591 595 591 595 567 448 c 1,0,-1
229 136 m 0,25,26
 227 203 227 203 271.5 248.5 c 128,-1,27
 316 294 316 294 383 295 c 0,28,29
 449 296 449 296 495 254.5 c 128,-1,30
 541 213 541 213 543 146 c 0,31,32
 544 78 544 78 499.5 33 c 128,-1,33
 455 -12 455 -12 387 -14 c 0,34,35
 322 -15 322 -15 276 27 c 128,-1,36
 230 69 230 69 229 136 c 0,25,26
EndSplineSet
EndChar

StartChar: at
Encoding: 64 64 37
Width: 1778
Flags: W
LayerCount: 2
Fore
SplineSet
1066 -367 m 1,0,1
 989 -418 989 -418 890 -436 c 128,-1,2
 791 -454 791 -454 700 -453 c 0,3,4
 433 -450 433 -450 276.5 -324 c 128,-1,5
 120 -198 120 -198 66.5 8.5 c 128,-1,6
 13 215 13 215 54 457 c 0,7,8
 96 707 96 707 231 927 c 128,-1,9
 366 1147 366 1147 576.5 1283 c 128,-1,10
 787 1419 787 1419 1056 1416 c 0,11,12
 1309 1413 1309 1413 1461.5 1290.5 c 128,-1,13
 1614 1168 1614 1168 1669.5 970 c 128,-1,14
 1725 772 1725 772 1687 542 c 0,15,16
 1666 411 1666 411 1606.5 279.5 c 128,-1,17
 1547 148 1547 148 1443.5 61.5 c 128,-1,18
 1340 -25 1340 -25 1186 -21 c 0,19,20
 1113 -20 1113 -20 1052 15 c 128,-1,21
 991 50 991 50 969 123 c 1,22,23
 916 62 916 62 850 21 c 128,-1,24
 784 -20 784 -20 700 -19 c 0,25,26
 585 -16 585 -16 531 57.5 c 128,-1,27
 477 131 477 131 466.5 233 c 128,-1,28
 456 335 456 335 472 424 c 0,29,30
 496 552 496 552 564 684.5 c 128,-1,31
 632 817 632 817 741.5 905.5 c 128,-1,32
 851 994 851 994 1000 991 c 0,33,34
 1087 989 1087 989 1156.5 958.5 c 128,-1,35
 1226 928 1226 928 1296 880 c 1,36,-1
 1158 302 l 2,37,38
 1148 252 1148 252 1153.5 197.5 c 128,-1,39
 1159 143 1159 143 1227 139 c 0,40,41
 1319 135 1319 135 1377 205.5 c 128,-1,42
 1435 276 1435 276 1466 371.5 c 128,-1,43
 1497 467 1497 467 1509 535 c 0,44,45
 1541 717 1541 717 1515 880 c 128,-1,46
 1489 1043 1489 1043 1381 1146.5 c 128,-1,47
 1273 1250 1273 1250 1059 1253 c 0,48,49
 837 1257 837 1257 669.5 1140.5 c 128,-1,50
 502 1024 502 1024 395 840 c 128,-1,51
 288 656 288 656 250 457 c 0,52,53
 214 274 214 274 239 106.5 c 128,-1,54
 264 -61 264 -61 373 -168.5 c 128,-1,55
 482 -276 482 -276 698 -278 c 0,56,57
 786 -279 786 -279 871.5 -260.5 c 128,-1,58
 957 -242 957 -242 1037 -209 c 1,59,-1
 1066 -367 l 1,0,1
695 423 m 0,60,61
 688 384 688 384 681.5 322.5 c 128,-1,62
 675 261 675 261 692 211 c 128,-1,63
 709 161 709 161 771 158 c 0,64,65
 837 155 837 155 889.5 215 c 128,-1,66
 942 275 942 275 962 330 c 1,67,-1
 1088 805 l 1,68,69
 1053 816 1053 816 1019 817 c 0,70,71
 916 820 916 820 850.5 756 c 128,-1,72
 785 692 785 692 748.5 599 c 128,-1,73
 712 506 712 506 695 423 c 0,60,61
EndSplineSet
EndChar

StartChar: A
Encoding: 65 65 38
Width: 1338
GlyphClass: 2
Flags: W
AnchorPoint: "Anchor-5" 1510 1600 basechar 0
AnchorPoint: "Anchor-3" 1163 -407 basechar 0
AnchorPoint: "Anchor-2" 1510 1600 basechar 0
AnchorPoint: "Anchor-1" 574 7 basechar 0
AnchorPoint: "Anchor-0" 844 1600 basechar 0
LayerCount: 2
Fore
SplineSet
-104 0 m 1,0,-1
 674 1456 l 1,1,-1
 945 1456 l 1,2,-1
 1222 0 l 1,3,-1
 921 0 l 1,4,-1
 876 300 l 1,5,-1
 368 300 l 1,6,-1
 218 0 l 1,7,-1
 -104 0 l 1,0,-1
488 543 m 1,8,-1
 840 543 l 1,9,-1
 759 1086 l 1,10,-1
 488 543 l 1,8,-1
EndSplineSet
Substitution2: "'unic' Unicase lookup 2 subtable" A.unic
Substitution2: "'c2sc' Capitals to Small Capitals lookup 0 subtable" A.smcp
Position2: "'cpsp' Capital Spacing lookup 0 subtable" dx=36 dy=0 dh=72 dv=0
EndChar

StartChar: B
Encoding: 66 66 39
Width: 1268
GlyphClass: 2
Flags: W
AnchorPoint: "Anchor-5" 1442 1612 basechar 0
AnchorPoint: "Anchor-3" 1093 -407 basechar 0
AnchorPoint: "Anchor-2" 1440 1600 basechar 0
AnchorPoint: "Anchor-1" 481 10 basechar 0
AnchorPoint: "Anchor-0" 756 1612 basechar 0
LayerCount: 2
Fore
SplineSet
1144 436 m 0,0,1
 1129 203 1129 203 962 100.5 c 128,-1,2
 795 -2 795 -2 581 0 c 2,3,-1
 21 0 l 1,4,-1
 274 1456 l 1,5,-1
 752 1455 l 2,6,7
 876 1453 876 1453 988 1416 c 128,-1,8
 1100 1379 1100 1379 1167 1295 c 128,-1,9
 1234 1211 1234 1211 1224 1067 c 0,10,11
 1216 945 1216 945 1146 867 c 128,-1,12
 1076 789 1076 789 969 743 c 1,13,14
 1066 708 1066 708 1108.5 621 c 128,-1,15
 1151 534 1151 534 1144 436 c 0,0,1
526 1213 m 1,16,-1
 462 847 l 1,17,-1
 649 846 l 2,18,19
 745 846 745 846 827 887.5 c 128,-1,20
 909 929 909 929 926 1035 c 0,21,22
 941 1134 941 1134 888.5 1172 c 128,-1,23
 836 1210 836 1210 746 1212 c 2,24,-1
 526 1213 l 1,16,-1
855 440 m 0,25,26
 884 626 884 626 702 634 c 1,27,-1
 426 635 l 1,28,-1
 357 242 l 1,29,-1
 588 241 l 2,30,31
 684 242 684 242 761.5 290 c 128,-1,32
 839 338 839 338 855 440 c 0,25,26
EndSplineSet
Substitution2: "'c2sc' Capitals to Small Capitals lookup 0 subtable" B.smcp
Position2: "'cpsp' Capital Spacing lookup 0 subtable" dx=36 dy=0 dh=72 dv=0
EndChar

StartChar: C
Encoding: 67 67 40
Width: 1301
GlyphClass: 2
Flags: W
AnchorPoint: "Anchor-5" 1475 1609 basechar 0
AnchorPoint: "Anchor-3" 1126 -407 basechar 0
AnchorPoint: "Anchor-2" 1473 1600 basechar 0
AnchorPoint: "Anchor-1" 560 -3 basechar 0
AnchorPoint: "Anchor-0" 841 1609 basechar 0
LayerCount: 2
Fore
SplineSet
916 484 m 1,0,-1
 1207 486 l 1,1,2
 1178 245 1178 245 997.5 110 c 128,-1,3
 817 -25 817 -25 582 -20 c 0,4,5
 385 -16 385 -16 271.5 86.5 c 128,-1,6
 158 189 158 189 117.5 348 c 128,-1,7
 77 507 77 507 99 680 c 2,8,-1
 111 775 l 2,9,10
 137 958 137 958 223.5 1120 c 128,-1,11
 310 1282 310 1282 455 1381.5 c 128,-1,12
 600 1481 600 1481 802 1477 c 0,13,14
 1040 1473 1040 1473 1166.5 1331 c 128,-1,15
 1293 1189 1293 1189 1306 960 c 1,16,-1
 1014 961 l 1,17,18
 1014 1082 1014 1082 966 1154.5 c 128,-1,19
 918 1227 918 1227 788 1232 c 0,20,21
 660 1236 660 1236 582 1166.5 c 128,-1,22
 504 1097 504 1097 464.5 990.5 c 128,-1,23
 425 884 425 884 410 777 c 2,24,-1
 397 679 l 2,25,26
 386 591 386 591 386 486.5 c 128,-1,27
 386 382 386 382 430 305.5 c 128,-1,28
 474 229 474 229 595 225 c 0,29,30
 728 220 728 220 809 288.5 c 128,-1,31
 890 357 890 357 916 484 c 1,0,-1
EndSplineSet
Substitution2: "'ss06' Style Set 6 lookup 25 subtable" C.ss06
Substitution2: "'c2sc' Capitals to Small Capitals lookup 0 subtable" C.smcp
Position2: "'cpsp' Capital Spacing lookup 0 subtable" dx=36 dy=0 dh=72 dv=0
EndChar

StartChar: D
Encoding: 68 68 41
Width: 1292
GlyphClass: 2
Flags: W
AnchorPoint: "Anchor-5" 1465 1603 basechar 0
AnchorPoint: "Anchor-3" 1118 -407 basechar 0
AnchorPoint: "Anchor-2" 1464 1600 basechar 0
AnchorPoint: "Anchor-1" 410 10 basechar 0
AnchorPoint: "Anchor-0" 684 1603 basechar 0
LayerCount: 2
Fore
SplineSet
21 0 m 1,0,-1
 274 1456 l 1,1,-1
 692 1455 l 2,2,3
 887 1451 887 1451 1015 1353.5 c 128,-1,4
 1143 1256 1143 1256 1199 1099.5 c 128,-1,5
 1255 943 1255 943 1234 760 c 2,6,-1
 1226 695 l 2,7,8
 1199 498 1199 498 1098 340.5 c 128,-1,9
 997 183 997 183 836.5 91 c 128,-1,10
 676 -1 676 -1 472 0 c 2,11,-1
 21 0 l 1,0,-1
686 1212 m 2,12,-1
 526 1213 l 1,13,-1
 357 242 l 1,14,-1
 479 241 l 2,15,16
 682 240 682 240 791 374.5 c 128,-1,17
 900 509 900 509 927 695 c 2,18,-1
 936 763 l 2,19,20
 949 865 949 865 938 967 c 128,-1,21
 927 1069 927 1069 869.5 1138.5 c 128,-1,22
 812 1208 812 1208 686 1212 c 2,12,-1
EndSplineSet
Substitution2: "'ss06' Style Set 6 lookup 25 subtable" D.ss06
Substitution2: "'c2sc' Capitals to Small Capitals lookup 0 subtable" D.smcp
Position2: "'cpsp' Capital Spacing lookup 0 subtable" dx=36 dy=0 dh=72 dv=0
EndChar

StartChar: E
Encoding: 69 69 42
Width: 1117
GlyphClass: 2
Flags: W
AnchorPoint: "Anchor-5" 1290 1603 basechar 0
AnchorPoint: "Anchor-3" 943 -407 basechar 0
AnchorPoint: "Anchor-2" 1290 1600 basechar 0
AnchorPoint: "Anchor-1" 516 10 basechar 0
AnchorPoint: "Anchor-0" 789 1603 basechar 0
LayerCount: 2
Fore
SplineSet
21 0 m 1,0,-1
 274 1456 l 1,1,-1
 1221 1456 l 1,2,-1
 1178 1213 l 1,3,-1
 526 1213 l 1,4,-1
 465 866 l 1,5,-1
 1024 866 l 1,6,-1
 982 631 l 1,7,-1
 425 631 l 1,8,-1
 357 242 l 1,9,-1
 1013 242 l 1,10,-1
 971 0 l 1,11,-1
 21 0 l 1,0,-1
EndSplineSet
Substitution2: "'unic' Unicase lookup 2 subtable" E.unic
Substitution2: "'c2sc' Capitals to Small Capitals lookup 0 subtable" E.smcp
Position2: "'cpsp' Capital Spacing lookup 0 subtable" dx=36 dy=0 dh=72 dv=0
EndChar

StartChar: F
Encoding: 70 70 43
Width: 1089
GlyphClass: 2
Flags: W
AnchorPoint: "Anchor-5" 1264 1612 basechar 0
AnchorPoint: "Anchor-3" 915 -407 basechar 0
AnchorPoint: "Anchor-2" 1262 1600 basechar 0
AnchorPoint: "Anchor-1" 413 10 basechar 0
AnchorPoint: "Anchor-0" 790 1612 basechar 0
LayerCount: 2
Fore
SplineSet
21 0 m 1,0,-1
 274 1456 l 1,1,-1
 1197 1456 l 1,2,-1
 1154 1213 l 1,3,-1
 526 1213 l 1,4,-1
 460 837 l 1,5,-1
 1019 837 l 1,6,-1
 977 595 l 1,7,-1
 419 595 l 1,8,-1
 315 0 l 1,9,-1
 21 0 l 1,0,-1
EndSplineSet
Substitution2: "'c2sc' Capitals to Small Capitals lookup 0 subtable" F.smcp
Position2: "'cpsp' Capital Spacing lookup 0 subtable" dx=36 dy=0 dh=72 dv=0
EndChar

StartChar: G
Encoding: 71 71 44
Width: 1353
GlyphClass: 2
Flags: W
AnchorPoint: "Anchor-5" 1527 1609 basechar 0
AnchorPoint: "Anchor-3" 1179 -407 basechar 0
AnchorPoint: "Anchor-2" 1525 1600 basechar 0
AnchorPoint: "Anchor-1" 601 -3 basechar 0
AnchorPoint: "Anchor-0" 848 1609 basechar 0
LayerCount: 2
Fore
SplineSet
1273 765 m 1,0,-1
 1182 183 l 1,1,2
 1086 64 1086 64 922.5 21 c 128,-1,3
 759 -22 759 -22 616 -19 c 0,4,5
 416 -17 416 -17 296 84 c 128,-1,6
 176 185 176 185 130 344.5 c 128,-1,7
 84 504 84 504 106 684 c 2,8,-1
 118 771 l 2,9,10
 144 958 144 958 230 1120.5 c 128,-1,11
 316 1283 316 1283 462 1382 c 128,-1,12
 608 1481 608 1481 814 1477 c 0,13,14
 1048 1473 1048 1473 1174 1345.5 c 128,-1,15
 1300 1218 1300 1218 1317 991 c 1,16,-1
 1035 992 l 1,17,18
 1026 1100 1026 1100 976 1165.5 c 128,-1,19
 926 1231 926 1231 810 1235 c 0,20,21
 681 1240 681 1240 600 1169 c 128,-1,22
 519 1098 519 1098 475.5 989 c 128,-1,23
 432 880 432 880 416 773 c 2,24,-1
 404 683 l 2,25,26
 391 586 391 586 399 480.5 c 128,-1,27
 407 375 407 375 461 300.5 c 128,-1,28
 515 226 515 226 640 223 c 0,29,30
 709 221 709 221 772.5 237.5 c 128,-1,31
 836 254 836 254 893 294 c 1,32,-1
 942 545 l 1,33,-1
 677 545 l 1,34,-1
 716 765 l 1,35,-1
 1273 765 l 1,0,-1
EndSplineSet
Substitution2: "'ss06' Style Set 6 lookup 25 subtable" G.ss06
Substitution2: "'c2sc' Capitals to Small Capitals lookup 0 subtable" G.smcp
Position2: "'cpsp' Capital Spacing lookup 0 subtable" dx=36 dy=0 dh=72 dv=0
EndChar

StartChar: H
Encoding: 72 72 45
Width: 1405
GlyphClass: 2
Flags: W
AnchorPoint: "Anchor-5" 1577 1603 basechar 0
AnchorPoint: "Anchor-3" 1230 -407 basechar 0
AnchorPoint: "Anchor-2" 1577 1600 basechar 0
AnchorPoint: "Anchor-1" 601 10 basechar 0
AnchorPoint: "Anchor-0" 873 1603 basechar 0
LayerCount: 2
Fore
SplineSet
881 0 m 1,0,-1
 989 624 l 1,1,-1
 424 624 l 1,2,-1
 315 0 l 1,3,-1
 21 0 l 1,4,-1
 274 1456 l 1,5,-1
 568 1456 l 1,6,-1
 465 866 l 1,7,-1
 1031 866 l 1,8,-1
 1133 1456 l 1,9,-1
 1426 1456 l 1,10,-1
 1174 0 l 1,11,-1
 881 0 l 1,0,-1
EndSplineSet
Substitution2: "'c2sc' Capitals to Small Capitals lookup 0 subtable" H.smcp
Position2: "'cpsp' Capital Spacing lookup 0 subtable" dx=36 dy=0 dh=72 dv=0
EndChar

StartChar: I
Encoding: 73 73 46
Width: 580
GlyphClass: 2
Flags: W
AnchorPoint: "Anchor-5" 753 1603 basechar 0
AnchorPoint: "Anchor-3" 406 -407 basechar 0
AnchorPoint: "Anchor-2" 752 1600 basechar 0
AnchorPoint: "Anchor-1" 186 3 basechar 0
AnchorPoint: "Anchor-0" 462 1603 basechar 0
LayerCount: 2
Fore
SplineSet
584 1456 m 1,0,-1
 332 0 l 1,1,-1
 39 0 l 1,2,-1
 291 1456 l 1,3,-1
 584 1456 l 1,0,-1
EndSplineSet
Substitution2: "'c2sc' Capitals to Small Capitals lookup 0 subtable" I.smcp
Position2: "'cpsp' Capital Spacing lookup 0 subtable" dx=36 dy=0 dh=72 dv=0
EndChar

StartChar: J
Encoding: 74 74 47
Width: 1110
GlyphClass: 2
Flags: W
AnchorPoint: "Anchor-5" 1282 1600 basechar 0
AnchorPoint: "Anchor-3" 935 -407 basechar 0
AnchorPoint: "Anchor-2" 1282 1600 basechar 0
AnchorPoint: "Anchor-1" 391 -10 basechar 0
AnchorPoint: "Anchor-0" 1002 1600 basechar 0
LayerCount: 2
Fore
SplineSet
672 448 m 2,0,-1
 844 1456 l 1,1,-1
 1137 1456 l 1,2,-1
 966 448 l 1,3,4
 937 238 937 238 791 106.5 c 128,-1,5
 645 -25 645 -25 429 -21 c 0,6,7
 220 -17 220 -17 109 103 c 128,-1,8
 -2 223 -2 223 5 431 c 1,9,-1
 299 430 l 1,10,11
 294 346 294 346 321.5 285 c 128,-1,12
 349 224 349 224 445 222 c 0,13,14
 545 219 545 219 601.5 288.5 c 128,-1,15
 658 358 658 358 672 448 c 2,0,-1
EndSplineSet
Substitution2: "'c2sc' Capitals to Small Capitals lookup 0 subtable" J.smcp
Position2: "'cpsp' Capital Spacing lookup 0 subtable" dx=36 dy=0 dh=72 dv=0
EndChar

StartChar: K
Encoding: 75 75 48
Width: 1262
GlyphClass: 2
Flags: W
AnchorPoint: "Anchor-5" 1434 1600 basechar 0
AnchorPoint: "Anchor-3" 1087 -407 basechar 0
AnchorPoint: "Anchor-2" 1434 1600 basechar 0
AnchorPoint: "Anchor-1" 539 62 basechar 0
AnchorPoint: "Anchor-0" 751 1600 basechar 0
LayerCount: 2
Fore
SplineSet
837 0 m 1,0,-1
 577 582 l 1,1,-1
 385 404 l 1,2,-1
 315 0 l 1,3,-1
 21 0 l 1,4,-1
 274 1456 l 1,5,-1
 568 1456 l 1,6,-1
 456 815 l 1,7,-1
 603 981 l 1,8,-1
 1042 1456 l 1,9,-1
 1424 1456 l 1,10,-1
 797 795 l 1,11,-1
 1171 0 l 1,12,-1
 837 0 l 1,0,-1
EndSplineSet
Substitution2: "'ss05' Style Set 5 lookup 24 subtable" K.alt2
Substitution2: "'ss04' Style Set 4 lookup 23 subtable" K.alt
Substitution2: "'salt' Stylistic Alternatives lookup 19 subtable" K.alt
Substitution2: "'c2sc' Capitals to Small Capitals lookup 0 subtable" K.smcp
Position2: "'cpsp' Capital Spacing lookup 0 subtable" dx=36 dy=0 dh=72 dv=0
EndChar

StartChar: L
Encoding: 76 76 49
Width: 1076
GlyphClass: 2
Flags: W
AnchorPoint: "Anchor-5" 1248 1600 basechar 0
AnchorPoint: "Anchor-3" 901 -407 basechar 0
AnchorPoint: "Anchor-2" 1248 1600 basechar 0
AnchorPoint: "Anchor-1" 481 10 basechar 0
AnchorPoint: "Anchor-0" 451 1600 basechar 0
LayerCount: 2
Fore
SplineSet
975 242 m 1,0,-1
 932 0 l 1,1,-1
 21 0 l 1,2,-1
 274 1456 l 1,3,-1
 568 1456 l 1,4,-1
 357 242 l 1,5,-1
 975 242 l 1,0,-1
EndSplineSet
Substitution2: "'c2sc' Capitals to Small Capitals lookup 0 subtable" L.smcp
Position2: "'cpsp' Capital Spacing lookup 0 subtable" dx=36 dy=0 dh=72 dv=0
EndChar

StartChar: M
Encoding: 77 77 50
Width: 1740
GlyphClass: 2
Flags: W
AnchorPoint: "Anchor-5" 1912 1600 basechar 0
AnchorPoint: "Anchor-3" 1566 -407 basechar 0
AnchorPoint: "Anchor-2" 1912 1600 basechar 0
AnchorPoint: "Anchor-1" 767 10 basechar 0
AnchorPoint: "Anchor-0" 1038 1600 basechar 0
LayerCount: 2
Fore
SplineSet
829 403 m 1,0,-1
 1373 1456 l 1,1,-1
 1762 1456 l 1,2,-1
 1509 0 l 1,3,-1
 1215 0 l 1,4,-1
 1287 415 l 1,5,-1
 1429 1061 l 1,6,-1
 872 0 l 1,7,-1
 671 0 l 1,8,-1
 476 1098 l 1,9,-1
 381 381 l 1,10,-1
 315 0 l 1,11,-1
 21 0 l 1,12,-1
 274 1456 l 1,13,-1
 651 1456 l 1,14,-1
 829 403 l 1,0,-1
EndSplineSet
Substitution2: "'unic' Unicase lookup 2 subtable" M.unic
Substitution2: "'c2sc' Capitals to Small Capitals lookup 0 subtable" M.smcp
Position2: "'cpsp' Capital Spacing lookup 0 subtable" dx=36 dy=0 dh=72 dv=0
EndChar

StartChar: N
Encoding: 78 78 51
Width: 1404
GlyphClass: 2
Flags: W
AnchorPoint: "Anchor-5" 1576 1600 basechar 0
AnchorPoint: "Anchor-3" 1229 -407 basechar 0
AnchorPoint: "Anchor-2" 1576 1600 basechar 0
AnchorPoint: "Anchor-1" 599 3 basechar 0
AnchorPoint: "Anchor-0" 877 1600 basechar 0
LayerCount: 2
Fore
SplineSet
1425 1456 m 1,0,-1
 1173 0 l 1,1,-1
 889 0 l 1,2,-1
 484 972 l 1,3,-1
 315 0 l 1,4,-1
 21 0 l 1,5,-1
 274 1456 l 1,6,-1
 558 1456 l 1,7,-1
 963 483 l 1,8,-1
 1132 1456 l 1,9,-1
 1425 1456 l 1,0,-1
EndSplineSet
Substitution2: "'unic' Unicase lookup 2 subtable" N.unic
Substitution2: "'c2sc' Capitals to Small Capitals lookup 0 subtable" N.smcp
Position2: "'cpsp' Capital Spacing lookup 0 subtable" dx=36 dy=0 dh=72 dv=0
EndChar

StartChar: O
Encoding: 79 79 52
Width: 1372
GlyphClass: 2
Flags: W
AnchorPoint: "Anchor-5" 1544 1600 basechar 0
AnchorPoint: "Anchor-3" 1197 -407 basechar 0
AnchorPoint: "Anchor-2" 1544 1600 basechar 0
AnchorPoint: "Anchor-1" 586 0 basechar 0
AnchorPoint: "Anchor-0" 857 1600 basechar 0
LayerCount: 2
Fore
SplineSet
1315 760 m 1,0,-1
 1306 696 l 2,1,2
 1281 509 1281 509 1192 344 c 128,-1,3
 1103 179 1103 179 954 77.5 c 128,-1,4
 805 -24 805 -24 600 -20 c 0,5,6
 402 -16 402 -16 285 89.5 c 128,-1,7
 168 195 168 195 124 357.5 c 128,-1,8
 80 520 80 520 101 695 c 2,9,-1
 109 760 l 2,10,11
 135 946 135 946 224 1111 c 128,-1,12
 313 1276 313 1276 462 1378 c 128,-1,13
 611 1480 611 1480 816 1476 c 0,14,15
 1015 1472 1015 1472 1131.5 1366.5 c 128,-1,16
 1248 1261 1248 1261 1291.5 1098 c 128,-1,17
 1335 935 1335 935 1315 760 c 1,0,-1
1008 695 m 2,18,-1
 1017 763 l 2,19,20
 1028 853 1028 853 1024 960 c 128,-1,21
 1020 1067 1020 1067 971.5 1145.5 c 128,-1,22
 923 1224 923 1224 803 1229 c 0,23,24
 673 1234 673 1234 591 1161 c 128,-1,25
 509 1088 509 1088 465 977.5 c 128,-1,26
 421 867 421 867 406 759 c 2,27,-1
 398 693 l 2,28,29
 387 604 387 604 391.5 496.5 c 128,-1,30
 396 389 396 389 445 310 c 128,-1,31
 494 231 494 231 614 226 c 0,32,33
 742 221 742 221 824 294.5 c 128,-1,34
 906 368 906 368 949.5 478 c 128,-1,35
 993 588 993 588 1008 695 c 2,18,-1
EndSplineSet
Substitution2: "'ss06' Style Set 6 lookup 25 subtable" O.ss06
Substitution2: "'c2sc' Capitals to Small Capitals lookup 0 subtable" O.smcp
Position2: "'cpsp' Capital Spacing lookup 0 subtable" dx=36 dy=0 dh=72 dv=0
EndChar

StartChar: P
Encoding: 80 80 53
Width: 1282
GlyphClass: 2
Flags: W
AnchorPoint: "Anchor-5" 1457 1612 basechar 0
AnchorPoint: "Anchor-3" 1108 -407 basechar 0
AnchorPoint: "Anchor-2" 1455 1600 basechar 0
AnchorPoint: "Anchor-1" 412 10 basechar 0
AnchorPoint: "Anchor-0" 756 1612 basechar 0
LayerCount: 2
Fore
SplineSet
682 513 m 2,0,-1
 405 514 l 1,1,-1
 315 0 l 1,2,-1
 21 0 l 1,3,-1
 274 1456 l 1,4,-1
 808 1455 l 1,5,6
 1017 1450 1017 1450 1154 1325.5 c 128,-1,7
 1291 1201 1291 1201 1274 983 c 0,8,9
 1255 743 1255 743 1079.5 628 c 128,-1,10
 904 513 904 513 682 513 c 2,0,-1
526 1213 m 1,11,-1
 446 756 l 1,12,-1
 689 754 l 2,13,14
 799 755 799 755 880.5 811 c 128,-1,15
 962 867 962 867 978 981 c 0,16,17
 992 1078 992 1078 947.5 1142.5 c 128,-1,18
 903 1207 903 1207 802 1212 c 1,19,-1
 526 1213 l 1,11,-1
EndSplineSet
Substitution2: "'c2sc' Capitals to Small Capitals lookup 0 subtable" P.smcp
Position2: "'cpsp' Capital Spacing lookup 0 subtable" dx=36 dy=0 dh=72 dv=0
EndChar

StartChar: Q
Encoding: 81 81 54
Width: 1372
GlyphClass: 2
Flags: W
AnchorPoint: "Anchor-5" 1544 1600 basechar 0
AnchorPoint: "Anchor-3" 1197 -407 basechar 0
AnchorPoint: "Anchor-2" 1544 1600 basechar 0
AnchorPoint: "Anchor-1" 571 -10 basechar 0
AnchorPoint: "Anchor-0" 851 1600 basechar 0
LayerCount: 2
Fore
SplineSet
1157 -104 m 1,0,-1
 958 -260 l 1,1,-1
 704 -12 l 1,2,3
 643 -20 643 -20 596 -19 c 0,4,5
 399 -16 399 -16 282 90 c 128,-1,6
 165 196 165 196 121.5 358.5 c 128,-1,7
 78 521 78 521 99 695 c 2,8,-1
 107 760 l 2,9,10
 133 946 133 946 222 1111.5 c 128,-1,11
 311 1277 311 1277 460 1378.5 c 128,-1,12
 609 1480 609 1480 814 1476 c 0,13,14
 1012 1472 1012 1472 1129 1367 c 128,-1,15
 1246 1262 1246 1262 1289.5 1100 c 128,-1,16
 1333 938 1333 938 1312 763 c 2,17,-1
 1304 696 l 2,18,19
 1279 514 1279 514 1197 355.5 c 128,-1,20
 1115 197 1115 197 957 95 c 1,21,-1
 1157 -104 l 1,0,-1
1007 695 m 2,22,-1
 1016 763 l 2,23,24
 1027 853 1027 853 1022.5 960 c 128,-1,25
 1018 1067 1018 1067 969.5 1145.5 c 128,-1,26
 921 1224 921 1224 801 1229 c 0,27,28
 672 1234 672 1234 590.5 1161.5 c 128,-1,29
 509 1089 509 1089 464.5 979 c 128,-1,30
 420 869 420 869 405 762 c 2,31,-1
 396 694 l 2,32,33
 385 605 385 605 390 497.5 c 128,-1,34
 395 390 395 390 443.5 310.5 c 128,-1,35
 492 231 492 231 612 226 c 0,36,37
 741 221 741 221 822.5 294 c 128,-1,38
 904 367 904 367 948 477.5 c 128,-1,39
 992 588 992 588 1007 695 c 2,22,-1
EndSplineSet
Substitution2: "'ss06' Style Set 6 lookup 25 subtable" Q.ss06
Substitution2: "'c2sc' Capitals to Small Capitals lookup 0 subtable" Q.smcp
Position2: "'cpsp' Capital Spacing lookup 0 subtable" dx=36 dy=0 dh=72 dv=0
EndChar

StartChar: R
Encoding: 82 82 55
Width: 1268
GlyphClass: 2
Flags: W
AnchorPoint: "Anchor-5" 1440 1600 basechar 0
AnchorPoint: "Anchor-3" 1093 -407 basechar 0
AnchorPoint: "Anchor-2" 1440 1600 basechar 0
AnchorPoint: "Anchor-1" 491 10 basechar 0
AnchorPoint: "Anchor-0" 752 1600 basechar 0
LayerCount: 2
Fore
SplineSet
817 0 m 1,0,-1
 646 534 l 1,1,-1
 408 534 l 1,2,-1
 315 0 l 1,3,-1
 21 0 l 1,4,-1
 274 1456 l 1,5,-1
 782 1455 l 2,6,7
 983 1451 983 1451 1122 1347 c 128,-1,8
 1261 1243 1261 1243 1245 1024 c 0,9,10
 1234 869 1234 869 1151 766.5 c 128,-1,11
 1068 664 1068 664 926 608 c 1,12,-1
 1130 16 l 1,13,-1
 1130 0 l 1,14,-1
 817 0 l 1,0,-1
526 1213 m 1,15,-1
 450 776 l 1,16,-1
 667 774 l 2,17,18
 775 775 775 775 854 832.5 c 128,-1,19
 933 890 933 890 949 1001 c 0,20,21
 979 1204 979 1204 776 1212 c 1,22,-1
 526 1213 l 1,15,-1
EndSplineSet
Substitution2: "'ss03' Style Set 3 lookup 22 subtable" R.alt
Substitution2: "'c2sc' Capitals to Small Capitals lookup 0 subtable" R.smcp
Position2: "'cpsp' Capital Spacing lookup 0 subtable" dx=36 dy=0 dh=72 dv=0
EndChar

StartChar: S
Encoding: 83 83 56
Width: 1221
GlyphClass: 2
Flags: W
AnchorPoint: "Anchor-5" 1394 1600 basechar 0
AnchorPoint: "Anchor-3" 1047 -407 basechar 0
AnchorPoint: "Anchor-2" 1394 1600 basechar 0
AnchorPoint: "Anchor-1" 526 0 basechar 0
AnchorPoint: "Anchor-0" 801 1600 basechar 0
LayerCount: 2
Fore
SplineSet
821 389 m 0,0,1
 839 493 839 493 760.5 537.5 c 128,-1,2
 682 582 682 582 601 612 c 0,3,4
 499 651 499 651 402 707.5 c 128,-1,5
 305 764 305 764 244.5 849.5 c 128,-1,6
 184 935 184 935 191 1061 c 0,7,8
 199 1205 199 1205 288 1298 c 128,-1,9
 377 1391 377 1391 505 1435 c 128,-1,10
 633 1479 633 1479 762 1476 c 0,11,12
 965 1472 965 1472 1099 1353.5 c 128,-1,13
 1233 1235 1233 1235 1230 1026 c 1,14,-1
 938 1026 l 1,15,16
 947 1232 947 1232 745 1236 c 0,17,18
 659 1238 659 1238 578.5 1196 c 128,-1,19
 498 1154 498 1154 482 1060 c 0,20,21
 471 999 471 999 510 959.5 c 128,-1,22
 549 920 549 920 606.5 896.5 c 128,-1,23
 664 873 664 873 708 857 c 0,24,25
 818 817 818 817 913.5 758.5 c 128,-1,26
 1009 700 1009 700 1065.5 611 c 128,-1,27
 1122 522 1122 522 1113 392 c 0,28,29
 1103 245 1103 245 1018.5 153 c 128,-1,30
 934 61 934 61 809 19 c 128,-1,31
 684 -23 684 -23 552 -21 c 0,32,33
 334 -17 334 -17 183 107 c 128,-1,34
 32 231 32 231 37 460 c 1,35,-1
 330 459 l 1,36,37
 317 221 317 221 564 218 c 0,38,39
 649 217 649 217 726.5 256.5 c 128,-1,40
 804 296 804 296 821 389 c 0,0,1
EndSplineSet
Substitution2: "'c2sc' Capitals to Small Capitals lookup 0 subtable" S.smcp
Position2: "'cpsp' Capital Spacing lookup 0 subtable" dx=36 dy=0 dh=72 dv=0
EndChar

StartChar: T
Encoding: 84 84 57
Width: 1229
GlyphClass: 2
Flags: W
AnchorPoint: "Anchor-5" 1401 1600 basechar 0
AnchorPoint: "Anchor-3" 1054 -407 basechar 0
AnchorPoint: "Anchor-2" 1401 1600 basechar 0
AnchorPoint: "Anchor-1" 507 7 basechar 0
AnchorPoint: "Anchor-0" 781 1600 basechar 0
LayerCount: 2
Fore
SplineSet
144 1213 m 1,0,-1
 187 1456 l 1,1,-1
 1338 1456 l 1,2,-1
 1295 1213 l 1,3,-1
 864 1213 l 1,4,-1
 654 0 l 1,5,-1
 361 0 l 1,6,-1
 571 1213 l 1,7,-1
 144 1213 l 1,0,-1
EndSplineSet
Substitution2: "'c2sc' Capitals to Small Capitals lookup 0 subtable" T.smcp
Position2: "'cpsp' Capital Spacing lookup 0 subtable" dx=36 dy=0 dh=72 dv=0
EndChar

StartChar: U
Encoding: 85 85 58
Width: 1308
GlyphClass: 2
Flags: W
AnchorPoint: "Anchor-5" 1480 1600 basechar 0
AnchorPoint: "Anchor-3" 1133 -407 basechar 0
AnchorPoint: "Anchor-2" 1480 1600 basechar 0
AnchorPoint: "Anchor-1" 547 0 basechar 0
AnchorPoint: "Anchor-0" 823 1600 basechar 0
LayerCount: 2
Fore
SplineSet
1051 1456 m 1,0,-1
 1345 1456 l 1,1,-1
 1181 497 l 1,2,3
 1148 254 1148 254 980.5 114.5 c 128,-1,4
 813 -25 813 -25 569 -21 c 0,5,6
 339 -18 339 -18 204.5 122 c 128,-1,7
 70 262 70 262 96 496 c 1,8,-1
 259 1456 l 1,9,-1
 553 1456 l 1,10,-1
 390 495 l 2,11,12
 375 383 375 383 416.5 304.5 c 128,-1,13
 458 226 458 226 582 222 c 0,14,15
 713 217 713 217 790 294.5 c 128,-1,16
 867 372 867 372 887 496 c 2,17,-1
 1051 1456 l 1,0,-1
EndSplineSet
Substitution2: "'unic' Unicase lookup 2 subtable" U.unic
Substitution2: "'c2sc' Capitals to Small Capitals lookup 0 subtable" U.smcp
Position2: "'cpsp' Capital Spacing lookup 0 subtable" dx=36 dy=0 dh=72 dv=0
EndChar

StartChar: V
Encoding: 86 86 59
Width: 1299
GlyphClass: 2
Flags: W
AnchorPoint: "Anchor-5" 1456 1612 basechar 0
AnchorPoint: "Anchor-3" 1141 -407 basechar 0
AnchorPoint: "Anchor-2" 1454 1600 basechar 0
AnchorPoint: "Anchor-1" 557 10 basechar 0
AnchorPoint: "Anchor-0" 806 1612 basechar 0
LayerCount: 2
Fore
SplineSet
1433 1456 m 1,0,-1
 713 0 l 1,1,-1
 408 0 l 1,2,-1
 146 1456 l 1,3,-1
 460 1456 l 1,4,-1
 607 365 l 1,5,-1
 1097 1456 l 1,6,-1
 1433 1456 l 1,0,-1
EndSplineSet
Substitution2: "'c2sc' Capitals to Small Capitals lookup 0 subtable" V.smcp
Position2: "'cpsp' Capital Spacing lookup 0 subtable" dx=36 dy=0 dh=72 dv=0
EndChar

StartChar: W
Encoding: 87 87 60
Width: 1738
GlyphClass: 2
Flags: W
AnchorPoint: "Anchor-5" 1894 1600 basechar 0
AnchorPoint: "Anchor-3" 1581 -407 basechar 0
AnchorPoint: "Anchor-2" 1894 1600 basechar 0
AnchorPoint: "Anchor-1" 780 10 basechar 0
AnchorPoint: "Anchor-0" 1032 1600 basechar 0
LayerCount: 2
Fore
SplineSet
1845 1456 m 1,0,-1
 1305 0 l 1,1,-1
 1010 0 l 1,2,-1
 933 970 l 1,3,-1
 552 0 l 1,4,-1
 257 0 l 1,5,-1
 170 1456 l 1,6,-1
 456 1456 l 1,7,-1
 485 429 l 1,8,-1
 877 1456 l 1,9,-1
 1126 1456 l 1,10,-1
 1196 426 l 1,11,-1
 1547 1456 l 1,12,-1
 1845 1456 l 1,0,-1
EndSplineSet
Substitution2: "'c2sc' Capitals to Small Capitals lookup 0 subtable" W.smcp
Position2: "'cpsp' Capital Spacing lookup 0 subtable" dx=36 dy=0 dh=72 dv=0
EndChar

StartChar: X
Encoding: 88 88 61
Width: 1263
GlyphClass: 2
Flags: W
AnchorPoint: "Anchor-5" 1420 1612 basechar 0
AnchorPoint: "Anchor-3" 1106 -407 basechar 0
AnchorPoint: "Anchor-2" 1418 1600 basechar 0
AnchorPoint: "Anchor-1" 540 17 basechar 0
AnchorPoint: "Anchor-0" 780 1612 basechar 0
LayerCount: 2
Fore
SplineSet
495 1456 m 1,0,-1
 680 957 l 1,1,-1
 1022 1456 l 1,2,-1
 1374 1456 l 1,3,-1
 840 720 l 1,4,-1
 1141 0 l 1,5,-1
 817 0 l 1,6,-1
 626 508 l 1,7,-1
 276 0 l 1,8,-1
 -81 0 l 1,9,-1
 467 748 l 1,10,-1
 174 1456 l 1,11,-1
 495 1456 l 1,0,-1
EndSplineSet
Substitution2: "'c2sc' Capitals to Small Capitals lookup 0 subtable" X.smcp
Position2: "'cpsp' Capital Spacing lookup 0 subtable" dx=36 dy=0 dh=72 dv=0
EndChar

StartChar: Y
Encoding: 89 89 62
Width: 1229
GlyphClass: 2
Flags: W
AnchorPoint: "Anchor-5" 1401 1600 basechar 0
AnchorPoint: "Anchor-3" 1054 -407 basechar 0
AnchorPoint: "Anchor-2" 1401 1600 basechar 0
AnchorPoint: "Anchor-1" 515 34 basechar 0
AnchorPoint: "Anchor-0" 788 1600 basechar 0
LayerCount: 2
Fore
SplineSet
463 1456 m 1,0,-1
 641 802 l 1,1,-1
 1047 1456 l 1,2,-1
 1384 1456 l 1,3,-1
 747 511 l 1,4,-1
 659 0 l 1,5,-1
 362 0 l 1,6,-1
 457 545 l 1,7,-1
 154 1455 l 1,8,-1
 463 1456 l 1,0,-1
EndSplineSet
Substitution2: "'c2sc' Capitals to Small Capitals lookup 0 subtable" Y.smcp
Position2: "'cpsp' Capital Spacing lookup 0 subtable" dx=36 dy=0 dh=72 dv=0
EndChar

StartChar: Z
Encoding: 90 90 63
Width: 1205
GlyphClass: 2
Flags: W
AnchorPoint: "Anchor-5" 1377 1600 basechar 0
AnchorPoint: "Anchor-3" 1030 -407 basechar 0
AnchorPoint: "Anchor-2" 1377 1600 basechar 0
AnchorPoint: "Anchor-1" 507 10 basechar 0
AnchorPoint: "Anchor-0" 782 1600 basechar 0
LayerCount: 2
Fore
SplineSet
176 1213 m 1,0,-1
 219 1456 l 1,1,-1
 1280 1456 l 1,2,-1
 1247 1269 l 1,3,-1
 378 244 l 1,4,-1
 1085 242 l 1,5,-1
 1043 0 l 1,6,-1
 -34 0 l 1,7,-1
 -1 191 l 1,8,-1
 871 1211 l 1,9,-1
 176 1213 l 1,0,-1
EndSplineSet
Substitution2: "'c2sc' Capitals to Small Capitals lookup 0 subtable" Z.smcp
Position2: "'cpsp' Capital Spacing lookup 0 subtable" dx=36 dy=0 dh=72 dv=0
EndChar

StartChar: bracketleft
Encoding: 91 91 64
Width: 553
Flags: W
LayerCount: 2
Fore
SplineSet
708 1695 m 1,0,-1
 673 1472 l 1,1,-1
 534 1472 l 1,2,-1
 286 -117 l 1,3,-1
 425 -117 l 1,4,-1
 390 -339 l 1,5,-1
 -32 -339 l 1,6,-1
 286 1695 l 1,7,-1
 708 1695 l 1,0,-1
EndSplineSet
EndChar

StartChar: backslash
Encoding: 92 92 65
Width: 839
Flags: W
LayerCount: 2
Fore
SplineSet
470 -125 m 1,0,-1
 154 1456 l 1,1,-1
 429 1456 l 1,2,-1
 745 -125 l 1,3,-1
 470 -125 l 1,0,-1
EndSplineSet
EndChar

StartChar: bracketright
Encoding: 93 93 66
Width: 553
Flags: W
LayerCount: 2
Fore
SplineSet
147 1472 m 1,0,-1
 182 1695 l 1,1,-1
 604 1695 l 1,2,-1
 286 -339 l 1,3,-1
 -136 -339 l 1,4,-1
 -101 -117 l 1,5,-1
 38 -117 l 1,6,-1
 287 1472 l 1,7,-1
 147 1472 l 1,0,-1
EndSplineSet
EndChar

StartChar: asciicircum
Encoding: 94 94 67
Width: 869
Flags: W
LayerCount: 2
Fore
SplineSet
58 729 m 1,0,-1
 475 1456 l 1,1,-1
 680 1456 l 1,2,-1
 843 729 l 1,3,-1
 632 729 l 1,4,-1
 544 1182 l 1,5,-1
 296 729 l 1,6,-1
 58 729 l 1,0,-1
EndSplineSet
EndChar

StartChar: underscore
Encoding: 95 95 68
Width: 888
Flags: W
LayerCount: 2
Fore
SplineSet
781 0 m 1,0,-1
 742 -226 l 1,1,-1
 -144 -226 l 1,2,-1
 -104 0 l 1,3,-1
 781 0 l 1,0,-1
EndSplineSet
EndChar

StartChar: grave
Encoding: 96 96 69
Width: 658
Flags: W
LayerCount: 2
Fore
SplineSet
495 1536 m 1,0,-1
 637 1227 l 1,1,-1
 426 1228 l 1,2,-1
 203 1534 l 1,3,-1
 495 1536 l 1,0,-1
EndSplineSet
EndChar

StartChar: a
Encoding: 97 97 70
Width: 1065
GlyphClass: 2
Flags: W
AnchorPoint: "Anchor-5" 1184 1290 basechar 0
AnchorPoint: "Anchor-4" 845 654 basechar 0
AnchorPoint: "Anchor-3" 891 -407 basechar 0
AnchorPoint: "Anchor-2" 1237 1600 basechar 0
AnchorPoint: "Anchor-1" 360 16 basechar 0
AnchorPoint: "Anchor-0" 653 1290 basechar 0
LayerCount: 2
Fore
SplineSet
626 0 m 1,0,1
 613 41 613 41 615 98 c 1,2,3
 558 41 558 41 489 10 c 128,-1,4
 420 -21 420 -21 338 -20 c 0,5,6
 203 -18 203 -18 107 69 c 128,-1,7
 11 156 11 156 16 296 c 0,8,9
 21 438 21 438 102 517.5 c 128,-1,10
 183 597 183 597 302.5 629.5 c 128,-1,11
 422 662 422 662 543 662 c 2,12,-1
 675 660 l 1,13,-1
 690 726 l 1,14,15
 701 793 701 793 675.5 840 c 128,-1,16
 650 887 650 887 576 889 c 0,17,18
 433 893 433 893 406 758 c 1,19,-1
 123 757 l 1,20,21
 129 878 129 878 203 955 c 128,-1,22
 277 1032 277 1032 385 1068.5 c 128,-1,23
 493 1105 493 1105 600 1103 c 0,24,25
 769 1099 769 1099 880.5 1000 c 128,-1,26
 992 901 992 901 974 722 c 1,27,-1
 900 264 l 2,28,29
 891 205 891 205 885.5 140.5 c 128,-1,30
 880 76 880 76 904 19 c 1,31,-1
 903 0 l 1,32,-1
 626 0 l 1,0,1
408 199 m 0,33,34
 472 197 472 197 526.5 227 c 128,-1,35
 581 257 581 257 621 305 c 1,36,-1
 656 493 l 1,37,-1
 560 494 l 2,38,39
 474 493 474 493 395 453 c 128,-1,40
 316 413 316 413 303 317 c 0,41,42
 295 263 295 263 325 231.5 c 128,-1,43
 355 200 355 200 408 199 c 0,33,34
EndSplineSet
Substitution2: "'unic' Unicase lookup 2 subtable" A.unic
Substitution2: "'smcp' Lowercase to Small Capitals lookup 1 subtable" A.smcp
EndChar

StartChar: b
Encoding: 98 98 71
Width: 1118
GlyphClass: 2
Flags: W
AnchorPoint: "Anchor-5" 1291 1603 basechar 0
AnchorPoint: "Anchor-3" 944 -407 basechar 0
AnchorPoint: "Anchor-2" 1291 1600 basechar 0
AnchorPoint: "Anchor-1" 533 -10 basechar 0
AnchorPoint: "Anchor-0" 819 1603 basechar 0
LayerCount: 2
Fore
SplineSet
1042 532 m 2,0,1
 1026 398 1026 398 972 269.5 c 128,-1,2
 918 141 918 141 817.5 58.5 c 128,-1,3
 717 -24 717 -24 561 -20 c 0,4,5
 391 -16 391 -16 301 117 c 1,6,-1
 260 0 l 1,7,-1
 2 0 l 1,8,-1
 268 1536 l 1,9,-1
 552 1536 l 1,10,-1
 444 984 l 1,11,12
 557 1104 557 1104 708 1101 c 0,13,14
 857 1099 857 1099 934 1013.5 c 128,-1,15
 1011 928 1011 928 1034 802.5 c 128,-1,16
 1057 677 1057 677 1045 554 c 1,17,-1
 1042 532 l 2,0,1
625 869 m 0,18,19
 557 871 557 871 506.5 840 c 128,-1,20
 456 809 456 809 418 756 c 1,21,-1
 341 325 l 1,22,23
 378 217 378 217 502 214 c 0,24,25
 593 211 593 211 646 260 c 128,-1,26
 699 309 699 309 724.5 384 c 128,-1,27
 750 459 750 459 760 533 c 2,28,-1
 762 554 l 2,29,30
 768 613 768 613 767.5 685.5 c 128,-1,31
 767 758 767 758 737 812 c 128,-1,32
 707 866 707 866 625 869 c 0,18,19
EndSplineSet
Substitution2: "'ss06' Style Set 6 lookup 25 subtable" b.ss06
Substitution2: "'unic' Unicase lookup 2 subtable" B
Substitution2: "'smcp' Lowercase to Small Capitals lookup 1 subtable" B.smcp
EndChar

StartChar: c
Encoding: 99 99 72
Width: 1037
GlyphClass: 2
Flags: W
AnchorPoint: "Anchor-5" 1144 1290 basechar 0
AnchorPoint: "Anchor-3" 880 -407 basechar 0
AnchorPoint: "Anchor-2" 1192 1600 basechar 0
AnchorPoint: "Anchor-1" 443 -3 basechar 0
AnchorPoint: "Anchor-0" 626 1290 basechar 0
LayerCount: 2
Fore
SplineSet
479 212 m 0,0,1
 557 210 557 210 609.5 254.5 c 128,-1,2
 662 299 662 299 677 373 c 1,3,-1
 943 374 l 1,4,5
 930 191 930 191 789.5 83.5 c 128,-1,6
 649 -24 649 -24 472 -21 c 0,7,8
 238 -16 238 -16 135.5 147.5 c 128,-1,9
 33 311 33 311 52 525 c 2,10,-1
 55 554 l 2,11,12
 79 779 79 779 221 943 c 128,-1,13
 363 1107 363 1107 605 1102 c 0,14,15
 794 1098 794 1098 898.5 980 c 128,-1,16
 1003 862 1003 862 1001 678 c 1,17,-1
 737 678 l 1,18,19
 738 754 738 754 704 810.5 c 128,-1,20
 670 867 670 867 586 870 c 0,21,22
 498 873 498 873 446.5 823.5 c 128,-1,23
 395 774 395 774 370.5 699.5 c 128,-1,24
 346 625 346 625 338 553 c 2,25,-1
 335 525 l 2,26,27
 329 465 329 465 331 392.5 c 128,-1,28
 333 320 333 320 364.5 267 c 128,-1,29
 396 214 396 214 479 212 c 0,0,1
EndSplineSet
Substitution2: "'ss06' Style Set 6 lookup 25 subtable" c.ss06
Substitution2: "'unic' Unicase lookup 2 subtable" C
Substitution2: "'smcp' Lowercase to Small Capitals lookup 1 subtable" C.smcp
EndChar

StartChar: d
Encoding: 100 100 73
Width: 1120
GlyphClass: 2
Flags: W
AnchorPoint: "Anchor-5" 1293 1603 basechar 0
AnchorPoint: "Anchor-3" 946 -407 basechar 0
AnchorPoint: "Anchor-2" 1293 1600 basechar 0
AnchorPoint: "Anchor-1" 468 0 basechar 0
AnchorPoint: "Anchor-0" 656 1603 basechar 0
LayerCount: 2
Fore
SplineSet
655 0 m 1,0,-1
 671 116 l 1,1,2
 615 52 615 52 545.5 15 c 128,-1,3
 476 -22 476 -22 389 -20 c 0,4,5
 245 -17 245 -17 167.5 69.5 c 128,-1,6
 90 156 90 156 64.5 281 c 128,-1,7
 39 406 39 406 51 525 c 1,8,-1
 54 547 l 2,9,10
 70 681 70 681 126 810 c 128,-1,11
 182 939 182 939 284 1022.5 c 128,-1,12
 386 1106 386 1106 540 1102 c 0,13,14
 692 1098 692 1098 784 983 c 1,15,-1
 890 1536 l 1,16,-1
 1173 1536 l 1,17,-1
 907 0 l 1,18,-1
 655 0 l 1,0,-1
336 526 m 2,19,20
 329 469 329 469 331 397 c 128,-1,21
 333 325 333 325 363.5 271.5 c 128,-1,22
 394 218 394 218 473 215 c 0,23,24
 540 212 540 212 590 243.5 c 128,-1,25
 640 275 640 275 679 325 c 1,26,-1
 756 758 l 1,27,28
 717 866 717 866 600 870 c 0,29,30
 513 873 513 873 458.5 822 c 128,-1,31
 404 771 404 771 375.5 695 c 128,-1,32
 347 619 347 619 338 547 c 2,33,-1
 336 526 l 2,19,20
EndSplineSet
Substitution2: "'ss06' Style Set 6 lookup 25 subtable" d.ss06
Substitution2: "'unic' Unicase lookup 2 subtable" D
Substitution2: "'smcp' Lowercase to Small Capitals lookup 1 subtable" D.smcp
EndChar

StartChar: e
Encoding: 101 101 74
Width: 1074
GlyphClass: 2
Flags: W
AnchorPoint: "Anchor-5" 1181 1291 basechar 0
AnchorPoint: "Anchor-4" 897 654 basechar 0
AnchorPoint: "Anchor-3" 916 -407 basechar 0
AnchorPoint: "Anchor-2" 1229 1600 basechar 0
AnchorPoint: "Anchor-1" 458 0 basechar 0
AnchorPoint: "Anchor-0" 636 1291 basechar 0
LayerCount: 2
Fore
SplineSet
937 174 m 1,0,1
 868 72 868 72 750 25 c 128,-1,2
 632 -22 632 -22 513 -20 c 0,3,4
 290 -17 290 -17 165 133.5 c 128,-1,5
 40 284 40 284 57 501 c 2,6,-1
 60 541 l 2,7,8
 75 691 75 691 146 820.5 c 128,-1,9
 217 950 217 950 337 1028 c 128,-1,10
 457 1106 457 1106 618 1102 c 0,11,12
 845 1098 845 1098 942 938 c 128,-1,13
 1039 778 1039 778 1016 570 c 1,14,-1
 1000 447 l 1,15,-1
 336 447 l 1,16,17
 333 350 333 350 383.5 283.5 c 128,-1,18
 434 217 434 217 537 214 c 0,19,20
 617 212 617 212 684.5 244.5 c 128,-1,21
 752 277 752 277 807 333 c 1,22,-1
 937 174 l 1,0,1
603 870 m 0,23,24
 501 873 501 873 444.5 801 c 128,-1,25
 388 729 388 729 357 644 c 1,26,-1
 745 644 l 1,27,-1
 751 669 l 1,28,29
 764 751 764 751 727.5 809.5 c 128,-1,30
 691 868 691 868 603 870 c 0,23,24
EndSplineSet
Substitution2: "'ss07' Style Set 7 lookup 26 subtable" e.ss07
Substitution2: "'unic' Unicase lookup 2 subtable" E.unic
Substitution2: "'smcp' Lowercase to Small Capitals lookup 1 subtable" E.smcp
EndChar

StartChar: f
Encoding: 102 102 75
Width: 712
GlyphClass: 2
Flags: W
HStem: 0 21G<79 366.467> 871 211<111 231 550 722> 1325 234<634.661 842.626>
DStem2: 79 0 363 0 0.170103 0.985426<48.3093 884.162 1146.35 1358.5>
AnchorPoint: "Anchor-5" 899 1688 basechar 0
AnchorPoint: "Anchor-3" 537 -407 basechar 0
AnchorPoint: "Anchor-2" 884 1600 basechar 0
AnchorPoint: "Anchor-1" 218 10 basechar 0
AnchorPoint: "Anchor-0" 633 1688 basechar 0
LayerCount: 2
Fore
SplineSet
722 871 m 1,0,-1
 514 871 l 1,1,-1
 363 0 l 1,2,-1
 79 0 l 1,3,-1
 231 871 l 1,4,-1
 74 871 l 1,5,-1
 111 1082 l 1,6,-1
 267 1083 l 1,7,-1
 279 1176 l 2,8,9
 302 1355 302 1355 417 1458.5 c 128,-1,10
 532 1562 532 1562 715 1559 c 0,11,12
 754 1559 754 1559 792.5 1552.5 c 128,-1,13
 831 1546 831 1546 869 1538 c 1,14,-1
 844 1313 l 1,15,16
 800 1325 800 1325 760 1325 c 0,17,18
 686 1326 686 1326 633 1288 c 128,-1,19
 580 1250 580 1250 566 1176 c 2,20,-1
 550 1082 l 1,21,-1
 759 1082 l 1,22,-1
 722 871 l 1,0,-1
EndSplineSet
Substitution2: "'unic' Unicase lookup 2 subtable" F
Substitution2: "'smcp' Lowercase to Small Capitals lookup 1 subtable" F.smcp
EndChar

StartChar: g
Encoding: 103 103 76
Width: 1135
GlyphClass: 2
Flags: W
AnchorPoint: "Anchor-5" 1254 1290 basechar 0
AnchorPoint: "Anchor-3" 960 -407 basechar 0
AnchorPoint: "Anchor-2" 1307 1600 basechar 0
AnchorPoint: "Anchor-1" 356 -447 basechar 0
AnchorPoint: "Anchor-0" 656 1290 basechar 0
LayerCount: 2
Fore
SplineSet
934 37 m 1,0,1
 903 -187 903 -187 745.5 -309 c 128,-1,2
 588 -431 588 -431 365 -426 c 0,3,4
 257 -423 257 -423 155 -379.5 c 128,-1,5
 53 -336 53 -336 -17 -252 c 1,6,-1
 123 -80 l 1,7,8
 217 -199 217 -199 361 -202 c 0,9,10
 477 -205 477 -205 552.5 -141 c 128,-1,11
 628 -77 628 -77 655 33 c 2,12,-1
 671 96 l 1,13,14
 616 40 616 40 550.5 9.5 c 128,-1,15
 485 -21 485 -21 406 -20 c 0,16,17
 260 -17 260 -17 179.5 68.5 c 128,-1,18
 99 154 99 154 71 279 c 128,-1,19
 43 404 43 404 55 525 c 2,20,-1
 57 547 l 1,21,22
 74 683 74 683 133 812 c 128,-1,23
 192 941 192 941 297.5 1023.5 c 128,-1,24
 403 1106 403 1106 558 1102 c 0,25,26
 635 1101 635 1101 702.5 1071.5 c 128,-1,27
 770 1042 770 1042 816 978 c 1,28,-1
 853 1083 l 1,29,-1
 1112 1082 l 1,30,-1
 934 37 l 1,0,1
337 526 m 2,31,32
 331 466 331 466 336 394.5 c 128,-1,33
 341 323 341 323 374.5 270.5 c 128,-1,34
 408 218 408 218 488 215 c 0,35,36
 552 213 552 213 602.5 240 c 128,-1,37
 653 267 653 267 693 314 c 1,38,-1
 777 770 l 1,39,40
 735 866 735 866 618 870 c 0,41,42
 486 874 486 874 420.5 766 c 128,-1,43
 355 658 355 658 340 546 c 2,44,-1
 337 526 l 2,31,32
EndSplineSet
Substitution2: "'ss07' Style Set 7 lookup 26 subtable" g.ss07
Substitution2: "'ss06' Style Set 6 lookup 25 subtable" g.ss06
Substitution2: "'ss01' Style Set 1 lookup 20 subtable" g.alt
Substitution2: "'salt' Stylistic Alternatives lookup 19 subtable" g.alt
Substitution2: "'unic' Unicase lookup 2 subtable" G
Substitution2: "'smcp' Lowercase to Small Capitals lookup 1 subtable" G.smcp
EndChar

StartChar: h
Encoding: 104 104 77
Width: 1113
GlyphClass: 2
Flags: W
AnchorPoint: "Anchor-5" 1297 1671 basechar 0
AnchorPoint: "Anchor-3" 938 -407 basechar 0
AnchorPoint: "Anchor-2" 1285 1600 basechar 0
AnchorPoint: "Anchor-1" 463 10 basechar 0
AnchorPoint: "Anchor-0" 693 1671 basechar 0
LayerCount: 2
Fore
SplineSet
613 868 m 0,0,1
 551 870 551 870 502.5 844 c 128,-1,2
 454 818 454 818 415 772 c 1,3,-1
 278 0 l 1,4,-1
 -4 0 l 1,5,-1
 262 1536 l 1,6,-1
 545 1536 l 1,7,-1
 433 963 l 1,8,9
 491 1028 491 1028 564 1066 c 128,-1,10
 637 1104 637 1104 726 1102 c 0,11,12
 909 1099 909 1099 972 971.5 c 128,-1,13
 1035 844 1035 844 1019 682 c 1,14,-1
 905 0 l 1,15,-1
 622 0 l 1,16,-1
 737 686 l 2,17,18
 747 763 747 763 723 814.5 c 128,-1,19
 699 866 699 866 613 868 c 0,0,1
EndSplineSet
Substitution2: "'unic' Unicase lookup 2 subtable" H
Substitution2: "'smcp' Lowercase to Small Capitals lookup 1 subtable" H.smcp
EndChar

StartChar: i
Encoding: 105 105 78
Width: 527
GlyphClass: 2
Flags: W
HStem: 0 21G<18 305.475> 1062 20G<202.525 490> 1212 301<287.473 503.042>
VStem: 238 315<1257.35 1467.13>
DStem2: 18 0 302 0 0.171187 0.985238<48.6172 1098.21>
AnchorPoint: "Anchor-5" 699 1600 basechar 0
AnchorPoint: "Anchor-4" 333 654 basechar 0
AnchorPoint: "Anchor-3" 352 -407 basechar 0
AnchorPoint: "Anchor-2" 699 1600 basechar 0
AnchorPoint: "Anchor-1" 160 10 basechar 0
AnchorPoint: "Anchor-0" 435 1600 basechar 0
LayerCount: 2
Fore
SplineSet
238 1357 m 0,0,1
 236 1425 236 1425 281 1468.5 c 128,-1,2
 326 1512 326 1512 393 1513 c 0,3,4
 458 1514 458 1514 504.5 1474 c 128,-1,5
 551 1434 551 1434 553 1367 c 0,6,7
 554 1299 554 1299 509 1256 c 128,-1,8
 464 1213 464 1213 398 1212 c 0,9,10
 333 1210 333 1210 286 1250 c 128,-1,11
 239 1290 239 1290 238 1357 c 0,0,1
490 1082 m 1,12,-1
 302 0 l 1,13,-1
 18 0 l 1,14,-1
 206 1082 l 1,15,-1
 490 1082 l 1,12,-1
EndSplineSet
Substitution2: "Single Substitution lookup 5 subtable" uni0069.ccmp
Substitution2: "'unic' Unicase lookup 2 subtable" I
Substitution2: "'smcp' Lowercase to Small Capitals lookup 1 subtable" I.smcp
EndChar

StartChar: j
Encoding: 106 106 79
Width: 517
GlyphClass: 2
Flags: W
AnchorPoint: "Anchor-5" 689 1600 basechar 0
AnchorPoint: "Anchor-3" 343 -407 basechar 0
AnchorPoint: "Anchor-2" 689 1600 basechar 0
AnchorPoint: "Anchor-1" 1 -459 basechar 0
AnchorPoint: "Anchor-0" 389 1600 basechar 0
LayerCount: 2
Fore
SplineSet
234 1357 m 0,0,1
 232 1425 232 1425 276.5 1468.5 c 128,-1,2
 321 1512 321 1512 388 1513 c 0,3,4
 453 1514 453 1514 499.5 1474 c 128,-1,5
 546 1434 546 1434 548 1367 c 0,6,7
 549 1299 549 1299 504 1256 c 128,-1,8
 459 1213 459 1213 393 1212 c 0,9,10
 328 1211 328 1211 281.5 1251 c 128,-1,11
 235 1291 235 1291 234 1357 c 0,0,1
206 1082 m 1,12,-1
 490 1082 l 1,13,-1
 296 -60 l 1,14,15
 274 -231 274 -231 171.5 -336 c 128,-1,16
 69 -441 69 -441 -111 -440 c 0,17,18
 -150 -439 -150 -439 -187.5 -434 c 128,-1,19
 -225 -429 -225 -429 -263 -421 c 1,20,-1
 -240 -191 l 1,21,22
 -218 -196 -218 -196 -196 -199.5 c 128,-1,23
 -174 -203 -174 -203 -152 -203 c 0,24,25
 -17 -205 -17 -205 10 -60 c 2,26,-1
 206 1082 l 1,12,-1
EndSplineSet
Substitution2: "Single Substitution lookup 5 subtable" uni006A.ccmp
Substitution2: "'unic' Unicase lookup 2 subtable" J
Substitution2: "'smcp' Lowercase to Small Capitals lookup 1 subtable" J.smcp
EndChar

StartChar: k
Encoding: 107 107 80
Width: 1061
GlyphClass: 2
Flags: W
HStem: 0 21G<3 288.459 653.09 972> 1062 20G<762 1143> 1517 20G<265.539 552>
DStem2: 3 0 285 0 0.171152 0.985245<48.2648 370.986 762.758 1559.85> 463 763 672 618 0.712381 0.701793<47.1275 451.121> 672 618 470 431 0.436702 -0.899606<80.0125 551.59>
AnchorPoint: "Anchor-5" 1108 1603 basechar 0
AnchorPoint: "Anchor-3" 887 -407 basechar 0
AnchorPoint: "Anchor-2" 1233 1600 basechar 0
AnchorPoint: "Anchor-1" 450 41 basechar 0
AnchorPoint: "Anchor-0" 804 1603 basechar 0
LayerCount: 2
Fore
SplineSet
662 0 m 1,0,-1
 470 431 l 1,1,-1
 340 318 l 1,2,-1
 285 0 l 1,3,-1
 3 0 l 1,4,-1
 269 1537 l 1,5,-1
 552 1537 l 1,6,-1
 407 704 l 1,7,-1
 463 763 l 1,8,-1
 782 1082 l 1,9,-1
 1143 1082 l 1,10,-1
 672 618 l 1,11,-1
 972 0 l 1,12,-1
 662 0 l 1,0,-1
EndSplineSet
Substitution2: "'ss05' Style Set 5 lookup 24 subtable" k.alt2
Substitution2: "'ss04' Style Set 4 lookup 23 subtable" k.alt
Substitution2: "'unic' Unicase lookup 2 subtable" K
Substitution2: "'smcp' Lowercase to Small Capitals lookup 1 subtable" K.smcp
EndChar

StartChar: l
Encoding: 108 108 81
Width: 527
GlyphClass: 2
Flags: W
HStem: 0 21G<18 305.464> 1516 20G<281.523 568>
VStem: 18 550
DStem2: 18 0 302 0 0.17126 0.985226<48.6378 1559.03>
AnchorPoint: "Anchor-5" 713 1683 basechar 0
AnchorPoint: "Anchor-3" 352 -407 basechar 0
AnchorPoint: "Anchor-2" 699 1600 basechar 0
AnchorPoint: "Anchor-1" 160 10 basechar 0
AnchorPoint: "Anchor-0" 449 1683 basechar 0
LayerCount: 2
Fore
SplineSet
568 1536 m 1,0,-1
 302 0 l 1,1,-1
 18 0 l 1,2,-1
 285 1536 l 1,3,-1
 568 1536 l 1,0,-1
EndSplineSet
Substitution2: "'unic' Unicase lookup 2 subtable" L
Substitution2: "'smcp' Lowercase to Small Capitals lookup 1 subtable" L.smcp
EndChar

StartChar: m
Encoding: 109 109 82
Width: 1720
GlyphClass: 2
Flags: W
HStem: 0 21G<2 288.52 614 899.49 1225 1511.34> 868 234<554.977 712.919 1147.93 1324.91> 1063 20G<189 449.393>
DStem2: 2 0 285 0 0.170303 0.985392<48.1959 886.867 1020.02 1098.04> 614 0 896 0 0.171917 0.985111<48.4806 808.116> 1225 0 1508 0 0.165323 0.986239<46.7865 836.27>
AnchorPoint: "Anchor-5" 1839 1290 basechar 0
AnchorPoint: "Anchor-3" 1545 -407 basechar 0
AnchorPoint: "Anchor-2" 1892 1600 basechar 0
AnchorPoint: "Anchor-1" 772 10 basechar 0
AnchorPoint: "Anchor-0" 998 1290 basechar 0
LayerCount: 2
Fore
SplineSet
612 868 m 0,0,1
 551 870 551 870 504.5 841.5 c 128,-1,2
 458 813 458 813 420 767 c 1,3,-1
 285 0 l 1,4,-1
 2 0 l 1,5,-1
 189 1082 l 1,6,-1
 453 1083 l 1,7,-1
 431 961 l 1,8,9
 560 1105 560 1105 747 1102 c 0,10,11
 832 1100 832 1100 904 1061.5 c 128,-1,12
 976 1023 976 1023 1002 937 c 1,13,14
 1068 1015 1068 1015 1150.5 1059.5 c 128,-1,15
 1233 1104 1233 1104 1338 1102 c 0,16,17
 1518 1099 1518 1099 1578.5 974 c 128,-1,18
 1639 849 1639 849 1623 689 c 1,19,-1
 1508 0 l 1,20,-1
 1225 0 l 1,21,-1
 1341 692 l 1,22,23
 1349 765 1349 765 1328.5 816 c 128,-1,24
 1308 867 1308 867 1224 869 c 0,25,26
 1158 870 1158 870 1110 835.5 c 128,-1,27
 1062 801 1062 801 1026 749 c 1,28,29
 1024 731 1024 731 1022 722 c 2,30,-1
 896 0 l 1,31,-1
 614 0 l 1,32,-1
 730 689 l 2,33,34
 739 763 739 763 717.5 814.5 c 128,-1,35
 696 866 696 866 612 868 c 0,0,1
EndSplineSet
Substitution2: "'unic' Unicase lookup 2 subtable" M.unic
Substitution2: "'smcp' Lowercase to Small Capitals lookup 1 subtable" M.smcp
EndChar

StartChar: n
Encoding: 110 110 83
Width: 1113
GlyphClass: 2
Flags: W
AnchorPoint: "Anchor-5" 1231 1290 basechar 0
AnchorPoint: "Anchor-3" 938 -407 basechar 0
AnchorPoint: "Anchor-2" 1285 1600 basechar 0
AnchorPoint: "Anchor-1" 453 10 basechar 0
AnchorPoint: "Anchor-0" 677 1290 basechar 0
LayerCount: 2
Fore
SplineSet
613 868 m 0,0,1
 550 870 550 870 501.5 841 c 128,-1,2
 453 812 453 812 414 765 c 1,3,-1
 279 0 l 1,4,-1
 -3 0 l 1,5,-1
 185 1082 l 1,6,-1
 447 1083 l 1,7,-1
 425 956 l 1,8,9
 487 1026 487 1026 566 1065 c 128,-1,10
 645 1104 645 1104 740 1102 c 0,11,12
 919 1099 919 1099 977 972.5 c 128,-1,13
 1035 846 1035 846 1020 689 c 1,14,-1
 905 0 l 1,15,-1
 622 0 l 1,16,-1
 738 692 l 2,17,18
 747 769 747 769 722.5 818 c 128,-1,19
 698 867 698 867 613 868 c 0,0,1
EndSplineSet
Substitution2: "'unic' Unicase lookup 2 subtable" N.unic
Substitution2: "'smcp' Lowercase to Small Capitals lookup 1 subtable" N.smcp
EndChar

StartChar: o
Encoding: 111 111 84
Width: 1123
GlyphClass: 2
Flags: W
AnchorPoint: "Anchor-5" 1230 1290 basechar 0
AnchorPoint: "Anchor-4" 949 654 basechar 0
AnchorPoint: "Anchor-3" 966 -407 basechar 0
AnchorPoint: "Anchor-2" 1279 1600 basechar 0
AnchorPoint: "Anchor-1" 467 -7 basechar 0
AnchorPoint: "Anchor-0" 666 1290 basechar 0
LayerCount: 2
Fore
SplineSet
54 524 m 2,0,-1
 56 545 l 2,1,2
 72 698 72 698 143.5 825.5 c 128,-1,3
 215 953 215 953 335.5 1029 c 128,-1,4
 456 1105 456 1105 619 1102 c 0,5,6
 853 1098 853 1098 961.5 934 c 128,-1,7
 1070 770 1070 770 1051 553 c 2,8,-1
 1049 531 l 1,9,10
 1024 304 1024 304 876 139.5 c 128,-1,11
 728 -25 728 -25 486 -20 c 0,12,13
 254 -16 254 -16 144 146 c 128,-1,14
 34 308 34 308 54 524 c 2,0,-1
339 545 m 2,15,-1
 337 523 l 2,16,17
 331 459 331 459 337.5 387.5 c 128,-1,18
 344 316 344 316 380 265 c 128,-1,19
 416 214 416 214 500 212 c 0,20,21
 633 208 633 208 693 314.5 c 128,-1,22
 753 421 753 421 766 532 c 2,23,-1
 768 553 l 2,24,25
 775 617 775 617 768.5 689.5 c 128,-1,26
 762 762 762 762 725.5 814.5 c 128,-1,27
 689 867 689 867 605 870 c 0,28,29
 516 872 516 872 460.5 821.5 c 128,-1,30
 405 771 405 771 376.5 695 c 128,-1,31
 348 619 348 619 339 545 c 2,15,-1
EndSplineSet
Substitution2: "'ss06' Style Set 6 lookup 25 subtable" o.ss06
Substitution2: "'unic' Unicase lookup 2 subtable" O
Substitution2: "'smcp' Lowercase to Small Capitals lookup 1 subtable" O.smcp
EndChar

StartChar: p
Encoding: 112 112 85
Width: 1118
GlyphClass: 2
Flags: W
AnchorPoint: "Anchor-5" 1235 1280 basechar 0
AnchorPoint: "Anchor-3" 944 -407 basechar 0
AnchorPoint: "Anchor-2" 1291 1600 basechar 0
AnchorPoint: "Anchor-1" 71 -407 basechar 0
AnchorPoint: "Anchor-0" 761 1280 basechar 0
LayerCount: 2
Fore
SplineSet
561 -21 m 0,0,1
 405 -17 405 -17 312 97 c 1,2,-1
 213 -416 l 1,3,-1
 -70 -416 l 1,4,-1
 189 1082 l 1,5,-1
 449 1083 l 1,6,-1
 432 975 l 1,7,8
 487 1037 487 1037 555 1070 c 128,-1,9
 623 1103 623 1103 707 1102 c 0,10,11
 855 1099 855 1099 932.5 1013.5 c 128,-1,12
 1010 928 1010 928 1033.5 803 c 128,-1,13
 1057 678 1057 678 1045 556 c 1,14,-1
 1042 534 l 2,15,16
 1027 402 1027 402 971 273 c 128,-1,17
 915 144 915 144 814 60 c 128,-1,18
 713 -24 713 -24 561 -21 c 0,0,1
623 868 m 0,19,20
 558 871 558 871 508 843 c 128,-1,21
 458 815 458 815 420 764 c 1,22,-1
 339 318 l 1,23,24
 378 215 378 215 499 212 c 0,25,26
 586 210 586 210 640 261 c 128,-1,27
 694 312 694 312 722 387.5 c 128,-1,28
 750 463 750 463 760 534 c 2,29,-1
 762 555 l 2,30,31
 768 613 768 613 766 685 c 128,-1,32
 764 757 764 757 733 811 c 128,-1,33
 702 865 702 865 623 868 c 0,19,20
EndSplineSet
Substitution2: "'ss06' Style Set 6 lookup 25 subtable" p.ss06
Substitution2: "'unic' Unicase lookup 2 subtable" P
Substitution2: "'smcp' Lowercase to Small Capitals lookup 1 subtable" P.smcp
EndChar

StartChar: q
Encoding: 113 113 86
Width: 1122
GlyphClass: 2
Flags: W
AnchorPoint: "Anchor-5" 1241 1290 basechar 0
AnchorPoint: "Anchor-3" 948 -407 basechar 0
AnchorPoint: "Anchor-2" 1295 1600 basechar 0
AnchorPoint: "Anchor-1" 699 -407 basechar 0
AnchorPoint: "Anchor-0" 640 1290 basechar 0
LayerCount: 2
Fore
SplineSet
1095 1082 m 1,0,-1
 835 -416 l 1,1,-1
 551 -416 l 1,2,-1
 652 94 l 1,3,4
 539 -22 539 -22 390 -20 c 0,5,6
 244 -17 244 -17 167 70 c 128,-1,7
 90 157 90 157 65 282.5 c 128,-1,8
 40 408 40 408 52 527 c 2,9,-1
 55 550 l 2,10,11
 71 684 71 684 126.5 812.5 c 128,-1,12
 182 941 182 941 284 1023.5 c 128,-1,13
 386 1106 386 1106 541 1102 c 0,14,15
 710 1098 710 1098 798 969 c 1,16,-1
 843 1083 l 1,17,-1
 1095 1082 l 1,0,-1
336 528 m 2,18,19
 329 471 329 471 331 398.5 c 128,-1,20
 333 326 333 326 363.5 271 c 128,-1,21
 394 216 394 216 473 213 c 0,22,23
 538 210 538 210 588 239 c 128,-1,24
 638 268 638 268 677 318 c 1,25,-1
 759 769 l 1,26,27
 720 867 720 867 602 871 c 0,28,29
 514 873 514 873 459.5 823 c 128,-1,30
 405 773 405 773 376.5 697 c 128,-1,31
 348 621 348 621 338 549 c 2,32,-1
 336 528 l 2,18,19
EndSplineSet
Substitution2: "'ss06' Style Set 6 lookup 25 subtable" q.ss06
Substitution2: "'unic' Unicase lookup 2 subtable" Q
Substitution2: "'smcp' Lowercase to Small Capitals lookup 1 subtable" Q.smcp
EndChar

StartChar: r
Encoding: 114 114 87
Width: 726
GlyphClass: 2
Flags: W
AnchorPoint: "Anchor-5" 844 1290 basechar 0
AnchorPoint: "Anchor-3" 551 -407 basechar 0
AnchorPoint: "Anchor-2" 898 1600 basechar 0
AnchorPoint: "Anchor-1" 150 10 basechar 0
AnchorPoint: "Anchor-0" 517 1290 basechar 0
LayerCount: 2
Fore
SplineSet
648 822 m 0,0,1
 496 825 496 825 411 710 c 1,2,-1
 285 0 l 1,3,-1
 2 0 l 1,4,-1
 190 1082 l 1,5,-1
 455 1083 l 1,6,-1
 430 951 l 1,7,8
 475 1018 475 1018 536 1061.5 c 128,-1,9
 597 1105 597 1105 682 1105 c 0,10,11
 723 1104 723 1104 779 1090 c 1,12,-1
 744 812 l 1,13,14
 721 815 721 815 696.5 818.5 c 128,-1,15
 672 822 672 822 648 822 c 0,0,1
EndSplineSet
Substitution2: "'unic' Unicase lookup 2 subtable" R
Substitution2: "'smcp' Lowercase to Small Capitals lookup 1 subtable" R.smcp
EndChar

StartChar: s
Encoding: 115 115 88
Width: 1022
GlyphClass: 2
Flags: W
AnchorPoint: "Anchor-5" 1129 1290 basechar 0
AnchorPoint: "Anchor-3" 865 -407 basechar 0
AnchorPoint: "Anchor-2" 1178 1600 basechar 0
AnchorPoint: "Anchor-1" 418 -10 basechar 0
AnchorPoint: "Anchor-0" 620 1290 basechar 0
LayerCount: 2
Fore
SplineSet
630 306 m 0,0,1
 640 353 640 353 608 379 c 128,-1,2
 576 405 576 405 530.5 417.5 c 128,-1,3
 485 430 485 430 452 439 c 0,4,5
 330 470 330 470 220 541 c 128,-1,6
 110 612 110 612 115 759 c 0,7,8
 119 875 119 875 188 951.5 c 128,-1,9
 257 1028 257 1028 359 1066 c 128,-1,10
 461 1104 461 1104 564 1102 c 0,11,12
 727 1100 727 1100 850 1013.5 c 128,-1,13
 973 927 973 927 975 752 c 1,14,-1
 695 753 l 1,15,16
 697 894 697 894 557 895 c 0,17,18
 500 895 500 895 447.5 864.5 c 128,-1,19
 395 834 395 834 384 773 c 0,20,21
 372 707 372 707 435.5 684.5 c 128,-1,22
 499 662 499 662 545 651 c 0,23,24
 635 629 635 629 718.5 592.5 c 128,-1,25
 802 556 802 556 855 491 c 128,-1,26
 908 426 908 426 904 318 c 0,27,28
 900 197 900 197 825.5 122 c 128,-1,29
 751 47 751 47 643.5 12.5 c 128,-1,30
 536 -22 536 -22 431 -20 c 0,31,32
 267 -17 267 -17 140 77.5 c 128,-1,33
 13 172 13 172 9 347 c 1,34,-1
 276 345 l 1,35,36
 279 189 279 189 441 188 c 0,37,38
 501 187 501 187 559 213.5 c 128,-1,39
 617 240 617 240 630 306 c 0,0,1
EndSplineSet
Substitution2: "'unic' Unicase lookup 2 subtable" S
Substitution2: "'smcp' Lowercase to Small Capitals lookup 1 subtable" S.smcp
EndChar

StartChar: t
Encoding: 116 116 89
Width: 671
GlyphClass: 2
Flags: W
AnchorPoint: "Anchor-5" 822 1476 basechar 0
AnchorPoint: "Anchor-3" 497 -407 basechar 0
AnchorPoint: "Anchor-2" 844 1600 basechar 0
AnchorPoint: "Anchor-1" 317 0 basechar 0
AnchorPoint: "Anchor-0" 476 1476 basechar 0
LayerCount: 2
Fore
SplineSet
540 6 m 1,0,1
 466 -20 466 -20 379 -18 c 0,2,3
 235 -16 235 -16 169.5 72.5 c 128,-1,4
 104 161 104 161 116 300 c 1,5,-1
 209 871 l 1,6,-1
 55 871 l 1,7,-1
 92 1082 l 1,8,-1
 245 1082 l 1,9,-1
 292 1349 l 1,10,-1
 575 1349 l 1,11,-1
 528 1082 l 1,12,-1
 707 1082 l 1,13,-1
 670 871 l 1,14,-1
 492 871 l 1,15,-1
 399 328 l 2,16,17
 393 278 393 278 407 250 c 128,-1,18
 421 222 421 222 475 221 c 0,19,20
 496 220 496 220 517.5 222 c 128,-1,21
 539 224 539 224 560 227 c 1,22,-1
 540 6 l 1,0,1
EndSplineSet
Substitution2: "'unic' Unicase lookup 2 subtable" T
Substitution2: "'smcp' Lowercase to Small Capitals lookup 1 subtable" T.smcp
EndChar

StartChar: u
Encoding: 117 117 90
Width: 1113
GlyphClass: 2
Flags: W
AnchorPoint: "Anchor-5" 1231 1290 basechar 0
AnchorPoint: "Anchor-4" 908 654 basechar 0
AnchorPoint: "Anchor-3" 938 -407 basechar 0
AnchorPoint: "Anchor-2" 1285 1600 basechar 0
AnchorPoint: "Anchor-1" 451 0 basechar 0
AnchorPoint: "Anchor-0" 675 1290 basechar 0
LayerCount: 2
Fore
SplineSet
642 0 m 1,0,-1
 664 113 l 1,1,2
 543 -23 543 -23 365 -20 c 0,3,4
 189 -17 189 -17 120.5 102.5 c 128,-1,5
 52 222 52 222 67 382 c 1,6,-1
 184 1082 l 1,7,-1
 466 1082 l 1,8,-1
 347 379 l 2,9,10
 339 314 339 314 361 266 c 128,-1,11
 383 218 383 218 456 215 c 0,12,13
 588 210 588 210 675 317 c 1,14,-1
 809 1082 l 1,15,-1
 1093 1082 l 1,16,-1
 905 0 l 1,17,-1
 642 0 l 1,0,-1
EndSplineSet
Substitution2: "'unic' Unicase lookup 2 subtable" U.unic
Substitution2: "'smcp' Lowercase to Small Capitals lookup 1 subtable" U.smcp
EndChar

StartChar: v
Encoding: 118 118 91
Width: 1005
GlyphClass: 2
Flags: W
AnchorPoint: "Anchor-5" 1110 1280 basechar 0
AnchorPoint: "Anchor-3" 848 -407 basechar 0
AnchorPoint: "Anchor-2" 1160 1600 basechar 0
AnchorPoint: "Anchor-1" 412 10 basechar 0
AnchorPoint: "Anchor-0" 611 1280 basechar 0
LayerCount: 2
Fore
SplineSet
1070 1082 m 1,0,-1
 547 0 l 1,1,-1
 278 0 l 1,2,-1
 92 1082 l 1,3,-1
 379 1082 l 1,4,-1
 459 359 l 1,5,-1
 766 1082 l 1,6,-1
 1070 1082 l 1,0,-1
EndSplineSet
Substitution2: "'unic' Unicase lookup 2 subtable" V
Substitution2: "'smcp' Lowercase to Small Capitals lookup 1 subtable" V.smcp
EndChar

StartChar: w
Encoding: 119 119 92
Width: 1460
GlyphClass: 2
Flags: W
AnchorPoint: "Anchor-5" 1579 1290 basechar 0
AnchorPoint: "Anchor-3" 1285 -407 basechar 0
AnchorPoint: "Anchor-2" 1632 1600 basechar 0
AnchorPoint: "Anchor-1" 628 10 basechar 0
AnchorPoint: "Anchor-0" 846 1290 basechar 0
LayerCount: 2
Fore
SplineSet
1517 1082 m 1,0,-1
 1063 0 l 1,1,-1
 827 0 l 1,2,-1
 746 678 l 1,3,-1
 430 0 l 1,4,-1
 194 0 l 1,5,-1
 114 1082 l 1,6,-1
 378 1082 l 1,7,-1
 396 401 l 1,8,-1
 704 1082 l 1,9,-1
 908 1082 l 1,10,-1
 980 396 l 1,11,-1
 1236 1082 l 1,12,-1
 1517 1082 l 1,0,-1
EndSplineSet
Substitution2: "'unic' Unicase lookup 2 subtable" W
Substitution2: "'smcp' Lowercase to Small Capitals lookup 1 subtable" W.smcp
EndChar

StartChar: x
Encoding: 120 120 93
Width: 1012
GlyphClass: 2
Flags: W
AnchorPoint: "Anchor-5" 1117 1280 basechar 0
AnchorPoint: "Anchor-3" 854 -407 basechar 0
AnchorPoint: "Anchor-2" 1167 1600 basechar 0
AnchorPoint: "Anchor-1" 416 10 basechar 0
AnchorPoint: "Anchor-0" 614 1280 basechar 0
LayerCount: 2
Fore
SplineSet
403 1082 m 1,0,-1
 523 762 l 1,1,-1
 750 1082 l 1,2,-1
 1067 1082 l 1,3,-1
 675 539 l 1,4,-1
 895 0 l 1,5,-1
 610 0 l 1,6,-1
 475 339 l 1,7,-1
 237 0 l 1,8,-1
 -82 0 l 1,9,-1
 326 568 l 1,10,-1
 116 1082 l 1,11,-1
 403 1082 l 1,0,-1
EndSplineSet
Substitution2: "'unic' Unicase lookup 2 subtable" X
Substitution2: "'smcp' Lowercase to Small Capitals lookup 1 subtable" X.smcp
EndChar

StartChar: y
Encoding: 121 121 94
Width: 998
GlyphClass: 2
Flags: W
AnchorPoint: "Anchor-5" 1117 1290 basechar 0
AnchorPoint: "Anchor-4" 781 654 basechar 0
AnchorPoint: "Anchor-3" 824 -407 basechar 0
AnchorPoint: "Anchor-2" 1170 1600 basechar 0
AnchorPoint: "Anchor-1" 649 -110 basechar 0
AnchorPoint: "Anchor-0" 624 1290 basechar 0
LayerCount: 2
Fore
SplineSet
451 -163 m 1,0,1
 396 -281 396 -281 308 -361 c 128,-1,2
 220 -441 220 -441 79 -441 c 0,3,4
 45 -440 45 -440 11 -433.5 c 128,-1,5
 -23 -427 -23 -427 -56 -419 c 1,6,-1
 -34 -199 l 1,7,8
 -8 -202 -8 -202 5 -202 c 0,9,10
 151 -203 151 -203 215 -85 c 2,11,-1
 269 15 l 1,12,-1
 92 1082 l 1,13,-1
 384 1082 l 1,14,-1
 461 411 l 1,15,-1
 771 1082 l 1,16,-1
 1084 1082 l 1,17,-1
 451 -163 l 1,0,1
EndSplineSet
Substitution2: "'unic' Unicase lookup 2 subtable" Y
Substitution2: "'smcp' Lowercase to Small Capitals lookup 1 subtable" Y.smcp
EndChar

StartChar: z
Encoding: 122 122 95
Width: 1012
GlyphClass: 2
Flags: W
AnchorPoint: "Anchor-5" 1130 1290 basechar 0
AnchorPoint: "Anchor-3" 837 -407 basechar 0
AnchorPoint: "Anchor-2" 1184 1600 basechar 0
AnchorPoint: "Anchor-1" 407 10 basechar 0
AnchorPoint: "Anchor-0" 625 1290 basechar 0
LayerCount: 2
Fore
SplineSet
128 849 m 1,0,-1
 169 1082 l 1,1,-1
 1012 1082 l 1,2,-1
 980 897 l 1,3,-1
 371 235 l 1,4,-1
 880 233 l 1,5,-1
 839 0 l 1,6,-1
 -34 0 l 1,7,-1
 -1 191 l 1,8,-1
 604 847 l 1,9,-1
 128 849 l 1,0,-1
EndSplineSet
Substitution2: "'unic' Unicase lookup 2 subtable" Z
Substitution2: "'smcp' Lowercase to Small Capitals lookup 1 subtable" Z.smcp
EndChar

StartChar: braceleft
Encoding: 123 123 96
Width: 657
Flags: W
LayerCount: 2
Fore
SplineSet
171 311 m 2,0,1
 181 395 181 395 155 450 c 128,-1,2
 129 505 129 505 38 513 c 1,3,-1
 57 720 l 1,4,5
 153 724 153 724 204.5 781 c 128,-1,6
 256 838 256 838 270 929 c 2,7,-1
 298 1132 l 2,8,9
 322 1319 322 1319 425.5 1433 c 128,-1,10
 529 1547 529 1547 708 1601 c 1,11,-1
 755 1435 l 1,12,13
 656 1397 656 1397 612 1313.5 c 128,-1,14
 568 1230 568 1230 554 1132 c 2,15,-1
 526 929 l 2,16,17
 499 715 499 715 300 613 c 1,18,19
 374 559 374 559 402.5 478.5 c 128,-1,20
 431 398 431 398 423 309 c 2,21,-1
 396 105 l 2,22,23
 384 17 384 17 395 -69.5 c 128,-1,24
 406 -156 406 -156 497 -199 c 1,25,-1
 433 -359 l 1,26,27
 272 -305 272 -305 198.5 -183 c 128,-1,28
 125 -61 125 -61 143 106 c 1,29,-1
 171 311 l 2,0,1
EndSplineSet
EndChar

StartChar: bar
Encoding: 124 124 97
Width: 503
Flags: W
LayerCount: 2
Fore
SplineSet
473 1456 m 1,0,-1
 203 -270 l 1,1,-1
 31 -270 l 1,2,-1
 301 1456 l 1,3,-1
 473 1456 l 1,0,-1
EndSplineSet
EndChar

StartChar: braceright
Encoding: 125 125 98
Width: 657
Flags: W
LayerCount: 2
Fore
SplineSet
490 928 m 2,0,1
 480 843 480 843 506 787.5 c 128,-1,2
 532 732 532 732 623 724 c 1,3,-1
 604 517 l 1,4,5
 508 513 508 513 456.5 456.5 c 128,-1,6
 405 400 405 400 391 309 c 2,7,-1
 363 106 l 2,8,9
 338 -80 338 -80 235 -195 c 128,-1,10
 132 -310 132 -310 -47 -364 c 1,11,-1
 -94 -197 l 1,12,13
 5 -160 5 -160 49 -76 c 128,-1,14
 93 8 93 8 107 106 c 2,15,-1
 135 309 l 2,16,17
 162 524 162 524 366 624 c 1,18,19
 290 677 290 677 260 758 c 128,-1,20
 230 839 230 839 238 929 c 2,21,-1
 265 1133 l 2,22,23
 277 1221 277 1221 266 1307.5 c 128,-1,24
 255 1394 255 1394 164 1437 c 1,25,-1
 228 1595 l 1,26,27
 388 1542 388 1542 462 1420.5 c 128,-1,28
 536 1299 536 1299 518 1132 c 1,29,-1
 490 928 l 2,0,1
EndSplineSet
EndChar

StartChar: asciitilde
Encoding: 126 126 99
Width: 1289
Flags: W
LayerCount: 2
Fore
SplineSet
1000 794 m 1,0,-1
 1206 795 l 1,1,2
 1199 693 1199 693 1158.5 595.5 c 128,-1,3
 1118 498 1118 498 1041 435.5 c 128,-1,4
 964 373 964 373 847 375 c 0,5,6
 766 376 766 376 703.5 414 c 128,-1,7
 641 452 641 452 587 509 c 0,8,9
 558 539 558 539 523.5 566 c 128,-1,10
 489 593 489 593 444 593 c 0,11,12
 370 593 370 593 334.5 534 c 128,-1,13
 299 475 299 475 288 413 c 1,14,-1
 79 416 l 1,15,16
 86 518 86 518 126.5 614 c 128,-1,17
 167 710 167 710 244 771 c 128,-1,18
 321 832 321 832 437 829 c 0,19,20
 518 827 518 827 582.5 789.5 c 128,-1,21
 647 752 647 752 700 695 c 0,22,23
 729 665 729 665 762.5 638.5 c 128,-1,24
 796 612 796 612 841 611 c 0,25,26
 916 610 916 610 953 670.5 c 128,-1,27
 990 731 990 731 1000 794 c 1,0,-1
EndSplineSet
EndChar

StartChar: exclamdown
Encoding: 161 161 100
Width: 562
Flags: W
LayerCount: 2
Fore
SplineSet
500 954 m 0,0,1
 501 887 501 887 456.5 841.5 c 128,-1,2
 412 796 412 796 345 795 c 0,3,4
 279 793 279 793 233 835 c 128,-1,5
 187 877 187 877 186 944 c 0,6,7
 184 1011 184 1011 228.5 1056.5 c 128,-1,8
 273 1102 273 1102 341 1103 c 0,9,10
 406 1105 406 1105 452 1062.5 c 128,-1,11
 498 1020 498 1020 500 954 c 0,0,1
-37 -369 m 1,12,-1
 171 639 l 1,13,-1
 406 639 l 1,14,-1
 264 -369 l 1,15,-1
 -37 -369 l 1,12,-1
EndSplineSet
EndChar

StartChar: cent
Encoding: 162 162 101
Width: 1144
Flags: W
LayerCount: 2
Fore
SplineSet
971 375 m 1,0,1
 960 211 960 211 847.5 113.5 c 128,-1,2
 735 16 735 16 581 -11 c 1,3,-1
 532 -245 l 1,4,-1
 336 -245 l 1,5,-1
 386 -9 l 1,6,7
 197 34 197 34 132.5 192.5 c 128,-1,8
 68 351 68 351 85 524 c 2,9,-1
 88 553 l 2,10,11
 113 760 113 760 230.5 910.5 c 128,-1,12
 348 1061 348 1061 561 1094 c 1,13,-1
 608 1318 l 1,14,-1
 804 1318 l 1,15,-1
 757 1091 l 1,16,17
 905 1054 905 1054 972 938.5 c 128,-1,18
 1039 823 1039 823 1036 678 c 1,19,-1
 773 678 l 1,20,21
 774 753 774 753 741 810 c 128,-1,22
 708 867 708 867 624 870 c 0,23,24
 535 873 535 873 482.5 823.5 c 128,-1,25
 430 774 430 774 404.5 699.5 c 128,-1,26
 379 625 379 625 370 553 c 2,27,-1
 367 525 l 2,28,29
 360 465 360 465 360.5 392.5 c 128,-1,30
 361 320 361 320 391.5 267 c 128,-1,31
 422 214 422 214 506 211 c 0,32,33
 584 209 584 209 637 254 c 128,-1,34
 690 299 690 299 706 373 c 1,35,-1
 971 375 l 1,0,1
EndSplineSet
EndChar

StartChar: sterling
Encoding: 163 163 102
Width: 1181
Flags: W
LayerCount: 2
Fore
SplineSet
2 0 m 1,0,-1
 27 242 l 1,1,-1
 120 238 l 1,2,3
 178 261 178 261 198.5 313 c 128,-1,4
 219 365 219 365 228 422 c 2,5,-1
 248 577 l 1,6,-1
 90 577 l 1,7,-1
 131 812 l 1,8,-1
 282 812 l 1,9,-1
 309 1039 l 2,10,11
 332 1238 332 1238 468.5 1359 c 128,-1,12
 605 1480 605 1480 807 1475 c 0,13,14
 998 1471 998 1471 1103.5 1359 c 128,-1,15
 1209 1247 1209 1247 1204 1058 c 1,16,-1
 925 1059 l 1,17,18
 928 1131 928 1131 899 1182 c 128,-1,19
 870 1233 870 1233 789 1235 c 0,20,21
 706 1237 706 1237 659.5 1175.5 c 128,-1,22
 613 1114 613 1114 602 1040 c 2,23,-1
 575 812 l 1,24,-1
 876 812 l 1,25,-1
 835 577 l 1,26,-1
 544 577 l 1,27,-1
 528 438 l 2,28,29
 513 323 513 323 427 238 c 1,30,-1
 1066 242 l 1,31,-1
 1022 0 l 1,32,-1
 2 0 l 1,0,-1
EndSplineSet
Substitution2: "'c2sc' Capitals to Small Capitals lookup 0 subtable" sterling.smcp
Position2: "'cpsp' Capital Spacing lookup 0 subtable" dx=36 dy=0 dh=72 dv=0
EndChar

StartChar: currency
Encoding: 164 164 103
Width: 1375
Flags: W
LayerCount: 2
Fore
SplineSet
1222 104 m 1,0,-1
 1073 -27 l 1,1,-1
 973 106 l 1,2,3
 891 48 891 48 798.5 13.5 c 128,-1,4
 706 -21 706 -21 603 -20 c 0,5,6
 408 -17 408 -17 273 106 c 1,7,-1
 119 -26 l 1,8,-1
 -3 132 l 1,9,-1
 151 258 l 1,10,11
 125 342 125 342 114 428 c 128,-1,12
 103 514 103 514 114 602 c 0,13,14
 139 815 139 815 285 977 c 1,15,-1
 170 1134 l 1,16,-1
 318 1264 l 1,17,-1
 427 1121 l 1,18,19
 507 1174 507 1174 595.5 1204.5 c 128,-1,20
 684 1235 684 1235 781 1233 c 0,21,22
 968 1231 968 1231 1102 1117 c 1,23,-1
 1272 1265 l 1,24,-1
 1395 1106 l 1,25,-1
 1227 968 l 1,26,27
 1255 881 1255 881 1267 793 c 128,-1,28
 1279 705 1279 705 1268 615 c 0,29,30
 1244 412 1244 412 1111 255 c 1,31,-1
 1222 104 l 1,0,-1
295 599 m 0,32,33
 273 443 273 443 353 308.5 c 128,-1,34
 433 174 433 174 605 168 c 0,35,36
 729 165 729 165 832.5 228.5 c 128,-1,37
 936 292 936 292 1003.5 396 c 128,-1,38
 1071 500 1071 500 1088 617 c 0,39,40
 1110 772 1110 772 1030.5 906.5 c 128,-1,41
 951 1041 951 1041 779 1046 c 0,42,43
 655 1050 655 1050 551.5 987 c 128,-1,44
 448 924 448 924 380 820 c 128,-1,45
 312 716 312 716 295 599 c 0,32,33
EndSplineSet
EndChar

StartChar: yen
Encoding: 165 165 104
Width: 1065
Flags: W
LayerCount: 2
Fore
SplineSet
898 279 m 1,0,-1
 619 279 l 1,1,-1
 570 0 l 1,2,-1
 278 0 l 1,3,-1
 327 279 l 1,4,-1
 30 279 l 1,5,-1
 60 452 l 1,6,-1
 356 452 l 1,7,-1
 377 568 l 1,8,-1
 80 568 l 1,9,-1
 110 742 l 1,10,-1
 355 742 l 1,11,-1
 165 1456 l 1,12,-1
 457 1456 l 1,13,-1
 577 894 l 1,14,-1
 892 1456 l 1,15,-1
 1211 1456 l 1,16,-1
 772 744 l 1,17,-1
 980 742 l 1,18,-1
 947 568 l 1,19,-1
 669 568 l 1,20,-1
 649 452 l 1,21,-1
 929 452 l 1,22,-1
 898 279 l 1,0,-1
EndSplineSet
Substitution2: "'c2sc' Capitals to Small Capitals lookup 0 subtable" yen.smcp
Position2: "'cpsp' Capital Spacing lookup 0 subtable" dx=36 dy=0 dh=72 dv=0
EndChar

StartChar: brokenbar
Encoding: 166 166 105
Width: 501
Flags: W
LayerCount: 2
Fore
SplineSet
526 1456 m 1,0,-1
 394 698 l 1,1,-1
 140 698 l 1,2,-1
 272 1456 l 1,3,-1
 526 1456 l 1,0,-1
227 -270 m 1,4,-1
 -28 -270 l 1,5,-1
 111 525 l 1,6,-1
 365 525 l 1,7,-1
 227 -270 l 1,4,-1
EndSplineSet
EndChar

StartChar: section
Encoding: 167 167 106
Width: 1248
Flags: W
LayerCount: 2
Fore
SplineSet
1003 -71 m 0,0,1
 994 -213 994 -213 910 -297.5 c 128,-1,2
 826 -382 826 -382 703.5 -418.5 c 128,-1,3
 581 -455 581 -455 457 -453 c 0,4,5
 255 -450 255 -450 112.5 -352.5 c 128,-1,6
 -30 -255 -30 -255 -26 -35 c 1,7,-1
 254 -35 l 1,8,9
 251 -136 251 -136 312 -176.5 c 128,-1,10
 373 -217 373 -217 467 -218 c 0,11,12
 543 -219 543 -219 623 -189.5 c 128,-1,13
 703 -160 703 -160 721 -73 c 0,14,15
 733 -12 733 -12 691.5 24 c 128,-1,16
 650 60 650 60 590 80 c 128,-1,17
 530 100 530 100 488 114 c 0,18,19
 385 146 385 146 288.5 194 c 128,-1,20
 192 242 192 242 132 321 c 128,-1,21
 72 400 72 400 81 526 c 0,22,23
 87 628 87 628 143.5 696.5 c 128,-1,24
 200 765 200 765 286 812 c 1,25,26
 190 925 190 925 201 1087 c 0,27,28
 211 1227 211 1227 296 1313.5 c 128,-1,29
 381 1400 381 1400 504 1439 c 128,-1,30
 627 1478 627 1478 751 1476 c 0,31,32
 954 1473 954 1473 1083.5 1367 c 128,-1,33
 1213 1261 1213 1261 1208 1049 c 1,34,-1
 928 1049 l 1,35,36
 935 1238 935 1238 741 1242 c 0,37,38
 662 1244 662 1244 582 1211.5 c 128,-1,39
 502 1179 502 1179 485 1090 c 0,40,41
 473 1025 473 1025 511.5 989.5 c 128,-1,42
 550 954 550 954 608.5 936 c 128,-1,43
 667 918 667 918 715 903 c 0,44,45
 819 872 819 872 916.5 824 c 128,-1,46
 1014 776 1014 776 1073.5 696 c 128,-1,47
 1133 616 1133 616 1124 489 c 0,48,49
 1117 387 1117 387 1061.5 319.5 c 128,-1,50
 1006 252 1006 252 920 205 c 1,51,52
 970 146 970 146 989 76 c 128,-1,53
 1008 6 1008 6 1003 -71 c 0,0,1
593 354 m 0,54,55
 625 344 625 344 658 333.5 c 128,-1,56
 691 323 691 323 723 311 c 1,57,58
 767 338 767 338 798 373.5 c 128,-1,59
 829 409 829 409 839 461 c 0,60,61
 852 525 852 525 812.5 563 c 128,-1,62
 773 601 773 601 714.5 623.5 c 128,-1,63
 656 646 656 646 610 661 c 0,64,65
 577 672 577 672 544 683 c 128,-1,66
 511 694 511 694 478 706 c 1,67,68
 388 651 388 651 370 556 c 0,69,70
 357 489 357 489 392 450.5 c 128,-1,71
 427 412 427 412 484 391 c 128,-1,72
 541 370 541 370 593 354 c 0,54,55
EndSplineSet
EndChar

StartChar: dieresis
Encoding: 168 168 107
Width: 927
Flags: W
LayerCount: 2
Fore
SplineSet
209 1363 m 0,0,1
 208 1419 208 1419 247.5 1456 c 128,-1,2
 287 1493 287 1493 341 1494 c 256,3,4
 395 1495 395 1495 436.5 1460 c 128,-1,5
 478 1425 478 1425 479 1369 c 0,6,7
 481 1314 481 1314 442 1276.5 c 128,-1,8
 403 1239 403 1239 348 1238 c 0,9,10
 294 1237 294 1237 252.5 1272 c 128,-1,11
 211 1307 211 1307 209 1363 c 0,0,1
682 1362 m 0,12,13
 681 1417 681 1417 720 1454.5 c 128,-1,14
 759 1492 759 1492 813 1493 c 256,15,16
 867 1494 867 1494 909 1459 c 128,-1,17
 951 1424 951 1424 953 1368 c 0,18,19
 954 1312 954 1312 914.5 1275 c 128,-1,20
 875 1238 875 1238 821 1237 c 256,21,22
 767 1236 767 1236 725.5 1271 c 128,-1,23
 684 1306 684 1306 682 1362 c 0,12,13
EndSplineSet
EndChar

StartChar: copyright
Encoding: 169 169 108
Width: 1559
Flags: W
LayerCount: 2
Fore
SplineSet
103 722 m 0,0,1
 124 921 124 921 232.5 1094 c 128,-1,2
 341 1267 341 1267 512 1373.5 c 128,-1,3
 683 1480 683 1480 891 1476 c 0,4,5
 1090 1473 1090 1473 1229 1365.5 c 128,-1,6
 1368 1258 1368 1258 1434 1090 c 128,-1,7
 1500 922 1500 922 1481 735 c 0,8,9
 1460 538 1460 538 1351.5 364 c 128,-1,10
 1243 190 1243 190 1072 83 c 128,-1,11
 901 -24 901 -24 694 -20 c 0,12,13
 494 -17 494 -17 355 91 c 128,-1,14
 216 199 216 199 150 367.5 c 128,-1,15
 84 536 84 536 103 722 c 0,0,1
224 722 m 0,16,17
 203 570 203 570 250 430 c 128,-1,18
 297 290 297 290 406.5 199 c 128,-1,19
 516 108 516 108 682 105 c 0,20,21
 856 101 856 101 1001.5 190.5 c 128,-1,22
 1147 280 1147 280 1242 425.5 c 128,-1,23
 1337 571 1337 571 1360 736 c 0,24,25
 1381 887 1381 887 1334 1027 c 128,-1,26
 1287 1167 1287 1167 1177.5 1257.5 c 128,-1,27
 1068 1348 1068 1348 903 1351 c 0,28,29
 729 1355 729 1355 583 1266 c 128,-1,30
 437 1177 437 1177 342 1032 c 128,-1,31
 247 887 247 887 224 722 c 0,16,17
926 596 m 1,32,-1
 1078 597 l 1,33,34
 1068 446 1068 446 976.5 362 c 128,-1,35
 885 278 885 278 732 282 c 0,36,37
 571 286 571 286 496.5 403 c 128,-1,38
 422 520 422 520 433 669 c 1,39,-1
 445 788 l 2,40,41
 461 945 461 945 558 1062 c 128,-1,42
 655 1179 655 1179 825 1176 c 0,43,44
 971 1173 971 1173 1050.5 1088.5 c 128,-1,45
 1130 1004 1130 1004 1128 859 c 1,46,-1
 976 861 l 1,47,48
 981 942 981 942 949.5 991 c 128,-1,49
 918 1040 918 1040 830 1042 c 0,50,51
 722 1044 722 1044 666.5 964 c 128,-1,52
 611 884 611 884 598 789 c 2,53,-1
 584 668 l 2,54,55
 576 586 576 586 600.5 503.5 c 128,-1,56
 625 421 625 421 726 417 c 0,57,58
 817 413 817 413 864.5 462 c 128,-1,59
 912 511 912 511 926 596 c 1,32,-1
EndSplineSet
EndChar

StartChar: ordfeminine
Encoding: 170 170 109
Width: 882
Flags: W
LayerCount: 2
Fore
SplineSet
620 702 m 1,0,1
 616 738 616 738 617 774 c 1,2,3
 527 691 527 691 416 691 c 0,4,5
 315 691 315 691 251 750 c 128,-1,6
 187 809 187 809 188 911 c 0,7,8
 189 1008 189 1008 244.5 1060 c 128,-1,9
 300 1112 300 1112 381.5 1131.5 c 128,-1,10
 463 1151 463 1151 543 1151 c 2,11,-1
 649 1149 l 1,12,-1
 661 1204 l 2,13,14
 670 1253 670 1253 655 1289.5 c 128,-1,15
 640 1326 640 1326 584 1328 c 0,16,17
 465 1332 465 1332 437 1229 c 1,18,-1
 264 1242 l 1,19,20
 272 1366 272 1366 368 1422.5 c 128,-1,21
 464 1479 464 1479 578 1477 c 0,22,23
 701 1475 701 1475 771.5 1399.5 c 128,-1,24
 842 1324 842 1324 833 1200 c 1,25,-1
 785 886 l 2,26,27
 777 839 777 839 776 794 c 128,-1,28
 775 749 775 749 784 702 c 1,29,-1
 620 702 l 1,0,1
449 833 m 0,30,31
 493 833 493 833 534 852.5 c 128,-1,32
 575 872 575 872 610 896 c 1,33,-1
 638 1033 l 1,34,-1
 558 1033 l 2,35,36
 500 1032 500 1032 437.5 1007 c 128,-1,37
 375 982 375 982 363 915 c 0,38,39
 355 870 355 870 382.5 852 c 128,-1,40
 410 834 410 834 449 833 c 0,30,31
EndSplineSet
EndChar

StartChar: logicalnot
Encoding: 172 172 111
Width: 1095
Flags: W
LayerCount: 2
Fore
SplineSet
157 805 m 1,0,-1
 969 805 l 1,1,-1
 894 374 l 1,2,-1
 698 374 l 1,3,-1
 744 634 l 1,4,-1
 127 634 l 1,5,-1
 157 805 l 1,0,-1
EndSplineSet
EndChar

StartChar: registered
Encoding: 174 174 112
Width: 1559
Flags: W
LayerCount: 2
Fore
SplineSet
103 722 m 0,0,1
 124 921 124 921 232.5 1094 c 128,-1,2
 341 1267 341 1267 512 1373 c 128,-1,3
 683 1479 683 1479 891 1476 c 0,4,5
 1090 1473 1090 1473 1229 1365.5 c 128,-1,6
 1368 1258 1368 1258 1434 1090 c 128,-1,7
 1500 922 1500 922 1481 735 c 0,8,9
 1460 538 1460 538 1351.5 364 c 128,-1,10
 1243 190 1243 190 1072 83 c 128,-1,11
 901 -24 901 -24 694 -20 c 0,12,13
 494 -17 494 -17 355 91 c 128,-1,14
 216 199 216 199 150 367.5 c 128,-1,15
 84 536 84 536 103 722 c 0,0,1
224 722 m 0,16,17
 202 570 202 570 249.5 430 c 128,-1,18
 297 290 297 290 406.5 199 c 128,-1,19
 516 108 516 108 681 105 c 0,20,21
 856 101 856 101 1001.5 190.5 c 128,-1,22
 1147 280 1147 280 1242 425.5 c 128,-1,23
 1337 571 1337 571 1360 736 c 0,24,25
 1381 887 1381 887 1334 1027 c 128,-1,26
 1287 1167 1287 1167 1177.5 1257.5 c 128,-1,27
 1068 1348 1068 1348 903 1351 c 0,28,29
 729 1355 729 1355 583 1266 c 128,-1,30
 437 1177 437 1177 342 1032 c 128,-1,31
 247 887 247 887 224 722 c 0,16,17
809 651 m 2,32,-1
 642 653 l 1,33,-1
 589 316 l 1,34,-1
 440 316 l 1,35,-1
 574 1166 l 1,36,-1
 830 1165 l 2,37,38
 947 1162 947 1162 1036.5 1102 c 128,-1,39
 1126 1042 1126 1042 1120 911 c 0,40,41
 1117 843 1117 843 1078 800 c 128,-1,42
 1039 757 1039 757 984 724 c 1,43,44
 1034 687 1034 687 1047 630.5 c 128,-1,45
 1060 574 1060 574 1055 515 c 2,46,-1
 1049 459 l 2,47,48
 1045 426 1045 426 1046.5 396 c 128,-1,49
 1048 366 1048 366 1051 333 c 1,50,-1
 1050 314 l 1,51,-1
 902 315 l 1,52,53
 896 351 896 351 897.5 387.5 c 128,-1,54
 899 424 899 424 903 461 c 2,55,-1
 910 516 l 2,56,57
 917 578 917 578 896 612.5 c 128,-1,58
 875 647 875 647 809 651 c 2,32,-1
701 1033 m 1,59,-1
 663 787 l 1,60,-1
 778 786 l 2,61,62
 838 788 838 788 900 815 c 128,-1,63
 962 842 962 842 976 909 c 0,64,65
 991 984 991 984 948.5 1007 c 128,-1,66
 906 1030 906 1030 842 1032 c 2,67,-1
 701 1033 l 1,59,-1
EndSplineSet
EndChar

StartChar: macron
Encoding: 175 175 113
Width: 995
Flags: W
LayerCount: 2
Fore
SplineSet
967 1455 m 1,0,-1
 941 1288 l 1,1,-1
 269 1288 l 1,2,-1
 296 1455 l 1,3,-1
 967 1455 l 1,0,-1
EndSplineSet
EndChar

StartChar: degree
Encoding: 176 176 114
Width: 772
Flags: W
LayerCount: 2
Fore
SplineSet
227 1191 m 0,0,1
 229 1305 229 1305 311 1392 c 128,-1,2
 393 1479 393 1479 509 1477 c 0,3,4
 617 1475 617 1475 684.5 1393.5 c 128,-1,5
 752 1312 752 1312 749 1208 c 0,6,7
 747 1096 747 1096 667 1011 c 128,-1,8
 587 926 587 926 472 928 c 0,9,10
 365 930 365 930 295 1008.5 c 128,-1,11
 225 1087 225 1087 227 1191 c 0,0,1
369 1193 m 0,12,13
 363 1147 363 1147 389.5 1111 c 128,-1,14
 416 1075 416 1075 464 1076 c 0,15,16
 519 1076 519 1076 559 1115.5 c 128,-1,17
 599 1155 599 1155 607 1207 c 0,18,19
 614 1252 614 1252 590 1290 c 128,-1,20
 566 1328 566 1328 517 1329 c 0,21,22
 462 1329 462 1329 419.5 1287.5 c 128,-1,23
 377 1246 377 1246 369 1193 c 0,12,13
EndSplineSet
EndChar

StartChar: plusminus
Encoding: 177 177 115
Width: 1068
Flags: W
LayerCount: 2
Fore
SplineSet
992 702 m 1,0,-1
 674 702 l 1,1,-1
 617 337 l 1,2,-1
 368 337 l 1,3,-1
 426 702 l 1,4,-1
 101 702 l 1,5,-1
 139 943 l 1,6,-1
 463 943 l 1,7,-1
 517 1286 l 1,8,-1
 765 1286 l 1,9,-1
 711 943 l 1,10,-1
 1030 943 l 1,11,-1
 992 702 l 1,0,-1
892 237 m 1,12,-1
 854 1 l 1,13,-1
 15 1 l 1,14,-1
 52 237 l 1,15,-1
 892 237 l 1,12,-1
EndSplineSet
EndChar

StartChar: twosuperior
Encoding: 178 178 116
Width: 750
Flags: W
LayerCount: 2
Fore
SplineSet
715 831 m 1,0,-1
 685 667 l 1,1,-1
 82 667 l 1,2,-1
 108 817 l 1,3,-1
 416 1064 l 2,4,5
 452 1094 452 1094 496 1137 c 128,-1,6
 540 1180 540 1180 550 1229 c 0,7,8
 567 1307 567 1307 485 1307 c 0,9,10
 434 1307 434 1307 404 1273.5 c 128,-1,11
 374 1240 374 1240 364 1194 c 1,12,-1
 161 1192 l 1,13,14
 168 1320 168 1320 257.5 1395.5 c 128,-1,15
 347 1471 347 1471 473 1470 c 0,16,17
 586 1469 586 1469 672.5 1411 c 128,-1,18
 759 1353 759 1353 756 1228 c 0,19,20
 753 1118 753 1118 672 1046 c 128,-1,21
 591 974 591 974 509 918 c 2,22,-1
 379 833 l 1,23,-1
 715 831 l 1,0,-1
EndSplineSet
EndChar

StartChar: threesuperior
Encoding: 179 179 117
Width: 750
Flags: W
LayerCount: 2
Fore
SplineSet
437 1000 m 2,0,-1
 331 1001 l 1,1,-1
 357 1138 l 1,2,-1
 427 1138 l 2,3,4
 473 1140 473 1140 513.5 1161.5 c 128,-1,5
 554 1183 554 1183 565 1233 c 0,6,7
 573 1270 573 1270 547.5 1286.5 c 128,-1,8
 522 1303 522 1303 489 1304 c 0,9,10
 409 1304 409 1304 381 1243 c 1,11,-1
 174 1241 l 1,12,13
 181 1362 181 1362 272.5 1416.5 c 128,-1,14
 364 1471 364 1471 475 1469 c 0,15,16
 577 1468 577 1468 673.5 1419 c 128,-1,17
 770 1370 770 1370 767 1249 c 0,18,19
 764 1175 764 1175 716.5 1134 c 128,-1,20
 669 1093 669 1093 607 1066 c 1,21,22
 724 1027 724 1027 722 896 c 0,23,24
 722 808 722 808 668.5 754.5 c 128,-1,25
 615 701 615 701 537.5 677.5 c 128,-1,26
 460 654 460 654 385 656 c 0,27,28
 268 659 268 659 184 720.5 c 128,-1,29
 100 782 100 782 97 905 c 1,30,-1
 291 904 l 1,31,32
 297 823 297 823 393 823 c 0,33,34
 438 823 438 823 478.5 846 c 128,-1,35
 519 869 519 869 529 916 c 0,36,37
 539 965 539 965 508.5 982 c 128,-1,38
 478 999 478 999 437 1000 c 2,0,-1
EndSplineSet
EndChar

StartChar: acute
Encoding: 180 180 118
Width: 660
Flags: W
LayerCount: 2
Fore
SplineSet
187 1227 m 1,0,-1
 426 1536 l 1,1,-1
 753 1536 l 1,2,-1
 435 1227 l 1,3,-1
 187 1227 l 1,0,-1
EndSplineSet
EndChar

StartChar: mu
Encoding: 181 181 119
Width: 1223
Flags: W
LayerCount: 2
Fore
SplineSet
495 -22 m 0,0,1
 402 -21 402 -21 327 26 c 1,2,-1
 240 -416 l 1,3,-1
 -42 -416 l 1,4,-1
 218 1082 l 1,5,-1
 500 1082 l 1,6,-1
 397 461 l 2,7,8
 387 379 387 379 399.5 298.5 c 128,-1,9
 412 218 412 218 516 215 c 0,10,11
 649 211 649 211 736 318 c 1,12,-1
 871 1082 l 1,13,-1
 1154 1082 l 1,14,-1
 966 0 l 1,15,-1
 717 0 l 1,16,-1
 726 69 l 1,17,18
 620 -23 620 -23 495 -22 c 0,0,1
EndSplineSet
EndChar

StartChar: paragraph
Encoding: 182 182 120
Width: 974
Flags: W
LayerCount: 2
Fore
SplineSet
741 0 m 1,0,-1
 526 0 l 1,1,-1
 617 520 l 1,2,-1
 556 521 l 2,3,4
 353 526 353 526 238 651.5 c 128,-1,5
 123 777 123 777 141 980 c 0,6,7
 161 1201 161 1201 313 1329 c 128,-1,8
 465 1457 465 1457 681 1457 c 2,9,-1
 994 1456 l 1,10,-1
 741 0 l 1,0,-1
EndSplineSet
EndChar

StartChar: periodcentered
Encoding: 183 183 121
Width: 598
Flags: W
LayerCount: 2
Fore
SplineSet
153 692 m 0,0,1
 151 761 151 761 196.5 806.5 c 128,-1,2
 242 852 242 852 310 853 c 0,3,4
 376 854 376 854 422.5 812 c 128,-1,5
 469 770 469 770 471 702 c 0,6,7
 472 634 472 634 427 588.5 c 128,-1,8
 382 543 382 543 314 542 c 0,9,10
 248 540 248 540 201.5 582.5 c 128,-1,11
 155 625 155 625 153 692 c 0,0,1
EndSplineSet
EndChar

StartChar: cedilla
Encoding: 184 184 122
Width: 533
GlyphClass: 2
Flags: W
AnchorPoint: "Anchor-11" 43 -463 basemark 0
LayerCount: 2
Fore
SplineSet
12 6 m 1,0,-1
 222 9 l 1,1,-1
 202 -55 l 1,2,3
 327 -81 327 -81 327 -217 c 0,4,5
 327 -317 327 -317 266.5 -369.5 c 128,-1,6
 206 -422 206 -422 119.5 -442 c 128,-1,7
 33 -462 33 -462 -46 -465 c 1,8,-1
 -38 -296 l 1,9,10
 5 -293 5 -293 43.5 -274 c 128,-1,11
 82 -255 82 -255 91 -207 c 0,12,13
 101 -155 101 -155 52.5 -147 c 128,-1,14
 4 -139 4 -139 -31 -136 c 1,15,-1
 12 6 l 1,0,-1
EndSplineSet
EndChar

StartChar: onesuperior
Encoding: 185 185 123
Width: 750
Flags: W
LayerCount: 2
Fore
SplineSet
653 1455 m 1,0,-1
 525 667 l 1,1,-1
 326 667 l 1,2,-1
 420 1211 l 1,3,-1
 229 1171 l 1,4,-1
 259 1339 l 1,5,-1
 627 1454 l 1,6,-1
 653 1455 l 1,0,-1
EndSplineSet
EndChar

StartChar: ordmasculine
Encoding: 186 186 124
Width: 909
Flags: W
LayerCount: 2
Fore
SplineSet
195 1044 m 2,0,-1
 201 1120 l 2,1,2
 216 1272 216 1272 316.5 1376 c 128,-1,3
 417 1480 417 1480 576 1477 c 0,4,5
 728 1473 728 1473 807 1369.5 c 128,-1,6
 886 1266 886 1266 876 1121 c 2,7,-1
 869 1044 l 2,8,9
 854 892 854 892 754.5 789 c 128,-1,10
 655 686 655 686 496 689 c 0,11,12
 344 693 344 693 264.5 796 c 128,-1,13
 185 899 185 899 195 1044 c 2,0,-1
376 1121 m 2,14,-1
 367 1041 l 2,15,16
 361 969 361 969 384.5 903 c 128,-1,17
 408 837 408 837 495 834 c 0,18,19
 585 831 585 831 634.5 897.5 c 128,-1,20
 684 964 684 964 696 1044 c 2,21,-1
 705 1122 l 2,22,23
 712 1194 712 1194 688 1260.5 c 128,-1,24
 664 1327 664 1327 578 1329 c 0,25,26
 487 1333 487 1333 437 1267.5 c 128,-1,27
 387 1202 387 1202 376 1121 c 2,14,-1
EndSplineSet
EndChar

StartChar: questiondown
Encoding: 191 191 129
Width: 989
Flags: W
LayerCount: 2
Fore
SplineSet
742 955 m 0,0,1
 744 888 744 888 699.5 842.5 c 128,-1,2
 655 797 655 797 588 796 c 0,3,4
 522 794 522 794 475.5 836 c 128,-1,5
 429 878 429 878 428 945 c 0,6,7
 426 1012 426 1012 471 1057.5 c 128,-1,8
 516 1103 516 1103 583 1104 c 0,9,10
 648 1106 648 1106 694.5 1063.5 c 128,-1,11
 741 1021 741 1021 742 955 c 0,0,1
397 643 m 1,12,-1
 643 644 l 1,13,14
 636 524 636 524 594.5 434 c 128,-1,15
 553 344 553 344 460 266 c 0,16,17
 395 211 395 211 331 149 c 128,-1,18
 267 87 267 87 254 -2 c 0,19,20
 245 -66 245 -66 271.5 -108.5 c 128,-1,21
 298 -151 298 -151 366 -152 c 0,22,23
 447 -154 447 -154 493.5 -103.5 c 128,-1,24
 540 -53 540 -53 554 21 c 1,25,-1
 837 23 l 1,26,27
 822 -176 822 -176 686.5 -283 c 128,-1,28
 551 -390 551 -390 356 -385 c 0,29,30
 180 -382 180 -382 66 -285 c 128,-1,31
 -48 -188 -48 -188 -35 -1 c 0,32,33
 -25 139 -25 139 70 234.5 c 128,-1,34
 165 330 165 330 267 412 c 0,35,36
 323 457 323 457 340.5 533.5 c 128,-1,37
 358 610 358 610 397 643 c 1,12,-1
EndSplineSet
EndChar

StartChar: AE
Encoding: 198 198 130
Width: 1868
GlyphClass: 2
Flags: W
AnchorPoint: "Anchor-5" 2043 1612 basechar 0
AnchorPoint: "Anchor-2" 2041 1600 basechar 0
AnchorPoint: "Anchor-0" 1080 1612 basechar 0
LayerCount: 2
Fore
SplineSet
1749 236 m 1,0,-1
 1707 0 l 1,1,-1
 835 0 l 1,2,-1
 880 334 l 1,3,-1
 458 334 l 1,4,-1
 237 0 l 1,5,-1
 -111 0 l 1,6,-1
 905 1456 l 1,7,-1
 1900 1456 l 1,8,-1
 1858 1220 l 1,9,-1
 1279 1220 l 1,10,-1
 1232 866 l 1,11,-1
 1719 866 l 1,12,-1
 1678 630 l 1,13,-1
 1201 630 l 1,14,-1
 1148 236 l 1,15,-1
 1749 236 l 1,0,-1
616 583 m 1,16,-1
 912 581 l 1,17,-1
 986 1132 l 1,18,-1
 616 583 l 1,16,-1
EndSplineSet
Substitution2: "'c2sc' Capitals to Small Capitals lookup 0 subtable" AE.smcp
Position2: "'cpsp' Capital Spacing lookup 0 subtable" dx=36 dy=0 dh=72 dv=0
EndChar

StartChar: multiply
Encoding: 215 215 131
Width: 1055
Flags: W
LayerCount: 2
Fore
SplineSet
944 361 m 1,0,-1
 763 205 l 1,1,-1
 521 513 l 1,2,-1
 173 205 l 1,3,-1
 25 387 l 1,4,-1
 378 700 l 1,5,-1
 134 1012 l 1,6,-1
 315 1168 l 1,7,-1
 556 859 l 1,8,-1
 905 1168 l 1,9,-1
 1053 986 l 1,10,-1
 701 673 l 1,11,-1
 944 361 l 1,0,-1
EndSplineSet
EndChar

StartChar: Oslash
Encoding: 216 216 132
Width: 1369
GlyphClass: 2
Flags: W
AnchorPoint: "Anchor-5" 1554 1674 basechar 0
AnchorPoint: "Anchor-2" 1541 1600 basechar 0
AnchorPoint: "Anchor-0" 880 1674 basechar 0
LayerCount: 2
Fore
SplineSet
605 -21 m 0,0,1
 451 -19 451 -19 326 51 c 1,2,-1
 214 -95 l 1,3,-1
 12 -94 l 1,4,-1
 206 150 l 1,5,6
 132 275 132 275 110.5 413 c 128,-1,7
 89 551 89 551 107 695 c 2,8,-1
 116 760 l 2,9,10
 142 947 142 947 231 1111.5 c 128,-1,11
 320 1276 320 1276 469 1377.5 c 128,-1,12
 618 1479 618 1479 823 1477 c 0,13,14
 901 1476 901 1476 976.5 1456 c 128,-1,15
 1052 1436 1052 1436 1119 1393 c 1,16,-1
 1217 1518 l 1,17,-1
 1419 1517 l 1,18,-1
 1236 1288 l 1,19,20
 1301 1165 1301 1165 1319.5 1031.5 c 128,-1,21
 1338 898 1338 898 1321 760 c 2,22,-1
 1312 695 l 2,23,24
 1286 508 1286 508 1197 343.5 c 128,-1,25
 1108 179 1108 179 959 77.5 c 128,-1,26
 810 -24 810 -24 605 -21 c 0,0,1
402 694 m 2,27,28
 391 623 391 623 386 551 c 128,-1,29
 381 479 381 479 390 408 c 1,30,-1
 965 1172 l 1,31,32
 935 1203 935 1203 894.5 1216.5 c 128,-1,33
 854 1230 854 1230 812 1231 c 0,34,35
 682 1235 682 1235 600 1162.5 c 128,-1,36
 518 1090 518 1090 473.5 980 c 128,-1,37
 429 870 429 870 412 762 c 2,38,-1
 402 694 l 2,27,28
1026 762 m 2,39,40
 1035 826 1035 826 1041 890.5 c 128,-1,41
 1047 955 1047 955 1044 1020 c 1,42,-1
 480 268 l 1,43,44
 509 245 509 245 544.5 235 c 128,-1,45
 580 225 580 225 617 224 c 0,46,47
 747 220 747 220 828.5 293.5 c 128,-1,48
 910 367 910 367 954.5 477 c 128,-1,49
 999 587 999 587 1015 695 c 2,50,-1
 1026 762 l 2,39,40
EndSplineSet
Substitution2: "'c2sc' Capitals to Small Capitals lookup 0 subtable" Oslash.smcp
Position2: "'cpsp' Capital Spacing lookup 0 subtable" dx=36 dy=0 dh=72 dv=0
EndChar

StartChar: Thorn
Encoding: 222 222 133
Width: 1209
Flags: W
LayerCount: 2
Fore
SplineSet
590 286 m 2,0,-1
 358 287 l 1,1,-1
 307 0 l 1,2,-1
 24 0 l 1,3,-1
 277 1456 l 1,4,-1
 560 1456 l 1,5,-1
 513 1189 l 1,6,-1
 710 1188 l 2,7,8
 909 1184 909 1184 1048 1072.5 c 128,-1,9
 1187 961 1187 961 1171 746 c 0,10,11
 1159 590 1159 590 1075 488 c 128,-1,12
 991 386 991 386 862.5 336 c 128,-1,13
 734 286 734 286 590 286 c 2,0,-1
473 956 m 1,14,-1
 398 520 l 1,15,-1
 597 518 l 2,16,17
 704 519 704 519 787.5 576 c 128,-1,18
 871 633 871 633 888 744 c 0,19,20
 903 841 903 841 851.5 896 c 128,-1,21
 800 951 800 951 705 955 c 2,22,-1
 473 956 l 1,14,-1
EndSplineSet
Substitution2: "'c2sc' Capitals to Small Capitals lookup 0 subtable" Thorn.smcp
Position2: "'cpsp' Capital Spacing lookup 0 subtable" dx=36 dy=0 dh=72 dv=0
EndChar

StartChar: germandbls
Encoding: 223 223 134
Width: 1253
Flags: W
LayerCount: 2
Fore
SplineSet
494 1098 m 2,0,-1
 307 0 l 1,1,-1
 26 0 l 1,2,-1
 214 1102 l 1,3,4
 242 1314 242 1314 378 1439.5 c 128,-1,5
 514 1565 514 1565 733 1560 c 0,6,7
 893 1557 893 1557 1001.5 1462 c 128,-1,8
 1110 1367 1110 1367 1098 1198 c 0,9,10
 1093 1123 1093 1123 1059.5 1064.5 c 128,-1,11
 1026 1006 1026 1006 989.5 949.5 c 128,-1,12
 953 893 953 893 940 822 c 0,13,14
 929 764 929 764 959.5 710.5 c 128,-1,15
 990 657 990 657 1034.5 603 c 128,-1,16
 1079 549 1079 549 1113.5 490.5 c 128,-1,17
 1148 432 1148 432 1145 364 c 0,18,19
 1136 166 1136 166 994.5 71 c 128,-1,20
 853 -24 853 -24 670 -22 c 0,21,22
 601 -21 601 -21 530 -9 c 128,-1,23
 459 3 459 3 397 33 c 1,24,-1
 467 266 l 1,25,26
 557 211 557 211 671 212 c 0,27,28
 741 213 741 213 797.5 249.5 c 128,-1,29
 854 286 854 286 867 358 c 0,30,31
 878 420 878 420 846.5 471.5 c 128,-1,32
 815 523 815 523 768.5 573.5 c 128,-1,33
 722 624 722 624 687 680.5 c 128,-1,34
 652 737 652 737 656 808 c 0,35,36
 661 881 661 881 695.5 940 c 128,-1,37
 730 999 730 999 766 1056.5 c 128,-1,38
 802 1114 802 1114 811 1185 c 0,39,40
 819 1246 819 1246 789 1287 c 128,-1,41
 759 1328 759 1328 696 1331 c 0,42,43
 594 1335 594 1335 550 1259 c 128,-1,44
 506 1183 506 1183 494 1098 c 2,0,-1
EndSplineSet
Substitution2: "'smcp' Lowercase to Small Capitals lookup 1 subtable" Germandbls.smcp
EndChar

StartChar: ae
Encoding: 230 230 135
Width: 1678
GlyphClass: 2
Flags: W
AnchorPoint: "Anchor-5" 1797 1291 basechar 0
AnchorPoint: "Anchor-2" 1850 1600 basechar 0
AnchorPoint: "Anchor-0" 955 1291 basechar 0
LayerCount: 2
Fore
SplineSet
1518 98 m 1,0,1
 1442 31 1442 31 1331 5 c 128,-1,2
 1220 -21 1220 -21 1122 -20 c 256,3,4
 1024 -19 1024 -19 927.5 14 c 128,-1,5
 831 47 831 47 769 127 c 1,6,7
 600 -24 600 -24 365 -20 c 0,8,9
 214 -17 214 -17 110.5 66 c 128,-1,10
 7 149 7 149 14 311 c 0,11,12
 20 448 20 448 102.5 521.5 c 128,-1,13
 185 595 185 595 303.5 623 c 128,-1,14
 422 651 422 651 535 651 c 2,15,-1
 702 649 l 1,16,-1
 715 708 l 2,17,18
 726 773 726 773 700.5 820.5 c 128,-1,19
 675 868 675 868 604 870 c 0,20,21
 540 872 540 872 483.5 842 c 128,-1,22
 427 812 427 812 413 745 c 1,23,-1
 131 763 l 1,24,25
 137 887 137 887 214 962.5 c 128,-1,26
 291 1038 291 1038 401.5 1071.5 c 128,-1,27
 512 1105 512 1105 619 1103 c 0,28,29
 700 1102 700 1102 782 1079 c 128,-1,30
 864 1056 864 1056 921 993 c 1,31,32
 1071 1105 1071 1105 1251 1101 c 0,33,34
 1460 1096 1460 1096 1554 951 c 128,-1,35
 1648 806 1648 806 1626 612 c 1,36,-1
 1601 450 l 1,37,-1
 960 451 l 1,38,39
 949 346 949 346 999 282 c 128,-1,40
 1049 218 1049 218 1158 215 c 0,41,42
 1239 213 1239 213 1312 235 c 128,-1,43
 1385 257 1385 257 1457 291 c 1,44,-1
 1518 98 l 1,0,1
1235 870 m 0,45,46
 1129 874 1129 874 1070.5 802.5 c 128,-1,47
 1012 731 1012 731 980 644 c 1,48,-1
 1348 644 l 1,49,-1
 1355 674 l 2,50,51
 1368 747 1368 747 1343.5 807 c 128,-1,52
 1319 867 1319 867 1235 870 c 0,45,46
425 191 m 0,53,54
 484 190 484 190 538.5 215 c 128,-1,55
 593 240 593 240 641 271 c 1,56,-1
 679 461 l 1,57,-1
 540 462 l 2,58,59
 466 460 466 460 389.5 425.5 c 128,-1,60
 313 391 313 391 298 307 c 0,61,62
 287 244 287 244 328 218 c 128,-1,63
 369 192 369 192 425 191 c 0,53,54
EndSplineSet
Substitution2: "'unic' Unicase lookup 2 subtable" AE
Substitution2: "'smcp' Lowercase to Small Capitals lookup 1 subtable" AE.smcp
EndChar

StartChar: eth
Encoding: 240 240 136
Width: 1144
Flags: W
LayerCount: 2
Fore
SplineSet
1072 577 m 2,0,1
 1051 425 1051 425 976 286.5 c 128,-1,2
 901 148 901 148 776.5 61.5 c 128,-1,3
 652 -25 652 -25 484 -21 c 0,4,5
 281 -16 281 -16 162.5 122 c 128,-1,6
 44 260 44 260 60 460 c 0,7,8
 78 669 78 669 209 820.5 c 128,-1,9
 340 972 340 972 562 967 c 0,10,11
 688 965 688 965 798 890 c 1,12,13
 794 1029 794 1029 707 1154 c 1,14,-1
 497 1032 l 1,15,-1
 434 1160 l 1,16,-1
 595 1250 l 1,17,18
 545 1291 545 1291 484 1315 c 128,-1,19
 423 1339 423 1339 361 1356 c 1,20,-1
 469 1580 l 1,21,22
 569 1556 569 1556 664 1512 c 128,-1,23
 759 1468 759 1468 839 1400 c 1,24,-1
 1030 1512 l 1,25,-1
 1091 1382 l 1,26,-1
 945 1303 l 1,27,28
 1033 1148 1033 1148 1068 988.5 c 128,-1,29
 1103 829 1103 829 1081 650 c 2,30,-1
 1072 577 l 2,0,1
343 460 m 0,31,32
 332 373 332 373 367 294 c 128,-1,33
 402 215 402 215 502 211 c 0,34,35
 592 208 592 208 649.5 262 c 128,-1,36
 707 316 707 316 739 395.5 c 128,-1,37
 771 475 771 475 783 548 c 2,38,-1
 800 652 l 2,39,40
 801 659 801 659 804 669 c 1,41,42
 774 715 774 715 721.5 731.5 c 128,-1,43
 669 748 669 748 618 749 c 0,44,45
 492 751 492 751 424 662.5 c 128,-1,46
 356 574 356 574 343 460 c 0,31,32
EndSplineSet
Substitution2: "'unic' Unicase lookup 2 subtable" Eth
Substitution2: "'smcp' Lowercase to Small Capitals lookup 1 subtable" Eth.smcp
EndChar

StartChar: divide
Encoding: 247 247 137
Width: 1133
Flags: W
LayerCount: 2
Fore
SplineSet
487 1085 m 0,0,1
 486 1154 486 1154 531.5 1197.5 c 128,-1,2
 577 1241 577 1241 644 1242 c 0,3,4
 710 1244 710 1244 757 1203 c 128,-1,5
 804 1162 804 1162 806 1095 c 0,6,7
 807 1027 807 1027 761.5 983 c 128,-1,8
 716 939 716 939 649 938 c 0,9,10
 583 937 583 937 536 977 c 128,-1,11
 489 1017 489 1017 487 1085 c 0,0,1
1096 802 m 1,12,-1
 1055 571 l 1,13,-1
 56 571 l 1,14,-1
 97 802 l 1,15,-1
 1096 802 l 1,12,-1
347 273 m 0,16,17
 345 342 345 342 390.5 385.5 c 128,-1,18
 436 429 436 429 504 430 c 0,19,20
 569 432 569 432 616 391 c 128,-1,21
 663 350 663 350 665 283 c 0,22,23
 666 215 666 215 621 171 c 128,-1,24
 576 127 576 127 508 126 c 0,25,26
 443 125 443 125 395.5 165 c 128,-1,27
 348 205 348 205 347 273 c 0,16,17
EndSplineSet
EndChar

StartChar: oslash
Encoding: 248 248 138
Width: 1121
GlyphClass: 2
Flags: W
AnchorPoint: "Anchor-5" 1239 1285 basechar 0
AnchorPoint: "Anchor-2" 1294 1600 basechar 0
AnchorPoint: "Anchor-0" 641 1285 basechar 0
LayerCount: 2
Fore
SplineSet
476 -22 m 0,0,1
 389 -21 389 -21 302 8 c 1,2,-1
 201 -142 l 1,3,-1
 27 -141 l 1,4,-1
 178 75 l 1,5,6
 93 168 93 168 66.5 286.5 c 128,-1,7
 40 405 40 405 52 528 c 1,8,-1
 55 550 l 2,9,10
 83 780 83 780 233.5 943.5 c 128,-1,11
 384 1107 384 1107 628 1103 c 0,12,13
 719 1102 719 1102 809 1072 c 1,14,-1
 906 1216 l 1,15,-1
 1081 1215 l 1,16,-1
 931 1002 l 1,17,18
 1013 908 1013 908 1038 791 c 128,-1,19
 1063 674 1063 674 1050 554 c 2,20,-1
 1048 532 l 1,21,22
 1020 302 1020 302 870 138.5 c 128,-1,23
 720 -25 720 -25 476 -22 c 0,0,1
333 529 m 2,24,25
 325 477 325 477 321.5 425 c 128,-1,26
 318 373 318 373 327 321 c 1,27,-1
 682 862 l 1,28,29
 651 873 651 873 616 874 c 0,30,31
 481 876 481 876 418 769 c 128,-1,32
 355 662 355 662 336 549 c 2,33,-1
 333 529 l 2,24,25
770 552 m 2,34,35
 778 602 778 602 781.5 651.5 c 128,-1,36
 785 701 785 701 778 750 c 1,37,-1
 426 218 l 1,38,39
 458 210 458 210 484 209 c 0,40,41
 620 206 620 206 683.5 312 c 128,-1,42
 747 418 747 418 767 532 c 2,43,-1
 770 552 l 2,34,35
EndSplineSet
Substitution2: "'unic' Unicase lookup 2 subtable" Oslash
Substitution2: "'smcp' Lowercase to Small Capitals lookup 1 subtable" Oslash.smcp
EndChar

StartChar: thorn
Encoding: 254 254 139
Width: 1127
Flags: W
LayerCount: 2
Fore
SplineSet
563 -21 m 0,0,1
 407 -17 407 -17 314 96 c 1,2,-1
 215 -416 l 1,3,-1
 -68 -416 l 1,4,-1
 270 1536 l 1,5,-1
 554 1536 l 1,6,-1
 446 987 l 1,7,8
 558 1104 558 1104 709 1101 c 0,9,10
 858 1099 858 1099 935 1013.5 c 128,-1,11
 1012 928 1012 928 1035.5 802.5 c 128,-1,12
 1059 677 1059 677 1047 555 c 1,13,-1
 1044 533 l 2,14,15
 1028 402 1028 402 972.5 273 c 128,-1,16
 917 144 917 144 816 60 c 128,-1,17
 715 -24 715 -24 563 -21 c 0,0,1
625 869 m 0,18,19
 559 871 559 871 509.5 843 c 128,-1,20
 460 815 460 815 421 764 c 1,21,-1
 341 318 l 1,22,23
 380 215 380 215 501 212 c 0,24,25
 588 210 588 210 642 261 c 128,-1,26
 696 312 696 312 724 387.5 c 128,-1,27
 752 463 752 463 761 534 c 2,28,-1
 764 555 l 2,29,30
 770 613 770 613 768 685 c 128,-1,31
 766 757 766 757 735 811.5 c 128,-1,32
 704 866 704 866 625 869 c 0,18,19
EndSplineSet
Substitution2: "'unic' Unicase lookup 2 subtable" Thorn
Substitution2: "'smcp' Lowercase to Small Capitals lookup 1 subtable" Thorn.smcp
EndChar

StartChar: dcroat
Encoding: 273 273 140
Width: 1252
GlyphClass: 2
Flags: W
AnchorPoint: "Anchor-8" 948 1312 basechar 0
AnchorPoint: "Anchor-5" 1425 1603 basechar 0
AnchorPoint: "Anchor-3" 946 -407 basechar 0
AnchorPoint: "Anchor-2" 1293 1600 basechar 0
AnchorPoint: "Anchor-1" 468 0 basechar 0
AnchorPoint: "Anchor-0" 656 1603 basechar 0
LayerCount: 2
Fore
SplineSet
655 0 m 1,0,-1
 671 116 l 1,1,2
 615 52 615 52 545.5 15 c 128,-1,3
 476 -22 476 -22 389 -20 c 0,4,5
 245 -17 245 -17 167.5 69.5 c 128,-1,6
 90 156 90 156 64.5 281 c 128,-1,7
 39 406 39 406 52 525 c 2,8,-1
 54 547 l 2,9,10
 70 681 70 681 126 810 c 128,-1,11
 182 939 182 939 284 1022.5 c 128,-1,12
 386 1106 386 1106 540 1102 c 0,13,14
 692 1098 692 1098 784 983 c 1,15,-1
 835 1219 l 1,16,-1
 591 1219 l 1,17,-1
 623 1401 l 1,18,-1
 866 1401 l 1,19,-1
 890 1536 l 1,20,-1
 1174 1536 l 1,21,-1
 1150 1401 l 1,22,-1
 1303 1401 l 1,23,-1
 1271 1219 l 1,24,-1
 1118 1219 l 1,25,-1
 907 0 l 1,26,-1
 655 0 l 1,0,-1
336 526 m 2,27,28
 329 469 329 469 331 397 c 128,-1,29
 333 325 333 325 363.5 271.5 c 128,-1,30
 394 218 394 218 474 215 c 0,31,32
 540 212 540 212 590 243.5 c 128,-1,33
 640 275 640 275 679 325 c 1,34,-1
 756 759 l 1,35,36
 717 866 717 866 600 870 c 0,37,38
 513 873 513 873 458.5 822 c 128,-1,39
 404 771 404 771 375.5 695 c 128,-1,40
 347 619 347 619 338 547 c 2,41,-1
 336 526 l 2,27,28
EndSplineSet
Substitution2: "'unic' Unicase lookup 2 subtable" Dcroat
Substitution2: "'smcp' Lowercase to Small Capitals lookup 1 subtable" Dcroat.smcp
EndChar

StartChar: Hbar
Encoding: 294 294 141
Width: 1430
GlyphClass: 2
Flags: W
AnchorPoint: "Anchor-5" 1603 1603 basechar 0
AnchorPoint: "Anchor-1" 618 10 basechar 0
AnchorPoint: "Anchor-0" 894 1603 basechar 0
LayerCount: 2
Fore
SplineSet
894 0 m 1,0,-1
 1003 624 l 1,1,-1
 437 624 l 1,2,-1
 329 0 l 1,3,-1
 36 0 l 1,4,-1
 218 1050 l 1,5,-1
 107 1050 l 1,6,-1
 137 1224 l 1,7,-1
 248 1224 l 1,8,-1
 288 1456 l 1,9,-1
 582 1456 l 1,10,-1
 541 1224 l 1,11,-1
 1106 1224 l 1,12,-1
 1147 1456 l 1,13,-1
 1440 1456 l 1,14,-1
 1399 1224 l 1,15,-1
 1518 1224 l 1,16,-1
 1488 1050 l 1,17,-1
 1369 1050 l 1,18,-1
 1187 0 l 1,19,-1
 894 0 l 1,0,-1
479 866 m 1,20,-1
 1044 866 l 1,21,-1
 1077 1050 l 1,22,-1
 511 1050 l 1,23,-1
 479 866 l 1,20,-1
EndSplineSet
Substitution2: "'c2sc' Capitals to Small Capitals lookup 0 subtable" Hbar.smcp
Position2: "'cpsp' Capital Spacing lookup 0 subtable" dx=36 dy=0 dh=72 dv=0
EndChar

StartChar: dotlessi
Encoding: 305 305 142
Width: 544
GlyphClass: 2
Flags: W
AnchorPoint: "Anchor-5" 660 1275 basechar 0
AnchorPoint: "Anchor-4" 333 654 basechar 0
AnchorPoint: "Anchor-1" 160 10 basechar 0
AnchorPoint: "Anchor-0" 388 1275 basechar 0
LayerCount: 2
Fore
SplineSet
496 1082 m 1,0,-1
 308 0 l 1,1,-1
 25 0 l 1,2,-1
 213 1082 l 1,3,-1
 496 1082 l 1,0,-1
EndSplineSet
Substitution2: "'smcp' Lowercase to Small Capitals lookup 1 subtable" I.smcp
EndChar

StartChar: kgreenlandic
Encoding: 312 312 143
Width: 1173
GlyphClass: 2
Flags: W
AnchorPoint: "Anchor-5" 1291 1290 basechar 0
AnchorPoint: "Anchor-1" 478 10 basechar 0
AnchorPoint: "Anchor-0" 699 1290 basechar 0
LayerCount: 2
Fore
SplineSet
681 0 m 1,0,-1
 496 399 l 1,1,-1
 373 399 l 1,2,-1
 304 0 l 1,3,-1
 21 0 l 1,4,-1
 209 1082 l 1,5,-1
 492 1082 l 1,6,-1
 420 675 l 1,7,-1
 493 675 l 1,8,-1
 837 1082 l 1,9,-1
 1214 1082 l 1,10,-1
 742 546 l 1,11,-1
 1026 0 l 1,12,-1
 681 0 l 1,0,-1
EndSplineSet
EndChar

StartChar: Lslash
Encoding: 321 321 144
Width: 1108
GlyphClass: 2
Flags: W
AnchorPoint: "Anchor-5" 1280 1600 basechar 0
AnchorPoint: "Anchor-1" 481 10 basechar 0
AnchorPoint: "Anchor-0" 472 1600 basechar 0
LayerCount: 2
Fore
SplineSet
1006 242 m 1,0,-1
 963 0 l 1,1,-1
 52 0 l 1,2,-1
 163 638 l 1,3,-1
 27 600 l 1,4,-1
 58 775 l 1,5,-1
 193 813 l 1,6,-1
 305 1456 l 1,7,-1
 599 1456 l 1,8,-1
 502 901 l 1,9,-1
 722 962 l 1,10,-1
 691 787 l 1,11,-1
 472 725 l 1,12,-1
 388 242 l 1,13,-1
 1006 242 l 1,0,-1
EndSplineSet
Substitution2: "'c2sc' Capitals to Small Capitals lookup 0 subtable" Lslash.smcp
Position2: "'cpsp' Capital Spacing lookup 0 subtable" dx=36 dy=0 dh=72 dv=0
EndChar

StartChar: lslash
Encoding: 322 322 145
Width: 607
GlyphClass: 2
Flags: W
AnchorPoint: "Anchor-5" 794 1683 basechar 0
AnchorPoint: "Anchor-1" 200 10 basechar 0
AnchorPoint: "Anchor-0" 489 1683 basechar 0
LayerCount: 2
Fore
SplineSet
608 785 m 1,0,-1
 463 739 l 1,1,-1
 335 0 l 1,2,-1
 51 0 l 1,3,-1
 163 641 l 1,4,-1
 27 598 l 1,5,-1
 58 776 l 1,6,-1
 193 819 l 1,7,-1
 318 1536 l 1,8,-1
 601 1536 l 1,9,-1
 493 917 l 1,10,-1
 639 963 l 1,11,-1
 608 785 l 1,0,-1
EndSplineSet
Substitution2: "'smcp' Lowercase to Small Capitals lookup 1 subtable" Lslash.smcp
EndChar

StartChar: Eng
Encoding: 330 330 146
Width: 1397
GlyphClass: 2
Flags: W
AnchorPoint: "Anchor-5" 1569 1600 basechar 0
AnchorPoint: "Anchor-1" 599 3 basechar 0
AnchorPoint: "Anchor-0" 877 1600 basechar 0
LayerCount: 2
Fore
SplineSet
20 0 m 1,0,-1
 273 1456 l 1,1,-1
 556 1456 l 1,2,-1
 957 466 l 1,3,-1
 1129 1456 l 1,4,-1
 1423 1456 l 1,5,-1
 1170 -28 l 1,6,7
 1147 -209 1147 -209 1039 -325 c 128,-1,8
 931 -441 931 -441 739 -440 c 0,9,10
 700 -439 700 -439 661.5 -434 c 128,-1,11
 623 -429 623 -429 584 -421 c 1,12,-1
 622 -183 l 1,13,14
 674 -198 674 -198 719 -197 c 0,15,16
 794 -197 794 -197 829 -143.5 c 128,-1,17
 864 -90 864 -90 878 -26 c 2,18,-1
 884 0 l 1,19,-1
 487 991 l 1,20,-1
 314 0 l 1,21,-1
 20 0 l 1,0,-1
EndSplineSet
Substitution2: "'c2sc' Capitals to Small Capitals lookup 0 subtable" Eng.smcp
Position2: "'cpsp' Capital Spacing lookup 0 subtable" dx=36 dy=0 dh=72 dv=0
EndChar

StartChar: eng
Encoding: 331 331 147
Width: 1121
GlyphClass: 2
Flags: W
AnchorPoint: "Anchor-7" 605 -308 basechar 0
AnchorPoint: "Anchor-5" 1240 1290 basechar 0
AnchorPoint: "Anchor-1" 453 10 basechar 0
AnchorPoint: "Anchor-0" 677 1290 basechar 0
LayerCount: 2
Fore
SplineSet
910 -35 m 1,0,1
 887 -214 887 -214 782 -328 c 128,-1,2
 677 -442 677 -442 487 -440 c 0,3,4
 449 -439 449 -439 411.5 -434 c 128,-1,5
 374 -429 374 -429 336 -421 c 1,6,-1
 373 -189 l 1,7,8
 426 -205 426 -205 470 -205 c 0,9,10
 544 -205 544 -205 579 -152 c 128,-1,11
 614 -99 614 -99 625 -35 c 2,12,-1
 739 661 l 2,13,14
 748 734 748 734 732.5 799 c 128,-1,15
 717 864 717 864 628 867 c 0,16,17
 567 869 567 869 516 845.5 c 128,-1,18
 465 822 465 822 421 783 c 1,19,-1
 282 0 l 1,20,-1
 0 0 l 1,21,-1
 188 1082 l 1,22,-1
 448 1083 l 1,23,-1
 424 928 l 1,24,25
 482 1006 482 1006 560.5 1055 c 128,-1,26
 639 1104 639 1104 740 1102 c 0,27,28
 865 1100 865 1100 929.5 1033.5 c 128,-1,29
 994 967 994 967 1013.5 866.5 c 128,-1,30
 1033 766 1033 766 1022 660 c 1,31,-1
 910 -35 l 1,0,1
EndSplineSet
Substitution2: "'unic' Unicase lookup 2 subtable" Eng
Substitution2: "'smcp' Lowercase to Small Capitals lookup 1 subtable" Eng.smcp
EndChar

StartChar: OE
Encoding: 338 338 148
Width: 1924
GlyphClass: 2
Flags: W
AnchorPoint: "Anchor-5" 2096 1600 basechar 0
AnchorPoint: "Anchor-3" 1749 -407 basechar 0
AnchorPoint: "Anchor-2" 2096 1600 basechar 0
AnchorPoint: "Anchor-1" 853 0 basechar 0
AnchorPoint: "Anchor-0" 1130 1600 basechar 0
LayerCount: 2
Fore
SplineSet
1759 242 m 1,0,-1
 1717 0 l 1,1,-1
 874 0 l 1,2,3
 803 -4 803 -4 732.5 -11.5 c 128,-1,4
 662 -19 662 -19 591 -18 c 0,5,6
 340 -13 340 -13 200 158 c 128,-1,7
 60 329 60 329 91 576 c 1,8,-1
 138 880 l 2,9,10
 176 1141 176 1141 358 1309.5 c 128,-1,11
 540 1478 540 1478 809 1477 c 0,12,13
 880 1477 880 1477 949.5 1469 c 128,-1,14
 1019 1461 1019 1461 1090 1456 c 1,15,-1
 1968 1456 l 1,16,-1
 1925 1213 l 1,17,-1
 1272 1213 l 1,18,-1
 1211 866 l 1,19,-1
 1769 866 l 1,20,-1
 1728 631 l 1,21,-1
 1171 631 l 1,22,-1
 1103 242 l 1,23,-1
 1759 242 l 1,0,-1
373 575 m 2,24,25
 355 442 355 442 400.5 331.5 c 128,-1,26
 446 221 446 221 600 215 c 0,27,28
 650 213 650 213 699.5 216.5 c 128,-1,29
 749 220 749 220 799 224 c 1,30,-1
 986 1232 l 1,31,32
 941 1238 941 1238 895 1242 c 128,-1,33
 849 1246 849 1246 803 1247 c 0,34,35
 638 1248 638 1248 542 1142.5 c 128,-1,36
 446 1037 446 1037 422 882 c 2,37,-1
 373 575 l 2,24,25
EndSplineSet
Substitution2: "'c2sc' Capitals to Small Capitals lookup 0 subtable" OE.smcp
Position2: "'cpsp' Capital Spacing lookup 0 subtable" dx=36 dy=0 dh=72 dv=0
EndChar

StartChar: oe
Encoding: 339 339 149
Width: 1793
GlyphClass: 2
Flags: W
AnchorPoint: "Anchor-5" 1911 1290 basechar 0
AnchorPoint: "Anchor-3" 1618 -407 basechar 0
AnchorPoint: "Anchor-2" 1965 1600 basechar 0
AnchorPoint: "Anchor-1" 795 -7 basechar 0
AnchorPoint: "Anchor-0" 1019 1290 basechar 0
LayerCount: 2
Fore
SplineSet
1615 101 m 1,0,1
 1536 32 1536 32 1424 5.5 c 128,-1,2
 1312 -21 1312 -21 1210 -19 c 0,3,4
 1114 -18 1114 -18 1022.5 16.5 c 128,-1,5
 931 51 931 51 871 128 c 1,6,7
 703 -24 703 -24 489 -20 c 0,8,9
 256 -16 256 -16 151.5 148.5 c 128,-1,10
 47 313 47 313 68 528 c 2,11,-1
 70 549 l 1,12,13
 98 778 98 778 247 942.5 c 128,-1,14
 396 1107 396 1107 639 1103 c 0,15,16
 735 1101 735 1101 826 1067 c 128,-1,17
 917 1033 917 1033 977 955 c 1,18,19
 1053 1025 1053 1025 1142 1064.5 c 128,-1,20
 1231 1104 1231 1104 1336 1102 c 0,21,22
 1547 1097 1547 1097 1644 954.5 c 128,-1,23
 1741 812 1741 812 1718 613 c 1,24,-1
 1693 450 l 1,25,-1
 1064 450 l 1,26,27
 1058 356 1058 356 1101 287.5 c 128,-1,28
 1144 219 1144 219 1247 216 c 0,29,30
 1329 213 1329 213 1403 234.5 c 128,-1,31
 1477 256 1477 256 1550 291 c 1,32,-1
 1615 101 l 1,0,1
1319 871 m 0,33,34
 1222 874 1222 874 1168.5 799 c 128,-1,35
 1115 724 1115 724 1085 646 c 1,36,-1
 1441 646 l 1,37,-1
 1447 676 l 2,38,39
 1460 751 1460 751 1433 810 c 128,-1,40
 1406 869 1406 869 1319 871 c 0,33,34
352 544 m 2,41,-1
 350 523 l 2,42,43
 343 460 343 460 348 388.5 c 128,-1,44
 353 317 353 317 387.5 265.5 c 128,-1,45
 422 214 422 214 505 211 c 0,46,47
 638 207 638 207 699.5 314 c 128,-1,48
 761 421 761 421 776 532 c 1,49,-1
 778 553 l 2,50,51
 785 616 785 616 780 688.5 c 128,-1,52
 775 761 775 761 740.5 814 c 128,-1,53
 706 867 706 867 622 870 c 0,54,55
 533 873 533 873 477 822 c 128,-1,56
 421 771 421 771 391.5 694.5 c 128,-1,57
 362 618 362 618 352 544 c 2,41,-1
EndSplineSet
Substitution2: "'unic' Unicase lookup 2 subtable" OE
Substitution2: "'smcp' Lowercase to Small Capitals lookup 1 subtable" OE.smcp
EndChar

StartChar: longs
Encoding: 383 383 150
Width: 516
GlyphClass: 2
Flags: W
AnchorPoint: "Anchor-5" 704 1688 basechar 0
AnchorPoint: "Anchor-1" 160 10 basechar 0
AnchorPoint: "Anchor-0" 563 1688 basechar 0
LayerCount: 2
Fore
SplineSet
290 0 m 1,0,-1
 8 0 l 1,1,-1
 207 1176 l 1,2,3
 231 1357 231 1357 345.5 1459.5 c 128,-1,4
 460 1562 460 1562 645 1559 c 0,5,6
 687 1559 687 1559 728.5 1552 c 128,-1,7
 770 1545 770 1545 811 1536 c 1,8,-1
 765 1315 l 1,9,10
 712 1327 712 1327 673 1327 c 0,11,12
 522 1328 522 1328 493 1176 c 2,13,-1
 290 0 l 1,0,-1
EndSplineSet
EndChar

StartChar: Bhook
Encoding: 385 385 152
Width: 1561
Flags: W
LayerCount: 2
Fore
SplineSet
117 1084 m 0,0,1
 132 1271 132 1271 254.5 1364.5 c 128,-1,2
 377 1458 377 1458 557 1456 c 1,3,-1
 557 1457 l 1,4,-1
 1047 1455 l 2,5,6
 1172 1453 1172 1453 1283.5 1416 c 128,-1,7
 1395 1379 1395 1379 1462 1294.5 c 128,-1,8
 1529 1210 1529 1210 1520 1066 c 0,9,10
 1511 945 1511 945 1441 867 c 128,-1,11
 1371 789 1371 789 1264 743 c 1,12,13
 1361 708 1361 708 1403.5 621.5 c 128,-1,14
 1446 535 1446 535 1440 436 c 0,15,16
 1425 202 1425 202 1257.5 100 c 128,-1,17
 1090 -2 1090 -2 876 0 c 2,18,-1
 317 0 l 1,19,-1
 536 1217 l 1,20,21
 455 1209 455 1209 408 1158 c 128,-1,22
 361 1107 361 1107 351 1027 c 0,23,24
 349 1006 349 1006 349.5 984.5 c 128,-1,25
 350 963 350 963 352 941 c 1,26,-1
 123 942 l 1,27,28
 112 1019 112 1019 117 1084 c 0,0,1
821 1213 m 1,29,-1
 757 847 l 1,30,-1
 944 846 l 2,31,32
 1040 846 1040 846 1122 887 c 128,-1,33
 1204 928 1204 928 1221 1034 c 0,34,35
 1237 1133 1237 1133 1184 1171.5 c 128,-1,36
 1131 1210 1131 1210 1041 1212 c 2,37,-1
 821 1213 l 1,29,-1
1150 440 m 0,38,39
 1180 626 1180 626 997 634 c 1,40,-1
 721 635 l 1,41,-1
 652 242 l 1,42,-1
 883 241 l 2,43,44
 979 242 979 242 1056.5 289.5 c 128,-1,45
 1134 337 1134 337 1150 440 c 0,38,39
EndSplineSet
EndChar

StartChar: btopbar
Encoding: 387 387 154
Width: 1118
Flags: W
LayerCount: 2
Fore
SplineSet
2 0 m 1,0,-1
 268 1536 l 1,1,-1
 1022 1536 l 1,2,-1
 990 1353 l 1,3,-1
 520 1353 l 1,4,-1
 444 984 l 1,5,6
 556 1104 556 1104 708 1101 c 0,7,8
 857 1099 857 1099 934 1013.5 c 128,-1,9
 1011 928 1011 928 1034 802 c 128,-1,10
 1057 676 1057 676 1045 554 c 1,11,-1
 1042 532 l 2,12,13
 1026 398 1026 398 972 269.5 c 128,-1,14
 918 141 918 141 817.5 58.5 c 128,-1,15
 717 -24 717 -24 561 -20 c 0,16,17
 391 -16 391 -16 301 117 c 1,18,-1
 260 0 l 1,19,-1
 2 0 l 1,0,-1
625 869 m 0,20,21
 557 871 557 871 506.5 840 c 128,-1,22
 456 809 456 809 418 756 c 1,23,-1
 341 325 l 1,24,25
 378 217 378 217 502 214 c 0,26,27
 593 211 593 211 646 260 c 128,-1,28
 699 309 699 309 724.5 384 c 128,-1,29
 750 459 750 459 760 533 c 2,30,-1
 762 554 l 2,31,32
 768 613 768 613 767.5 685.5 c 128,-1,33
 767 758 767 758 737 812 c 128,-1,34
 707 866 707 866 625 869 c 0,20,21
EndSplineSet
EndChar

StartChar: Tonesix
Encoding: 388 388 155
Width: 1364
Flags: W
LayerCount: 2
Fore
SplineSet
1283 479 m 0,0,1
 1271 320 1271 320 1184 213 c 128,-1,2
 1097 106 1097 106 964.5 52.5 c 128,-1,3
 832 -1 832 -1 684 0 c 2,4,-1
 140 0 l 1,5,-1
 310 980 l 1,6,-1
 161 1155 l 1,7,-1
 185 1292 l 1,8,-1
 379 1456 l 1,9,-1
 687 1456 l 1,10,-1
 596 932 l 1,11,-1
 809 931 l 2,12,13
 1012 927 1012 927 1156 813 c 128,-1,14
 1300 699 1300 699 1283 479 c 0,0,1
476 242 m 1,15,-1
 691 240 l 2,16,17
 803 241 803 241 888 304 c 128,-1,18
 973 367 973 367 990 482 c 0,19,20
 1005 580 1005 580 951 632.5 c 128,-1,21
 897 685 897 685 803 689 c 2,22,-1
 554 690 l 1,23,-1
 476 242 l 1,15,-1
EndSplineSet
EndChar

StartChar: tonesix
Encoding: 389 389 156
Width: 1244
Flags: W
LayerCount: 2
Fore
SplineSet
1167 532 m 2,0,1
 1151 398 1151 398 1097 269.5 c 128,-1,2
 1043 141 1043 141 942.5 58.5 c 128,-1,3
 842 -24 842 -24 686 -20 c 0,4,5
 515 -16 515 -16 426 117 c 1,6,-1
 385 0 l 1,7,-1
 127 0 l 1,8,-1
 311 1060 l 1,9,-1
 162 1235 l 1,10,-1
 186 1372 l 1,11,-1
 381 1536 l 1,12,-1
 676 1536 l 1,13,-1
 568 983 l 1,14,15
 680 1104 680 1104 833 1101 c 0,16,17
 982 1099 982 1099 1059 1013.5 c 128,-1,18
 1136 928 1136 928 1159 802.5 c 128,-1,19
 1182 677 1182 677 1170 554 c 1,20,-1
 1167 532 l 2,0,1
750 869 m 0,21,22
 681 871 681 871 630.5 839.5 c 128,-1,23
 580 808 580 808 541 754 c 1,24,-1
 465 327 l 1,25,26
 502 217 502 217 627 214 c 0,27,28
 718 211 718 211 771 260 c 128,-1,29
 824 309 824 309 850 384 c 128,-1,30
 876 459 876 459 885 533 c 2,31,-1
 887 554 l 2,32,33
 894 613 894 613 893 685.5 c 128,-1,34
 892 758 892 758 862 812 c 128,-1,35
 832 866 832 866 750 869 c 0,21,22
EndSplineSet
EndChar

StartChar: Oopen
Encoding: 390 390 157
Width: 1301
Flags: W
LayerCount: 2
Fore
SplineSet
38 496 m 1,0,-1
 329 495 l 1,1,2
 330 374 330 374 378 301.5 c 128,-1,3
 426 229 426 229 556 224 c 0,4,5
 685 220 685 220 762.5 289.5 c 128,-1,6
 840 359 840 359 880 465.5 c 128,-1,7
 920 572 920 572 935 679 c 2,8,-1
 948 777 l 2,9,10
 959 865 959 865 959 969.5 c 128,-1,11
 959 1074 959 1074 915 1150.5 c 128,-1,12
 871 1227 871 1227 750 1231 c 0,13,14
 617 1236 617 1236 536 1167.5 c 128,-1,15
 455 1099 455 1099 428 972 c 1,16,-1
 136 970 l 1,17,18
 165 1211 165 1211 346.5 1346 c 128,-1,19
 528 1481 528 1481 763 1476 c 0,20,21
 960 1473 960 1473 1073 1370 c 128,-1,22
 1186 1267 1186 1267 1226 1108 c 128,-1,23
 1266 949 1266 949 1245 776 c 2,24,-1
 1232 681 l 2,25,26
 1206 498 1206 498 1120 336 c 128,-1,27
 1034 174 1034 174 889 74.5 c 128,-1,28
 744 -25 744 -25 542 -21 c 0,29,30
 303 -17 303 -17 176.5 124.5 c 128,-1,31
 50 266 50 266 38 496 c 1,0,-1
EndSplineSet
EndChar

StartChar: Chook
Encoding: 391 391 158
Width: 1435
Flags: W
LayerCount: 2
Fore
SplineSet
1563 1330 m 0,0,1
 1479 1332 1479 1332 1416 1297 c 128,-1,2
 1353 1262 1353 1262 1336 1174 c 2,3,-1
 1300 962 l 1,4,-1
 1015 961 l 1,5,6
 1014 1082 1014 1082 966.5 1155 c 128,-1,7
 919 1228 919 1228 788 1232 c 0,8,9
 660 1237 660 1237 582 1167 c 128,-1,10
 504 1097 504 1097 464.5 990.5 c 128,-1,11
 425 884 425 884 410 777 c 2,12,-1
 397 679 l 2,13,14
 386 591 386 591 386 486.5 c 128,-1,15
 386 382 386 382 430 305.5 c 128,-1,16
 474 229 474 229 595 225 c 0,17,18
 728 220 728 220 809 288.5 c 128,-1,19
 890 357 890 357 916 484 c 1,20,-1
 1209 486 l 1,21,22
 1180 244 1180 244 998 109.5 c 128,-1,23
 816 -25 816 -25 581 -20 c 0,24,25
 384 -17 384 -17 271 86 c 128,-1,26
 158 189 158 189 117.5 348 c 128,-1,27
 77 507 77 507 99 680 c 2,28,-1
 111 775 l 2,29,30
 137 959 137 959 223.5 1120 c 128,-1,31
 310 1281 310 1281 455.5 1380.5 c 128,-1,32
 601 1480 601 1480 803 1478 c 0,33,34
 895 1477 895 1477 986.5 1452.5 c 128,-1,35
 1078 1428 1078 1428 1150 1368 c 1,36,37
 1278 1579 1278 1579 1518 1578 c 0,38,39
 1556 1578 1556 1578 1593.5 1573 c 128,-1,40
 1631 1568 1631 1568 1668 1560 c 1,41,-1
 1643 1318 l 1,42,43
 1598 1328 1598 1328 1563 1330 c 0,0,1
EndSplineSet
EndChar

StartChar: chook
Encoding: 392 392 159
Width: 1172
Flags: W
LayerCount: 2
Fore
SplineSet
1225 1002 m 0,0,1
 1152 1005 1152 1005 1098 969.5 c 128,-1,2
 1044 934 1044 934 1029 860 c 2,3,-1
 998 679 l 1,4,-1
 740 678 l 1,5,6
 740 753 740 753 707.5 810 c 128,-1,7
 675 867 675 867 591 870 c 0,8,9
 502 873 502 873 449.5 824 c 128,-1,10
 397 775 397 775 371.5 700 c 128,-1,11
 346 625 346 625 337 553 c 2,12,-1
 334 525 l 2,13,14
 328 465 328 465 328 393 c 128,-1,15
 328 321 328 321 358.5 267.5 c 128,-1,16
 389 214 389 214 472 212 c 0,17,18
 550 210 550 210 603.5 254.5 c 128,-1,19
 657 299 657 299 672 373 c 1,20,-1
 939 375 l 1,21,22
 925 191 925 191 783 83 c 128,-1,23
 641 -25 641 -25 464 -21 c 0,24,25
 230 -16 230 -16 130 147.5 c 128,-1,26
 30 311 30 311 51 524 c 2,27,-1
 54 553 l 2,28,29
 81 781 81 781 225.5 944 c 128,-1,30
 370 1107 370 1107 613 1103 c 0,31,32
 683 1102 683 1102 750 1084 c 128,-1,33
 817 1066 817 1066 874 1024 c 1,34,35
 979 1205 979 1205 1180 1204 c 0,36,37
 1213 1204 1213 1204 1245.5 1199.5 c 128,-1,38
 1278 1195 1278 1195 1311 1188 c 1,39,-1
 1293 993 l 1,40,41
 1276 997 1276 997 1259 999.5 c 128,-1,42
 1242 1002 1242 1002 1225 1002 c 0,0,1
EndSplineSet
EndChar

StartChar: Dhook
Encoding: 394 394 161
Width: 1588
Flags: W
LayerCount: 2
Fore
SplineSet
117 1084 m 0,0,1
 132 1271 132 1271 255 1364.5 c 128,-1,2
 378 1458 378 1458 558 1456 c 1,3,-1
 558 1457 l 1,4,-1
 989 1455 l 2,5,6
 1184 1451 1184 1451 1312 1354 c 128,-1,7
 1440 1257 1440 1257 1496 1100 c 128,-1,8
 1552 943 1552 943 1531 760 c 1,9,-1
 1522 695 l 2,10,11
 1496 498 1496 498 1395 340.5 c 128,-1,12
 1294 183 1294 183 1133.5 91 c 128,-1,13
 973 -1 973 -1 769 0 c 2,14,-1
 318 0 l 1,15,-1
 537 1217 l 1,16,17
 455 1209 455 1209 408 1158 c 128,-1,18
 361 1107 361 1107 351 1027 c 0,19,20
 349 1006 349 1006 349.5 984.5 c 128,-1,21
 350 963 350 963 352 941 c 1,22,-1
 123 942 l 1,23,24
 112 1019 112 1019 117 1084 c 0,0,1
983 1212 m 2,25,-1
 823 1213 l 1,26,-1
 654 242 l 1,27,-1
 775 241 l 2,28,29
 979 240 979 240 1088.5 375.5 c 128,-1,30
 1198 511 1198 511 1225 698 c 2,31,-1
 1234 764 l 2,32,33
 1246 865 1246 865 1234.5 967 c 128,-1,34
 1223 1069 1223 1069 1165.5 1138.5 c 128,-1,35
 1108 1208 1108 1208 983 1212 c 2,25,-1
EndSplineSet
EndChar

StartChar: Dtopbar
Encoding: 395 395 162
Width: 1245
Flags: W
LayerCount: 2
Fore
SplineSet
1033 0 m 1,0,-1
 526 1 l 1,1,2
 318 7 318 7 177 124 c 128,-1,3
 36 241 36 241 54 464 c 0,4,5
 66 623 66 623 153 727 c 128,-1,6
 240 831 240 831 372 882 c 128,-1,7
 504 933 504 933 651 933 c 2,8,-1
 900 932 l 1,9,-1
 950 1213 l 1,10,-1
 316 1213 l 1,11,-1
 358 1456 l 1,12,-1
 1286 1456 l 1,13,-1
 1033 0 l 1,0,-1
781 242 m 1,14,-1
 859 690 l 1,15,-1
 642 692 l 2,16,17
 535 691 535 691 449.5 634.5 c 128,-1,18
 364 578 364 578 347 466 c 0,19,20
 332 368 332 368 383 307.5 c 128,-1,21
 434 247 434 247 532 243 c 2,22,-1
 781 242 l 1,14,-1
EndSplineSet
EndChar

StartChar: dtopbar
Encoding: 396 396 163
Width: 1120
Flags: W
LayerCount: 2
Fore
SplineSet
387 1353 m 1,0,-1
 420 1536 l 1,1,-1
 1173 1536 l 1,2,-1
 907 0 l 1,3,-1
 655 0 l 1,4,-1
 671 116 l 1,5,6
 615 52 615 52 545.5 15 c 128,-1,7
 476 -22 476 -22 389 -20 c 0,8,9
 245 -17 245 -17 167.5 69.5 c 128,-1,10
 90 156 90 156 64.5 281 c 128,-1,11
 39 406 39 406 52 525 c 2,12,-1
 54 547 l 2,13,14
 70 681 70 681 126 810 c 128,-1,15
 182 939 182 939 284 1022.5 c 128,-1,16
 386 1106 386 1106 540 1102 c 0,17,18
 693 1098 693 1098 784 983 c 1,19,-1
 859 1353 l 1,20,-1
 387 1353 l 1,0,-1
336 526 m 2,21,22
 329 469 329 469 331 397 c 128,-1,23
 333 325 333 325 363.5 271.5 c 128,-1,24
 394 218 394 218 474 215 c 0,25,26
 540 212 540 212 590 243.5 c 128,-1,27
 640 275 640 275 679 325 c 1,28,-1
 756 759 l 1,29,30
 717 866 717 866 600 870 c 0,31,32
 513 873 513 873 458.5 822 c 128,-1,33
 404 771 404 771 375.5 695 c 128,-1,34
 347 619 347 619 338 547 c 2,35,-1
 336 526 l 2,21,22
EndSplineSet
EndChar

StartChar: deltaturn
Encoding: 397 397 164
Width: 1121
Flags: W
LayerCount: 2
Fore
SplineSet
764 -375 m 1,0,-1
 -2 -375 l 1,1,-1
 39 -143 l 1,2,-1
 438 -142 l 1,3,4
 410 -104 410 -104 374 -71.5 c 128,-1,5
 338 -39 338 -39 305 -6 c 0,6,7
 194 108 194 108 118 244.5 c 128,-1,8
 42 381 42 381 57 547 c 2,9,-1
 59 569 l 1,10,11
 85 796 85 796 235.5 951.5 c 128,-1,12
 386 1107 386 1107 624 1102 c 0,13,14
 842 1098 842 1098 957 956 c 128,-1,15
 1072 814 1072 814 1054 603 c 2,16,-1
 1052 581 l 1,17,18
 1031 395 1031 395 907.5 247 c 128,-1,19
 784 99 784 99 590 79 c 0,20,21
 578 78 578 78 566 77.5 c 128,-1,22
 554 77 554 77 542 76 c 1,23,24
 593 -4 593 -4 658.5 -77 c 128,-1,25
 724 -150 724 -150 786 -222 c 1,26,-1
 764 -375 l 1,0,-1
763 557 m 1,27,-1
 765 578 l 2,28,29
 772 642 772 642 765.5 708.5 c 128,-1,30
 759 775 759 775 723.5 821.5 c 128,-1,31
 688 868 688 868 607 871 c 0,32,33
 479 875 479 875 417 777 c 128,-1,34
 355 679 355 679 341 568 c 2,35,-1
 338 548 l 2,36,37
 329 463 329 463 348.5 380 c 128,-1,38
 368 297 368 297 435 239 c 1,39,40
 467 231 467 231 489 231 c 0,41,42
 624 226 624 226 686 334.5 c 128,-1,43
 748 443 748 443 763 557 c 1,27,-1
EndSplineSet
EndChar

StartChar: Eturn
Encoding: 398 398 165
Width: 1117
Flags: W
LayerCount: 2
Fore
SplineSet
149 1214 m 1,0,-1
 191 1456 l 1,1,-1
 1140 1456 l 1,2,-1
 888 0 l 1,3,-1
 -59 0 l 1,4,-1
 -17 243 l 1,5,-1
 636 243 l 1,6,-1
 696 590 l 1,7,-1
 138 590 l 1,8,-1
 179 825 l 1,9,-1
 736 825 l 1,10,-1
 804 1214 l 1,11,-1
 149 1214 l 1,0,-1
EndSplineSet
EndChar

StartChar: Schwa
Encoding: 399 399 166
Width: 1380
GlyphClass: 2
Flags: W
AnchorPoint: "Anchor-5" 1553 1600 basechar 0
AnchorPoint: "Anchor-1" 576 0 basechar 0
AnchorPoint: "Anchor-0" 843 1600 basechar 0
LayerCount: 2
Fore
SplineSet
1298 651 m 2,0,1
 1271 473 1271 473 1177 318.5 c 128,-1,2
 1083 164 1083 164 934 70 c 128,-1,3
 785 -24 785 -24 594 -21 c 0,4,5
 395 -18 395 -18 274 77 c 128,-1,6
 153 172 153 172 106.5 326.5 c 128,-1,7
 60 481 60 481 84 664 c 1,8,-1
 110 827 l 1,9,-1
 1026 826 l 1,10,11
 1054 994 1054 994 976 1101 c 128,-1,12
 898 1208 898 1208 722 1212 c 0,13,14
 623 1214 623 1214 525.5 1196.5 c 128,-1,15
 428 1179 428 1179 333 1150 c 1,16,-1
 308 1400 l 1,17,18
 395 1453 395 1453 523 1465 c 128,-1,19
 651 1477 651 1477 748 1476 c 0,20,21
 1046 1473 1046 1473 1201 1282 c 128,-1,22
 1356 1091 1356 1091 1319 800 c 2,23,-1
 1298 651 l 2,0,1
609 240 m 0,24,25
 766 236 766 236 857.5 344 c 128,-1,26
 949 452 949 452 996 585 c 1,27,-1
 369 584 l 1,28,-1
 362 550 l 2,29,30
 335 412 335 412 401.5 327.5 c 128,-1,31
 468 243 468 243 609 240 c 0,24,25
EndSplineSet
EndChar

StartChar: Epsilon1
Encoding: 400 400 167
Width: 1225
GlyphClass: 2
Flags: W
AnchorPoint: "Anchor-5" 1397 1600 basechar 0
AnchorPoint: "Anchor-1" 521 0 basechar 0
AnchorPoint: "Anchor-0" 797 1600 basechar 0
LayerCount: 2
Fore
SplineSet
648 861 m 2,0,-1
 838 860 l 1,1,-1
 797 625 l 1,2,-1
 641 626 l 2,3,4
 528 626 528 626 447 575.5 c 128,-1,5
 366 525 366 525 351 404 c 0,6,7
 339 302 339 302 406 261.5 c 128,-1,8
 473 221 473 221 562 220 c 0,9,10
 653 219 653 219 731 263 c 128,-1,11
 809 307 809 307 825 404 c 1,12,-1
 1119 405 l 1,13,14
 1110 257 1110 257 1024 162 c 128,-1,15
 938 67 938 67 810.5 22 c 128,-1,16
 683 -23 683 -23 549 -20 c 0,17,18
 417 -18 417 -18 300 24 c 128,-1,19
 183 66 183 66 113.5 157.5 c 128,-1,20
 44 249 44 249 54 400 c 0,21,22
 63 540 63 540 146.5 623.5 c 128,-1,23
 230 707 230 707 355 753 c 1,24,25
 275 803 275 803 231 879.5 c 128,-1,26
 187 956 187 956 192 1052 c 0,27,28
 200 1204 200 1204 286.5 1298.5 c 128,-1,29
 373 1393 373 1393 502 1436 c 128,-1,30
 631 1479 631 1479 766 1476 c 0,31,32
 952 1472 952 1472 1089 1366 c 128,-1,33
 1226 1260 1226 1260 1225 1063 c 1,34,-1
 935 1063 l 1,35,36
 937 1149 937 1149 886.5 1190 c 128,-1,37
 836 1231 836 1231 753 1233 c 0,38,39
 661 1235 661 1235 578.5 1192.5 c 128,-1,40
 496 1150 496 1150 480 1049 c 0,41,42
 465 956 465 956 511 910 c 128,-1,43
 557 864 557 864 648 861 c 2,0,-1
EndSplineSet
EndChar

StartChar: Fhook
Encoding: 401 401 168
Width: 1185
Flags: W
LayerCount: 2
Fore
SplineSet
1249 1213 m 1,0,-1
 621 1213 l 1,1,-1
 555 837 l 1,2,-1
 1115 837 l 1,3,-1
 1072 595 l 1,4,-1
 514 595 l 1,5,-1
 408 -35 l 1,6,7
 385 -214 385 -214 276 -327.5 c 128,-1,8
 167 -441 167 -441 -21 -440 c 0,9,10
 -59 -439 -59 -439 -96.5 -434 c 128,-1,11
 -134 -429 -134 -429 -171 -421 c 1,12,-1
 -131 -176 l 1,13,14
 -110 -183 -110 -183 -88.5 -187 c 128,-1,15
 -67 -191 -67 -191 -44 -191 c 0,16,17
 30 -192 30 -192 66 -147 c 128,-1,18
 102 -102 102 -102 114 -35 c 2,19,-1
 370 1456 l 1,20,-1
 1292 1456 l 1,21,-1
 1249 1213 l 1,0,-1
EndSplineSet
EndChar

StartChar: florin
Encoding: 402 402 169
Width: 717
Flags: W
LayerCount: 2
Fore
SplineSet
738 1082 m 1,0,-1
 705 871 l 1,1,-1
 503 871 l 1,2,-1
 363 -50 l 1,3,4
 344 -222 344 -222 244 -331.5 c 128,-1,5
 144 -441 144 -441 -38 -440 c 0,6,7
 -76 -439 -76 -439 -113 -434 c 128,-1,8
 -150 -429 -150 -429 -188 -421 c 1,9,-1
 -153 -192 l 1,10,11
 -131 -198 -131 -198 -108.5 -202.5 c 128,-1,12
 -86 -207 -86 -207 -64 -207 c 0,13,14
 8 -208 8 -208 39 -160 c 128,-1,15
 70 -112 70 -112 79 -50 c 2,16,-1
 221 871 l 1,17,-1
 65 871 l 1,18,-1
 98 1082 l 1,19,-1
 254 1082 l 1,20,-1
 265 1176 l 2,21,22
 286 1357 286 1357 399.5 1459 c 128,-1,23
 513 1561 513 1561 697 1559 c 0,24,25
 739 1558 739 1558 780 1551.5 c 128,-1,26
 821 1545 821 1545 862 1536 c 1,27,-1
 818 1313 l 1,28,29
 764 1325 764 1325 723 1325 c 0,30,31
 576 1325 576 1325 550 1176 c 2,32,-1
 536 1082 l 1,33,-1
 738 1082 l 1,0,-1
EndSplineSet
EndChar

StartChar: Ghook
Encoding: 403 403 170
Width: 1439
Flags: W
LayerCount: 2
Fore
SplineSet
1343 1174 m 2,0,-1
 1313 993 l 1,1,-1
 1035 992 l 1,2,3
 1026 1100 1026 1100 976 1165.5 c 128,-1,4
 926 1231 926 1231 810 1236 c 0,5,6
 681 1240 681 1240 600 1169 c 128,-1,7
 519 1098 519 1098 475.5 989 c 128,-1,8
 432 880 432 880 416 773 c 2,9,-1
 404 683 l 2,10,11
 391 586 391 586 399 480.5 c 128,-1,12
 407 375 407 375 461 300.5 c 128,-1,13
 515 226 515 226 641 223 c 0,14,15
 709 222 709 222 772.5 238 c 128,-1,16
 836 254 836 254 893 294 c 1,17,-1
 942 545 l 1,18,-1
 677 545 l 1,19,-1
 716 765 l 1,20,-1
 1273 765 l 1,21,-1
 1181 183 l 1,22,23
 1084 64 1084 64 922 21 c 128,-1,24
 760 -22 760 -22 615 -20 c 0,25,26
 416 -17 416 -17 296 84 c 128,-1,27
 176 185 176 185 130 344.5 c 128,-1,28
 84 504 84 504 106 684 c 2,29,-1
 118 771 l 2,30,31
 144 959 144 959 230.5 1121 c 128,-1,32
 317 1283 317 1283 463 1381.5 c 128,-1,33
 609 1480 609 1480 815 1478 c 0,34,35
 906 1477 906 1477 998 1456 c 128,-1,36
 1090 1435 1090 1435 1163 1377 c 1,37,38
 1292 1579 1292 1579 1525 1578 c 0,39,40
 1563 1578 1563 1578 1600 1573 c 128,-1,41
 1637 1568 1637 1568 1675 1560 c 1,42,-1
 1650 1320 l 1,43,44
 1605 1330 1605 1330 1570 1332 c 0,45,46
 1486 1334 1486 1334 1423.5 1297.5 c 128,-1,47
 1361 1261 1361 1261 1343 1174 c 2,0,-1
EndSplineSet
EndChar

StartChar: Gamma1
Encoding: 404 404 171
Width: 1325
Flags: W
LayerCount: 2
Fore
SplineSet
871 -152 m 0,0,1
 862 -299 862 -299 753 -370 c 128,-1,2
 644 -441 644 -441 509 -439 c 0,3,4
 384 -437 384 -437 282.5 -372.5 c 128,-1,5
 181 -308 181 -308 189 -167 c 0,6,7
 194 -81 194 -81 247.5 15 c 128,-1,8
 301 111 301 111 367.5 201 c 128,-1,9
 434 291 434 291 479 360 c 1,10,-1
 181 1456 l 1,11,-1
 504 1456 l 1,12,-1
 673 704 l 1,13,-1
 1104 1456 l 1,14,-1
 1456 1456 l 1,15,-1
 760 348 l 1,16,17
 785 230 785 230 831.5 100.5 c 128,-1,18
 878 -29 878 -29 871 -152 c 0,0,1
496 -157 m 0,19,20
 493 -178 493 -178 497 -201.5 c 128,-1,21
 501 -225 501 -225 530 -226 c 0,22,23
 563 -227 563 -227 580 -200.5 c 128,-1,24
 597 -174 597 -174 602 -146 c 0,25,26
 610 -102 610 -102 600 -54 c 128,-1,27
 590 -6 590 -6 581 38 c 1,28,29
 556 -7 556 -7 529 -56 c 128,-1,30
 502 -105 502 -105 496 -157 c 0,19,20
EndSplineSet
EndChar

StartChar: hv
Encoding: 405 405 172
Width: 1692
Flags: W
LayerCount: 2
Fore
SplineSet
726 1102 m 0,0,1
 916 1099 916 1099 977.5 968 c 128,-1,2
 1039 837 1039 837 1019 672 c 1,3,-1
 983 425 l 2,4,5
 976 359 976 359 990 288.5 c 128,-1,6
 1004 218 1004 218 1089 214 c 0,7,8
 1181 210 1181 210 1223.5 279 c 128,-1,9
 1266 348 1266 348 1278 425 c 2,10,-1
 1389 1082 l 1,11,-1
 1671 1082 l 1,12,-1
 1561 428 l 1,13,14
 1533 212 1533 212 1414.5 93.5 c 128,-1,15
 1296 -25 1296 -25 1071 -21 c 0,16,17
 860 -16 860 -16 768.5 103.5 c 128,-1,18
 677 223 677 223 700 428 c 1,19,-1
 735 673 l 2,20,21
 745 753 745 753 725 809 c 128,-1,22
 705 865 705 865 612 868 c 0,23,24
 550 870 550 870 502 844 c 128,-1,25
 454 818 454 818 415 772 c 1,26,-1
 278 0 l 1,27,-1
 -4 0 l 1,28,-1
 262 1536 l 1,29,-1
 545 1536 l 1,30,-1
 433 963 l 1,31,32
 491 1028 491 1028 564 1065.5 c 128,-1,33
 637 1103 637 1103 726 1102 c 0,0,1
EndSplineSet
EndChar

StartChar: Khook
Encoding: 408 408 174
Width: 1262
Flags: W
LayerCount: 2
Fore
SplineSet
837 0 m 1,0,-1
 578 580 l 1,1,-1
 384 397 l 1,2,-1
 315 0 l 1,3,-1
 21 0 l 1,4,-1
 274 1456 l 1,5,-1
 568 1456 l 1,6,-1
 454 803 l 1,7,-1
 607 986 l 1,8,-1
 803 1213 l 2,9,10
 879 1307 879 1307 962.5 1394 c 128,-1,11
 1046 1481 1046 1481 1180 1480 c 0,12,13
 1244 1479 1244 1479 1301.5 1459.5 c 128,-1,14
 1359 1440 1359 1440 1415 1412 c 1,15,-1
 1289 1197 l 1,16,17
 1271 1208 1271 1208 1252.5 1216 c 128,-1,18
 1234 1224 1234 1224 1212 1224 c 0,19,20
 1156 1224 1156 1224 1116 1177.5 c 128,-1,21
 1076 1131 1076 1131 1044 1092 c 2,22,-1
 795 800 l 1,23,-1
 1170 0 l 1,24,-1
 837 0 l 1,0,-1
EndSplineSet
EndChar

StartChar: khook
Encoding: 409 409 175
Width: 1061
Flags: W
LayerCount: 2
Fore
SplineSet
690 1357 m 0,0,1
 617 1360 617 1360 563 1324 c 128,-1,2
 509 1288 509 1288 494 1214 c 2,3,-1
 406 704 l 1,4,-1
 463 763 l 1,5,-1
 782 1082 l 1,6,-1
 1143 1082 l 1,7,-1
 672 618 l 1,8,-1
 972 0 l 1,9,-1
 662 0 l 1,10,-1
 470 431 l 1,11,-1
 340 318 l 1,12,-1
 285 0 l 1,13,-1
 3 0 l 1,14,-1
 209 1214 l 1,15,16
 230 1387 230 1387 337.5 1474.5 c 128,-1,17
 445 1562 445 1562 619 1560 c 0,18,19
 697 1559 697 1559 776 1543 c 1,20,-1
 758 1348 l 1,21,22
 741 1351 741 1351 724 1354 c 128,-1,23
 707 1357 707 1357 690 1357 c 0,0,1
EndSplineSet
EndChar

StartChar: lambdabar
Encoding: 411 411 177
Width: 1090
Flags: W
AnchorPoint: "Anchor-5" 1181 1603 basechar 0
LayerCount: 2
Fore
SplineSet
985 -13 m 1,0,1
 941 -19 941 -19 889 -17 c 0,2,3
 680 -11 680 -11 626 206 c 1,4,-1
 540 662 l 1,5,-1
 212 0 l 1,6,-1
 -104 0 l 1,7,-1
 465 1053 l 1,8,-1
 464 1068 l 1,9,-1
 251 991 l 1,10,-1
 290 1197 l 1,11,-1
 411 1236 l 1,12,13
 389 1305 389 1305 319 1309 c 0,14,15
 303 1310 303 1310 287 1309 c 128,-1,16
 271 1308 271 1308 256 1307 c 1,17,-1
 271 1526 l 1,18,19
 341 1545 341 1545 420 1544 c 0,20,21
 507 1542 507 1542 573 1501 c 128,-1,22
 639 1460 639 1460 661 1372 c 2,23,-1
 672 1320 l 1,24,-1
 869 1385 l 1,25,-1
 833 1179 l 1,26,-1
 717 1142 l 1,27,-1
 893 324 l 2,28,29
 901 292 901 292 915.5 258 c 128,-1,30
 930 224 930 224 968 220 c 2,31,-1
 1007 219 l 1,32,-1
 985 -13 l 1,0,1
EndSplineSet
EndChar

StartChar: mcapturn
Encoding: 412 412 178
Width: 1795
Flags: W
LayerCount: 2
Fore
SplineSet
1308 0 m 1,0,-1
 1325 117 l 1,1,2
 1202 -23 1202 -23 1021 -20 c 0,3,4
 929 -19 929 -19 850 22 c 128,-1,5
 771 63 771 63 743 157 c 1,6,7
 676 70 676 70 590 22.5 c 128,-1,8
 504 -25 504 -25 392 -23 c 0,9,10
 261 -20 261 -20 195 45 c 128,-1,11
 129 110 129 110 110.5 212 c 128,-1,12
 92 314 92 314 104 428 c 1,13,-1
 278 1456 l 1,14,-1
 560 1456 l 1,15,-1
 385 425 l 2,16,17
 377 360 377 360 390 289.5 c 128,-1,18
 403 219 403 219 487 215 c 0,19,20
 560 212 560 212 616 244.5 c 128,-1,21
 672 277 672 277 712 335 c 1,22,23
 718 386 718 386 725 428 c 2,24,-1
 903 1456 l 1,25,-1
 1186 1456 l 1,26,-1
 1010 425 l 2,27,28
 1002 360 1002 360 1015 290 c 128,-1,29
 1028 220 1028 220 1112 216 c 0,30,31
 1182 212 1182 212 1236.5 242.5 c 128,-1,32
 1291 273 1291 273 1332 327 c 1,33,-1
 1530 1456 l 1,34,-1
 1813 1456 l 1,35,-1
 1561 0 l 1,36,-1
 1308 0 l 1,0,-1
EndSplineSet
EndChar

StartChar: Nhook
Encoding: 413 413 179
Width: 1502
Flags: W
LayerCount: 2
Fore
SplineSet
984 0 m 1,0,-1
 579 971 l 1,1,-1
 409 -33 l 1,2,3
 385 -213 385 -213 276.5 -327 c 128,-1,4
 168 -441 168 -441 -21 -440 c 0,5,6
 -59 -439 -59 -439 -96.5 -434 c 128,-1,7
 -134 -429 -134 -429 -171 -421 c 1,8,-1
 -131 -176 l 1,9,10
 -110 -183 -110 -183 -88.5 -187 c 128,-1,11
 -67 -191 -67 -191 -44 -192 c 0,12,13
 30 -192 30 -192 66 -147 c 128,-1,14
 102 -102 102 -102 114 -35 c 2,15,-1
 370 1456 l 1,16,-1
 653 1456 l 1,17,-1
 1059 483 l 1,18,-1
 1228 1456 l 1,19,-1
 1520 1456 l 1,20,-1
 1268 0 l 1,21,-1
 984 0 l 1,0,-1
EndSplineSet
EndChar

StartChar: Ohorn
Encoding: 416 416 180
Width: 1393
GlyphClass: 2
Flags: W
AnchorPoint: "Anchor-5" 1566 1603 basechar 0
AnchorPoint: "Anchor-1" 558 0 basechar 0
AnchorPoint: "Anchor-0" 858 1603 basechar 0
LayerCount: 2
Fore
SplineSet
1300 695 m 2,0,1
 1274 509 1274 509 1185.5 344 c 128,-1,2
 1097 179 1097 179 948.5 77.5 c 128,-1,3
 800 -24 800 -24 594 -20 c 0,4,5
 396 -16 396 -16 279 89.5 c 128,-1,6
 162 195 162 195 118 357.5 c 128,-1,7
 74 520 74 520 95 695 c 2,8,-1
 103 760 l 2,9,10
 129 946 129 946 218.5 1111 c 128,-1,11
 308 1276 308 1276 457 1378 c 128,-1,12
 606 1480 606 1480 811 1476 c 0,13,14
 929 1474 929 1474 1037 1428 c 128,-1,15
 1145 1382 1145 1382 1218 1286 c 1,16,17
 1316 1314 1316 1314 1349.5 1395 c 128,-1,18
 1383 1476 1383 1476 1395 1567 c 1,19,-1
 1584 1568 l 1,20,21
 1572 1420 1572 1420 1510.5 1305.5 c 128,-1,22
 1449 1191 1449 1191 1300 1145 c 1,23,24
 1315 1049 1315 1049 1318.5 953 c 128,-1,25
 1322 857 1322 857 1309 760 c 2,26,-1
 1300 695 l 2,0,1
1003 695 m 2,27,-1
 1012 763 l 2,28,29
 1023 853 1023 853 1018.5 960 c 128,-1,30
 1014 1067 1014 1067 965.5 1145.5 c 128,-1,31
 917 1224 917 1224 797 1229 c 0,32,33
 668 1234 668 1234 586.5 1161.5 c 128,-1,34
 505 1089 505 1089 460.5 979 c 128,-1,35
 416 869 416 869 401 762 c 2,36,-1
 392 694 l 2,37,38
 381 605 381 605 386 497.5 c 128,-1,39
 391 390 391 390 439.5 310.5 c 128,-1,40
 488 231 488 231 608 226 c 0,41,42
 737 221 737 221 818.5 294.5 c 128,-1,43
 900 368 900 368 944 478 c 128,-1,44
 988 588 988 588 1003 695 c 2,27,-1
EndSplineSet
EndChar

StartChar: ohorn
Encoding: 417 417 181
Width: 1155
GlyphClass: 2
Flags: W
AnchorPoint: "Anchor-5" 1274 1290 basechar 0
AnchorPoint: "Anchor-1" 455 -10 basechar 0
AnchorPoint: "Anchor-0" 679 1290 basechar 0
LayerCount: 2
Fore
SplineSet
1046 531 m 2,0,1
 1016 303 1016 303 867.5 138.5 c 128,-1,2
 719 -26 719 -26 475 -20 c 0,3,4
 242 -15 242 -15 135.5 148.5 c 128,-1,5
 29 312 29 312 50 528 c 1,6,-1
 53 549 l 1,7,8
 80 778 80 778 230.5 942.5 c 128,-1,9
 381 1107 381 1107 624 1103 c 0,10,11
 725 1101 725 1101 817.5 1063.5 c 128,-1,12
 910 1026 910 1026 973 945 c 1,13,14
 1038 986 1038 986 1061 1048 c 128,-1,15
 1084 1110 1084 1110 1095 1183 c 1,16,-1
 1264 1184 l 1,17,18
 1255 1062 1255 1062 1206 971 c 128,-1,19
 1157 880 1157 880 1041 831 c 1,20,21
 1065 691 1065 691 1049 553 c 2,22,-1
 1046 531 l 2,0,1
335 544 m 2,23,-1
 333 523 l 2,24,25
 326 459 326 459 331.5 388 c 128,-1,26
 337 317 337 317 372 265.5 c 128,-1,27
 407 214 407 214 490 211 c 0,28,29
 623 207 623 207 686 313.5 c 128,-1,30
 749 420 749 420 763 532 c 2,31,-1
 765 553 l 2,32,33
 772 616 772 616 767 689 c 128,-1,34
 762 762 762 762 726.5 814.5 c 128,-1,35
 691 867 691 867 607 870 c 0,36,37
 518 873 518 873 461.5 822 c 128,-1,38
 405 771 405 771 375 694.5 c 128,-1,39
 345 618 345 618 335 544 c 2,23,-1
EndSplineSet
EndChar

StartChar: OI
Encoding: 418 418 182
Width: 1782
Flags: W
LayerCount: 2
Fore
SplineSet
605 -19 m 0,0,1
 405 -16 405 -16 285.5 84.5 c 128,-1,2
 166 185 166 185 121 344 c 128,-1,3
 76 503 76 503 98 683 c 2,4,-1
 110 773 l 2,5,6
 136 964 136 964 226.5 1125.5 c 128,-1,7
 317 1287 317 1287 467.5 1383.5 c 128,-1,8
 618 1480 618 1480 824 1477 c 0,9,10
 942 1476 942 1476 1067 1445.5 c 128,-1,11
 1192 1415 1192 1415 1280 1330 c 1,12,-1
 1572 1456 l 1,13,-1
 1803 1456 l 1,14,-1
 1478 -417 l 1,15,-1
 1195 -417 l 1,16,-1
 1460 1106 l 1,17,-1
 1306 1041 l 1,18,-1
 1165 185 l 1,19,20
 1071 65 1071 65 910 21.5 c 128,-1,21
 749 -22 749 -22 605 -19 c 0,0,1
829 1238 m 0,22,23
 695 1241 695 1241 607.5 1173.5 c 128,-1,24
 520 1106 520 1106 472.5 998 c 128,-1,25
 425 890 425 890 408 773 c 2,26,-1
 395 682 l 2,27,28
 383 585 383 585 391 480 c 128,-1,29
 399 375 399 375 453 300.5 c 128,-1,30
 507 226 507 226 632 223 c 0,31,32
 703 222 703 222 768 239 c 128,-1,33
 833 256 833 256 891 298 c 1,34,-1
 1049 1161 l 1,35,36
 1011 1209 1011 1209 948.5 1222.5 c 128,-1,37
 886 1236 886 1236 829 1238 c 0,22,23
EndSplineSet
EndChar

StartChar: oi
Encoding: 419 419 183
Width: 1442
Flags: W
LayerCount: 2
Fore
SplineSet
1075 742 m 1,0,-1
 969 698 l 1,1,-1
 893 194 l 1,2,3
 820 84 820 84 707 30.5 c 128,-1,4
 594 -23 594 -23 463 -20 c 0,5,6
 229 -15 229 -15 129 148 c 128,-1,7
 29 311 29 311 50 524 c 1,8,-1
 54 553 l 1,9,10
 81 780 81 780 225.5 944 c 128,-1,11
 370 1108 370 1108 613 1103 c 0,12,13
 702 1101 702 1101 785 1066 c 128,-1,14
 868 1031 868 1031 926 962 c 1,15,-1
 1206 1082 l 1,16,-1
 1416 1082 l 1,17,-1
 1156 -417 l 1,18,-1
 873 -417 l 1,19,-1
 1075 742 l 1,0,-1
468 214 m 0,20,21
 507 213 507 213 541 225.5 c 128,-1,22
 575 238 575 238 607 259 c 1,23,-1
 711 817 l 1,24,25
 670 869 670 869 596 871 c 0,26,27
 506 874 506 874 453 825 c 128,-1,28
 400 776 400 776 373.5 701 c 128,-1,29
 347 626 347 626 337 553 c 2,30,-1
 334 525 l 2,31,32
 328 467 328 467 328 395 c 128,-1,33
 328 323 328 323 357.5 270 c 128,-1,34
 387 217 387 217 468 214 c 0,20,21
EndSplineSet
EndChar

StartChar: Phook
Encoding: 420 420 184
Width: 1577
Flags: W
LayerCount: 2
Fore
SplineSet
117 1084 m 0,0,1
 132 1270 132 1270 255 1364 c 128,-1,2
 378 1458 378 1458 557 1456 c 1,3,-1
 557 1457 l 1,4,-1
 1103 1455 l 2,5,6
 1312 1451 1312 1451 1449 1326.5 c 128,-1,7
 1586 1202 1586 1202 1569 983 c 0,8,9
 1550 744 1550 744 1374.5 628.5 c 128,-1,10
 1199 513 1199 513 977 513 c 2,11,-1
 700 514 l 1,12,-1
 610 0 l 1,13,-1
 317 0 l 1,14,-1
 536 1217 l 1,15,16
 455 1209 455 1209 408 1158 c 128,-1,17
 361 1107 361 1107 351 1027 c 0,18,19
 349 1006 349 1006 349.5 984.5 c 128,-1,20
 350 963 350 963 352 941 c 1,21,-1
 123 942 l 1,22,23
 112 1019 112 1019 117 1084 c 0,0,1
821 1213 m 1,24,-1
 741 756 l 1,25,-1
 984 754 l 2,26,27
 1094 755 1094 755 1175.5 811 c 128,-1,28
 1257 867 1257 867 1274 981 c 0,29,30
 1288 1078 1288 1078 1243 1142.5 c 128,-1,31
 1198 1207 1198 1207 1097 1212 c 1,32,-1
 821 1213 l 1,24,-1
EndSplineSet
EndChar

StartChar: phook
Encoding: 421 421 185
Width: 1118
Flags: W
LayerCount: 2
Fore
SplineSet
561 -21 m 0,0,1
 405 -17 405 -17 312 97 c 1,2,-1
 213 -416 l 1,3,-1
 -70 -416 l 1,4,-1
 181 1083 l 1,5,-1
 181 1082 l 1,6,7
 210 1252 210 1252 316.5 1333.5 c 128,-1,8
 423 1415 423 1415 592 1412 c 0,9,10
 670 1411 670 1411 750 1396 c 1,11,-1
 733 1201 l 1,12,13
 716 1204 716 1204 699 1206.5 c 128,-1,14
 682 1209 682 1209 665 1210 c 0,15,16
 592 1213 592 1213 538 1177 c 128,-1,17
 484 1141 484 1141 465 1069 c 2,18,-1
 444 987 l 1,19,20
 556 1104 556 1104 707 1102 c 0,21,22
 855 1099 855 1099 932.5 1013.5 c 128,-1,23
 1010 928 1010 928 1033.5 803 c 128,-1,24
 1057 678 1057 678 1045 556 c 1,25,-1
 1042 534 l 2,26,27
 1027 402 1027 402 971 273 c 128,-1,28
 915 144 915 144 814 60 c 128,-1,29
 713 -24 713 -24 561 -21 c 0,0,1
623 868 m 0,30,31
 558 871 558 871 508 843 c 128,-1,32
 458 815 458 815 420 764 c 1,33,-1
 339 318 l 1,34,35
 378 215 378 215 499 212 c 0,36,37
 586 210 586 210 640 260.5 c 128,-1,38
 694 311 694 311 722 387 c 128,-1,39
 750 463 750 463 760 534 c 2,40,-1
 762 555 l 2,41,42
 768 613 768 613 766 685 c 128,-1,43
 764 757 764 757 733 811 c 128,-1,44
 702 865 702 865 623 868 c 0,30,31
EndSplineSet
EndChar

StartChar: YR
Encoding: 422 422 186
Width: 1373
Flags: W
LayerCount: 2
Fore
SplineSet
1245 -336 m 1,0,-1
 1245 -355 l 1,1,-1
 932 -352 l 1,2,-1
 646 534 l 1,3,-1
 408 534 l 1,4,-1
 315 0 l 1,5,-1
 21 0 l 1,6,-1
 269 1455 l 1,7,-1
 271 1455 l 1,8,-1
 292 1561 l 1,9,-1
 586 1560 l 1,10,-1
 567 1456 l 1,11,-1
 782 1455 l 2,12,13
 983 1451 983 1451 1122 1347 c 128,-1,14
 1261 1243 1261 1243 1245 1024 c 0,15,16
 1234 868 1234 868 1150.5 765.5 c 128,-1,17
 1067 663 1067 663 925 607 c 1,18,-1
 1245 -336 l 1,0,-1
526 1213 m 1,19,-1
 450 776 l 1,20,-1
 667 774 l 2,21,22
 775 775 775 775 854 832.5 c 128,-1,23
 933 890 933 890 949 1002 c 0,24,25
 979 1204 979 1204 776 1212 c 1,26,-1
 526 1213 l 1,19,-1
EndSplineSet
EndChar

StartChar: Tonetwo
Encoding: 423 423 187
Width: 1221
Flags: W
LayerCount: 2
Fore
SplineSet
326 374 m 0,0,1
 313 288 313 288 372.5 253.5 c 128,-1,2
 432 219 432 219 506 217 c 0,3,4
 631 213 631 213 720.5 271.5 c 128,-1,5
 810 330 810 330 828 459 c 1,6,-1
 1121 460 l 1,7,8
 1111 298 1111 298 1017 190.5 c 128,-1,9
 923 83 923 83 783.5 30 c 128,-1,10
 644 -23 644 -23 495 -20 c 0,11,12
 374 -18 374 -18 264.5 24 c 128,-1,13
 155 66 155 66 89 152.5 c 128,-1,14
 23 239 23 239 32 377 c 0,15,16
 41 521 41 521 123 614 c 128,-1,17
 205 707 205 707 324.5 764 c 128,-1,18
 444 821 444 821 565 857 c 0,19,20
 621 874 621 874 694.5 898.5 c 128,-1,21
 768 923 768 923 826.5 965 c 128,-1,22
 885 1007 885 1007 897 1076 c 0,23,24
 913 1164 913 1164 849.5 1201 c 128,-1,25
 786 1238 786 1238 712 1240 c 0,26,27
 607 1242 607 1242 533 1187.5 c 128,-1,28
 459 1133 459 1133 444 1027 c 1,29,-1
 152 1026 l 1,30,31
 160 1174 160 1174 243.5 1275 c 128,-1,32
 327 1376 327 1376 453.5 1427.5 c 128,-1,33
 580 1479 580 1479 718 1477 c 0,34,35
 836 1475 836 1475 948 1431.5 c 128,-1,36
 1060 1388 1060 1388 1129.5 1300 c 128,-1,37
 1199 1212 1199 1212 1191 1077 c 0,38,39
 1183 935 1183 935 1098.5 845.5 c 128,-1,40
 1014 756 1014 756 893.5 701.5 c 128,-1,41
 773 647 773 647 656 612 c 0,42,43
 593 593 593 593 520.5 567 c 128,-1,44
 448 541 448 541 393 496 c 128,-1,45
 338 451 338 451 326 374 c 0,0,1
EndSplineSet
EndChar

StartChar: tonetwo
Encoding: 424 424 188
Width: 1022
Flags: W
LayerCount: 2
Fore
SplineSet
296 293 m 0,0,1
 285 231 285 231 331.5 207.5 c 128,-1,2
 378 184 378 184 429 183 c 0,3,4
 511 181 511 181 570 222 c 128,-1,5
 629 263 629 263 648 344 c 1,6,-1
 918 346 l 1,7,8
 912 223 912 223 836.5 140.5 c 128,-1,9
 761 58 761 58 650.5 17.5 c 128,-1,10
 540 -23 540 -23 430 -21 c 0,11,12
 333 -19 333 -19 238 15 c 128,-1,13
 143 49 143 49 81 120 c 128,-1,14
 19 191 19 191 23 303 c 0,15,16
 27 424 27 424 95 492.5 c 128,-1,17
 163 561 163 561 262.5 596.5 c 128,-1,18
 362 632 362 632 462 652 c 0,19,20
 521 664 521 664 600.5 689 c 128,-1,21
 680 714 680 714 692 788 c 0,22,23
 702 845 702 845 663 872 c 128,-1,24
 624 899 624 899 574 900 c 0,25,26
 420 903 420 903 393 753 c 1,27,-1
 110 752 l 1,28,29
 116 875 116 875 187 953.5 c 128,-1,30
 258 1032 258 1032 363.5 1068.5 c 128,-1,31
 469 1105 469 1105 580 1102 c 0,32,33
 723 1099 723 1099 846.5 1017 c 128,-1,34
 970 935 970 935 964 774 c 0,35,36
 960 663 960 663 895 596.5 c 128,-1,37
 830 530 830 530 735.5 493.5 c 128,-1,38
 641 457 641 457 550 437 c 0,39,40
 488 424 488 424 399 398 c 128,-1,41
 310 372 310 372 296 293 c 0,0,1
EndSplineSet
EndChar

StartChar: eshlooprev
Encoding: 426 426 190
Width: 1042
Flags: W
LayerCount: 2
Fore
SplineSet
862 -413 m 1,0,1
 794 -429 794 -429 730 -427 c 0,2,3
 556 -423 556 -423 481.5 -306 c 128,-1,4
 407 -189 407 -189 424 -27 c 1,5,-1
 571 792 l 1,6,7
 517 777 517 777 469 777 c 0,8,9
 313 777 313 777 218 896.5 c 128,-1,10
 123 1016 123 1016 133 1166 c 0,11,12
 140 1277 140 1277 200.5 1371 c 128,-1,13
 261 1465 261 1465 356.5 1521.5 c 128,-1,14
 452 1578 452 1578 565 1575 c 0,15,16
 725 1571 725 1571 823.5 1450.5 c 128,-1,17
 922 1330 922 1330 907 1174 c 1,18,-1
 704 -28 l 2,19,20
 697 -87 697 -87 711.5 -136 c 128,-1,21
 726 -185 726 -185 795 -189 c 0,22,23
 817 -190 817 -190 839 -187.5 c 128,-1,24
 861 -185 861 -185 883 -181 c 1,25,-1
 862 -413 l 1,0,1
491 1022 m 0,26,27
 561 1021 561 1021 606 1069 c 128,-1,28
 651 1117 651 1117 660 1182 c 0,29,30
 667 1240 667 1240 640.5 1284.5 c 128,-1,31
 614 1329 614 1329 551 1330 c 0,32,33
 481 1331 481 1331 434.5 1282.5 c 128,-1,34
 388 1234 388 1234 380 1167 c 0,35,36
 372 1108 372 1108 400 1065 c 128,-1,37
 428 1022 428 1022 491 1022 c 0,26,27
EndSplineSet
EndChar

StartChar: tpalatalhook
Encoding: 427 427 191
Width: 671
Flags: W
LayerCount: 2
Fore
SplineSet
476 221 m 0,0,1
 497 220 497 220 518.5 222 c 128,-1,2
 540 224 540 224 561 227 c 1,3,-1
 526 -58 l 2,4,5
 507 -208 507 -208 422 -306.5 c 128,-1,6
 337 -405 337 -405 177 -404 c 0,7,8
 143 -403 143 -403 110.5 -398.5 c 128,-1,9
 78 -394 78 -394 45 -387 c 1,10,-1
 63 -192 l 1,11,12
 80 -195 80 -195 97 -198 c 128,-1,13
 114 -201 114 -201 132 -201 c 0,14,15
 206 -204 206 -204 261.5 -167.5 c 128,-1,16
 317 -131 317 -131 336 -57 c 1,17,-1
 344 -17 l 1,18,19
 211 -4 211 -4 158 85.5 c 128,-1,20
 105 175 105 175 117 300 c 1,21,-1
 210 871 l 1,22,-1
 56 871 l 1,23,-1
 93 1082 l 1,24,-1
 246 1082 l 1,25,-1
 293 1349 l 1,26,-1
 576 1349 l 1,27,-1
 529 1082 l 1,28,-1
 708 1082 l 1,29,-1
 671 871 l 1,30,-1
 493 871 l 1,31,-1
 400 328 l 2,32,33
 394 278 394 278 408 250.5 c 128,-1,34
 422 223 422 223 476 221 c 0,0,1
EndSplineSet
EndChar

StartChar: Thook
Encoding: 428 428 192
Width: 1394
Flags: W
LayerCount: 2
Fore
SplineSet
109 1083 m 0,0,1
 123 1268 123 1268 246.5 1363 c 128,-1,2
 370 1458 370 1458 548 1458 c 2,3,-1
 1503 1456 l 1,4,-1
 1460 1213 l 1,5,-1
 1029 1213 l 1,6,-1
 819 0 l 1,7,-1
 525 0 l 1,8,-1
 735 1213 l 1,9,-1
 541 1215 l 2,10,11
 455 1213 455 1213 404.5 1161.5 c 128,-1,12
 354 1110 354 1110 343 1027 c 0,13,14
 340 1006 340 1006 341 984.5 c 128,-1,15
 342 963 342 963 343 941 c 1,16,-1
 115 942 l 1,17,18
 104 1019 104 1019 109 1083 c 0,0,1
EndSplineSet
EndChar

StartChar: thook
Encoding: 429 429 193
Width: 724
Flags: W
LayerCount: 2
Fore
SplineSet
753 1375 m 0,0,1
 680 1377 680 1377 626 1342 c 128,-1,2
 572 1307 572 1307 557 1233 c 2,3,-1
 532 1082 l 1,4,-1
 712 1082 l 1,5,-1
 675 871 l 1,6,-1
 495 871 l 1,7,-1
 404 336 l 2,8,9
 398 286 398 286 410.5 254.5 c 128,-1,10
 423 223 423 223 479 221 c 0,11,12
 500 220 500 220 521.5 222 c 128,-1,13
 543 224 543 224 564 227 c 1,14,-1
 545 6 l 1,15,16
 471 -20 471 -20 384 -18 c 0,17,18
 237 -16 237 -16 173 76.5 c 128,-1,19
 109 169 109 169 121 308 c 1,20,-1
 213 871 l 1,21,-1
 60 871 l 1,22,-1
 96 1082 l 1,23,-1
 250 1082 l 1,24,-1
 270 1233 l 2,25,26
 290 1409 290 1409 399.5 1494 c 128,-1,27
 509 1579 509 1579 681 1577 c 0,28,29
 759 1576 759 1576 839 1561 c 1,30,-1
 821 1366 l 1,31,32
 804 1370 804 1370 787 1372.5 c 128,-1,33
 770 1375 770 1375 753 1375 c 0,0,1
EndSplineSet
EndChar

StartChar: Trthook
Encoding: 430 430 194
Width: 1229
Flags: W
LayerCount: 2
Fore
SplineSet
144 1213 m 1,0,-1
 187 1456 l 1,1,-1
 1338 1456 l 1,2,-1
 1295 1213 l 1,3,-1
 864 1213 l 1,4,-1
 650 -36 l 2,5,6
 644 -83 644 -83 650 -133.5 c 128,-1,7
 656 -184 656 -184 717 -188 c 0,8,9
 742 -189 742 -189 767 -185.5 c 128,-1,10
 792 -182 792 -182 816 -177 c 1,11,-1
 808 -422 l 1,12,13
 744 -437 744 -437 678 -436 c 0,14,15
 503 -432 503 -432 422.5 -316.5 c 128,-1,16
 342 -201 342 -201 359 -35 c 1,17,-1
 571 1213 l 1,18,-1
 144 1213 l 1,0,-1
EndSplineSet
EndChar

StartChar: Uhorn
Encoding: 431 431 195
Width: 1415
GlyphClass: 2
Flags: W
AnchorPoint: "Anchor-5" 1590 1612 basechar 0
AnchorPoint: "Anchor-1" 589 -10 basechar 0
AnchorPoint: "Anchor-0" 869 1612 basechar 0
LayerCount: 2
Fore
SplineSet
1182 496 m 1,0,1
 1148 253 1148 253 981 114 c 128,-1,2
 814 -25 814 -25 568 -20 c 0,3,4
 339 -16 339 -16 204.5 123 c 128,-1,5
 70 262 70 262 97 496 c 1,6,-1
 260 1456 l 1,7,-1
 554 1456 l 1,8,-1
 391 495 l 1,9,10
 377 382 377 382 418.5 303.5 c 128,-1,11
 460 225 460 225 584 221 c 0,12,13
 716 217 716 217 792 294.5 c 128,-1,14
 868 372 868 372 888 496 c 2,15,-1
 1052 1456 l 1,16,-1
 1346 1456 l 1,17,-1
 1300 1226 l 1,18,19
 1435 1242 1435 1242 1481 1329 c 128,-1,20
 1527 1416 1527 1416 1542 1537 c 1,21,-1
 1727 1538 l 1,22,23
 1711 1328 1711 1328 1609 1204.5 c 128,-1,24
 1507 1081 1507 1081 1287 1072 c 1,25,-1
 1182 496 l 1,0,1
EndSplineSet
EndChar

StartChar: uhorn
Encoding: 432 432 196
Width: 1212
GlyphClass: 2
Flags: W
AnchorPoint: "Anchor-5" 1327 1269 basechar 0
AnchorPoint: "Anchor-1" 451 0 basechar 0
AnchorPoint: "Anchor-0" 674 1269 basechar 0
LayerCount: 2
Fore
SplineSet
643 0 m 1,0,-1
 665 113 l 1,1,2
 543 -24 543 -24 366 -21 c 0,3,4
 190 -18 190 -18 121.5 102 c 128,-1,5
 53 222 53 222 68 382 c 1,6,-1
 185 1082 l 1,7,-1
 467 1082 l 1,8,-1
 348 378 l 2,9,10
 340 314 340 314 362 266 c 128,-1,11
 384 218 384 218 457 215 c 0,12,13
 589 210 589 210 675 317 c 1,14,-1
 810 1082 l 1,15,-1
 1093 1082 l 1,16,-1
 1061 940 l 1,17,18
 1151 966 1151 966 1180.5 1029 c 128,-1,19
 1210 1092 1210 1092 1222 1177 c 1,20,-1
 1389 1178 l 1,21,22
 1377 1013 1377 1013 1299.5 918.5 c 128,-1,23
 1222 824 1222 824 1053 804 c 1,24,-1
 906 0 l 1,25,-1
 643 0 l 1,0,-1
EndSplineSet
EndChar

StartChar: Upsilon2
Encoding: 433 433 197
Width: 1324
Flags: W
LayerCount: 2
Fore
SplineSet
908 680 m 2,0,1
 917 749 917 749 928.5 858 c 128,-1,2
 940 967 940 967 920.5 1066.5 c 128,-1,3
 901 1166 901 1166 818 1206 c 1,4,-1
 857 1456 l 1,5,-1
 1356 1456 l 1,6,-1
 1312 1213 l 1,7,-1
 1099 1212 l 1,8,9
 1174 1087 1174 1087 1213.5 957 c 128,-1,10
 1253 827 1253 827 1235 679 c 2,11,-1
 1224 594 l 2,12,13
 1202 427 1202 427 1116.5 285.5 c 128,-1,14
 1031 144 1031 144 893 59.5 c 128,-1,15
 755 -25 755 -25 577 -21 c 0,16,17
 406 -18 406 -18 294 69.5 c 128,-1,18
 182 157 182 157 133 296 c 128,-1,19
 84 435 84 435 102 594 c 1,20,-1
 114 679 l 2,21,22
 161 1016 161 1016 441 1218 c 1,23,-1
 224 1213 l 1,24,-1
 267 1456 l 1,25,-1
 758 1456 l 1,26,-1
 720 1207 l 1,27,28
 620 1165 620 1165 564 1076.5 c 128,-1,29
 508 988 508 988 481 881.5 c 128,-1,30
 454 775 454 775 441 679 c 2,31,-1
 429 591 l 2,32,33
 421 523 421 523 424 438.5 c 128,-1,34
 427 354 427 354 464 291 c 128,-1,35
 501 228 501 228 594 224 c 0,36,37
 694 220 694 220 756.5 278 c 128,-1,38
 819 336 819 336 852.5 423 c 128,-1,39
 886 510 886 510 897 592 c 2,40,-1
 908 680 l 2,0,1
EndSplineSet
EndChar

StartChar: Vcursive
Encoding: 434 434 198
Width: 1310
Flags: W
LayerCount: 2
Fore
SplineSet
571 -21 m 0,0,1
 341 -17 341 -17 206 122.5 c 128,-1,2
 71 262 71 262 98 496 c 1,3,-1
 261 1456 l 1,4,-1
 555 1456 l 1,5,-1
 392 495 l 1,6,7
 378 382 378 382 419 303.5 c 128,-1,8
 460 225 460 225 584 221 c 0,9,10
 716 216 716 216 792.5 293.5 c 128,-1,11
 869 371 869 371 889 496 c 2,12,-1
 984 1074 l 2,13,14
 992 1138 992 1138 977.5 1180 c 128,-1,15
 963 1222 963 1222 891 1224 c 0,16,17
 869 1225 869 1225 847.5 1223 c 128,-1,18
 826 1221 826 1221 804 1218 c 1,19,-1
 826 1459 l 1,20,21
 894 1475 894 1475 959 1473 c 0,22,23
 1132 1470 1132 1470 1212 1353.5 c 128,-1,24
 1292 1237 1292 1237 1275 1073 c 1,25,-1
 1182 496 l 1,26,27
 1149 254 1149 254 982 114.5 c 128,-1,28
 815 -25 815 -25 571 -21 c 0,0,1
EndSplineSet
EndChar

StartChar: Yhook
Encoding: 435 435 199
Width: 1359
Flags: W
LayerCount: 2
Fore
SplineSet
1061 979 m 2,0,-1
 750 514 l 1,1,-1
 661 0 l 1,2,-1
 363 0 l 1,3,-1
 458 547 l 1,4,-1
 154 1455 l 1,5,-1
 464 1456 l 1,6,-1
 643 800 l 1,7,-1
 824 1097 l 2,8,9
 873 1181 873 1181 929.5 1270.5 c 128,-1,10
 986 1360 986 1360 1064 1420.5 c 128,-1,11
 1142 1481 1142 1481 1254 1480 c 0,12,13
 1322 1479 1322 1479 1384 1460.5 c 128,-1,14
 1446 1442 1446 1442 1507 1412 c 1,15,-1
 1381 1197 l 1,16,17
 1362 1209 1362 1209 1343 1216.5 c 128,-1,18
 1324 1224 1324 1224 1301 1225 c 0,19,20
 1244 1227 1244 1227 1199 1181.5 c 128,-1,21
 1154 1136 1154 1136 1120.5 1077.5 c 128,-1,22
 1087 1019 1087 1019 1061 979 c 2,0,-1
EndSplineSet
EndChar

StartChar: yhook
Encoding: 436 436 200
Width: 1188
Flags: W
LayerCount: 2
Fore
SplineSet
451 -163 m 1,0,1
 397 -283 397 -283 308.5 -362 c 128,-1,2
 220 -441 220 -441 80 -440 c 0,3,4
 45 -440 45 -440 11.5 -433.5 c 128,-1,5
 -22 -427 -22 -427 -56 -419 c 1,6,-1
 -34 -200 l 1,7,8
 -7 -202 -7 -202 6 -202 c 0,9,10
 151 -204 151 -204 216 -83 c 2,11,-1
 269 18 l 1,12,-1
 92 1082 l 1,13,-1
 384 1082 l 1,14,-1
 456 450 l 1,15,-1
 454 394 l 1,16,-1
 726 982 l 2,17,18
 761 1063 761 1063 803.5 1148 c 128,-1,19
 846 1233 846 1233 911.5 1290.5 c 128,-1,20
 977 1348 977 1348 1082 1346 c 0,21,22
 1148 1345 1148 1345 1205.5 1320 c 128,-1,23
 1263 1295 1263 1295 1315 1258 c 1,24,-1
 1238 1078 l 1,25,26
 1217 1089 1217 1089 1195.5 1098 c 128,-1,27
 1174 1107 1174 1107 1149 1108 c 0,28,29
 1077 1111 1077 1111 1037 1034.5 c 128,-1,30
 997 958 997 958 973 906 c 2,31,-1
 451 -163 l 1,0,1
EndSplineSet
EndChar

StartChar: Zbar
Encoding: 437 437 201
Width: 1205
GlyphClass: 2
Flags: W
AnchorPoint: "Anchor-5" 1377 1600 basechar 0
AnchorPoint: "Anchor-1" 507 10 basechar 0
AnchorPoint: "Anchor-0" 782 1600 basechar 0
LayerCount: 2
Fore
SplineSet
176 1213 m 1,0,-1
 219 1456 l 1,1,-1
 1280 1456 l 1,2,-1
 1247 1269 l 1,3,-1
 877 837 l 1,4,-1
 1125 835 l 1,5,-1
 1091 652 l 1,6,-1
 729 651 l 1,7,-1
 378 244 l 1,8,-1
 1085 242 l 1,9,-1
 1043 0 l 1,10,-1
 -34 0 l 1,11,-1
 -1 191 l 1,12,-1
 395 650 l 1,13,-1
 142 652 l 1,14,-1
 176 835 l 1,15,-1
 544 836 l 1,16,-1
 871 1211 l 1,17,-1
 176 1213 l 1,0,-1
EndSplineSet
EndChar

StartChar: zbar
Encoding: 438 438 202
Width: 1017
GlyphClass: 2
Flags: W
AnchorPoint: "Anchor-5" 1135 1290 basechar 0
AnchorPoint: "Anchor-1" 407 10 basechar 0
AnchorPoint: "Anchor-0" 625 1290 basechar 0
LayerCount: 2
Fore
SplineSet
131 849 m 1,0,-1
 172 1082 l 1,1,-1
 1016 1082 l 1,2,-1
 983 897 l 1,3,-1
 748 647 l 1,4,-1
 893 645 l 1,5,-1
 857 462 l 1,6,-1
 589 460 l 1,7,-1
 373 235 l 1,8,-1
 883 233 l 1,9,-1
 842 0 l 1,10,-1
 -31 0 l 1,11,-1
 2 191 l 1,12,-1
 254 460 l 1,13,-1
 102 462 l 1,14,-1
 138 645 l 1,15,-1
 414 647 l 1,16,-1
 607 847 l 1,17,-1
 131 849 l 1,0,-1
EndSplineSet
EndChar

StartChar: uni01B7
Encoding: 439 439 203
Width: 1299
Flags: W
LayerCount: 2
Fore
SplineSet
177 1213 m 1,0,-1
 220 1456 l 1,1,-1
 1273 1456 l 1,2,-1
 1241 1274 l 1,3,-1
 765 811 l 1,4,5
 919 790 919 790 1007.5 698 c 128,-1,6
 1096 606 1096 606 1129.5 475 c 128,-1,7
 1163 344 1163 344 1149 206 c 0,8,9
 1121 -73 1121 -73 941.5 -254.5 c 128,-1,10
 762 -436 762 -436 474 -430 c 0,11,12
 242 -425 242 -425 109 -289.5 c 128,-1,13
 -24 -154 -24 -154 -32 75 c 1,14,-1
 259 74 l 1,15,16
 262 -46 262 -46 311.5 -116.5 c 128,-1,17
 361 -187 361 -187 489 -190 c 0,18,19
 669 -195 669 -195 753.5 -75 c 128,-1,20
 838 45 838 45 857 205 c 0,21,22
 868 297 868 297 860 383.5 c 128,-1,23
 852 470 852 470 803.5 527.5 c 128,-1,24
 755 585 755 585 644 589 c 2,25,-1
 369 590 l 1,26,-1
 401 778 l 1,27,-1
 854 1211 l 1,28,-1
 177 1213 l 1,0,-1
EndSplineSet
EndChar

StartChar: uni01B8
Encoding: 440 440 204
Width: 1299
Flags: W
LayerCount: 2
Fore
SplineSet
957 750 m 1,0,-1
 928 590 l 1,1,-1
 683 592 l 2,2,3
 496 593 496 593 409.5 477 c 128,-1,4
 323 361 323 361 303 190 c 0,5,6
 292 98 292 98 301 12 c 128,-1,7
 310 -74 310 -74 359 -131 c 128,-1,8
 408 -188 408 -188 520 -192 c 0,9,10
 654 -196 654 -196 733.5 -126 c 128,-1,11
 813 -56 813 -56 840 72 c 1,12,-1
 1134 74 l 1,13,14
 1103 -166 1103 -166 921.5 -300 c 128,-1,15
 740 -434 740 -434 506 -430 c 0,16,17
 230 -426 230 -426 105.5 -247.5 c 128,-1,18
 -19 -69 -19 -69 8 191 c 256,19,20
 35 451 35 451 191 618.5 c 128,-1,21
 347 786 347 786 607 819 c 1,22,-1
 298 1302 l 1,23,-1
 325 1456 l 1,24,-1
 1374 1456 l 1,25,-1
 1331 1213 l 1,26,-1
 643 1213 l 1,27,-1
 957 750 l 1,0,-1
EndSplineSet
EndChar

StartChar: uni01B9
Encoding: 441 441 205
Width: 1140
Flags: W
LayerCount: 2
Fore
SplineSet
449 849 m 1,0,-1
 725 479 l 1,1,-1
 695 310 l 1,2,-1
 579 311 l 2,3,4
 441 311 441 311 352.5 240 c 128,-1,5
 264 169 264 169 248 29 c 0,6,7
 237 -62 237 -62 293 -112.5 c 128,-1,8
 349 -163 349 -163 436 -164 c 0,9,10
 526 -166 526 -166 593.5 -113.5 c 128,-1,11
 661 -61 661 -61 676 29 c 1,12,-1
 960 30 l 1,13,14
 945 -183 945 -183 784 -291 c 128,-1,15
 623 -399 623 -399 424 -395 c 0,16,17
 297 -393 297 -393 188 -345.5 c 128,-1,18
 79 -298 79 -298 15.5 -205.5 c 128,-1,19
 -48 -113 -48 -113 -38 26 c 0,20,21
 -24 229 -24 229 99.5 346 c 128,-1,22
 223 463 223 463 416 496 c 1,23,-1
 141 905 l 1,24,-1
 173 1082 l 1,25,-1
 1098 1082 l 1,26,-1
 1057 849 l 1,27,-1
 449 849 l 1,0,-1
EndSplineSet
EndChar

StartChar: uni01BA
Encoding: 442 442 206
Width: 1038
Flags: W
LayerCount: 2
Fore
SplineSet
612 371 m 0,0,1
 623 427 623 427 584.5 448 c 128,-1,2
 546 469 546 469 500 471 c 2,3,-1
 257 473 l 1,4,-1
 289 655 l 1,5,-1
 556 847 l 1,6,-1
 151 849 l 1,7,-1
 193 1082 l 1,8,-1
 1046 1082 l 1,9,-1
 1015 904 l 1,10,-1
 682 647 l 1,11,12
 772 611 772 611 827.5 534.5 c 128,-1,13
 883 458 883 458 880 359 c 0,14,15
 876 247 876 247 810.5 179.5 c 128,-1,16
 745 112 745 112 650 75.5 c 128,-1,17
 555 39 555 39 463 20 c 0,18,19
 402 7 402 7 314 -19.5 c 128,-1,20
 226 -46 226 -46 212 -123 c 0,21,22
 201 -185 201 -185 247.5 -208.5 c 128,-1,23
 294 -232 294 -232 345 -233 c 0,24,25
 427 -235 427 -235 485.5 -193.5 c 128,-1,26
 544 -152 544 -152 563 -72 c 1,27,-1
 833 -70 l 1,28,29
 828 -193 828 -193 752 -275.5 c 128,-1,30
 676 -358 676 -358 565.5 -398.5 c 128,-1,31
 455 -439 455 -439 345 -437 c 0,32,33
 248 -435 248 -435 153 -400.5 c 128,-1,34
 58 -366 58 -366 -3.5 -295 c 128,-1,35
 -65 -224 -65 -224 -61 -112 c 0,36,37
 -57 3 -57 3 8 71.5 c 128,-1,38
 73 140 73 140 169.5 176 c 128,-1,39
 266 212 266 212 362 231 c 0,40,41
 427 243 427 243 512.5 267 c 128,-1,42
 598 291 598 291 612 371 c 0,0,1
EndSplineSet
EndChar

StartChar: uni01BB
Encoding: 443 443 207
Width: 1189
Flags: W
LayerCount: 2
Fore
SplineSet
1002 233 m 1,0,-1
 961 0 l 1,1,-1
 -8 0 l 1,2,-1
 29 211 l 1,3,-1
 510 647 l 1,4,-1
 265 649 l 1,5,-1
 299 832 l 1,6,-1
 686 831 l 1,7,8
 725 878 725 878 760.5 930 c 128,-1,9
 796 982 796 982 806 1044 c 0,10,11
 818 1122 818 1122 787.5 1183.5 c 128,-1,12
 757 1245 757 1245 670 1247 c 0,13,14
 560 1250 560 1250 500 1173 c 128,-1,15
 440 1096 440 1096 426 999 c 1,16,-1
 146 997 l 1,17,18
 159 1213 159 1213 318 1347.5 c 128,-1,19
 477 1482 477 1482 690 1478 c 0,20,21
 874 1475 874 1475 994.5 1371 c 128,-1,22
 1115 1267 1115 1267 1096 1071 c 0,23,24
 1090 1002 1090 1002 1062 942.5 c 128,-1,25
 1034 883 1034 883 994 828 c 1,26,-1
 1154 832 l 1,27,-1
 1121 649 l 1,28,-1
 860 649 l 1,29,30
 784 577 784 577 704 504 c 2,31,-1
 399 235 l 1,32,-1
 1002 233 l 1,0,-1
EndSplineSet
EndChar

StartChar: Tonefive
Encoding: 444 444 208
Width: 1211
Flags: W
LayerCount: 2
Fore
SplineSet
164 1216 m 1,0,-1
 206 1456 l 1,1,-1
 1235 1456 l 1,2,-1
 1193 1216 l 1,3,-1
 636 1216 l 1,4,-1
 533 899 l 1,5,6
 622 955 622 955 742 956 c 0,7,8
 951 956 951 956 1039.5 810 c 128,-1,9
 1128 664 1128 664 1111 476 c 0,10,11
 1092 257 1092 257 942.5 115.5 c 128,-1,12
 793 -26 793 -26 571 -22 c 0,13,14
 383 -18 383 -18 262 100.5 c 128,-1,15
 141 219 141 219 139 408 c 1,16,-1
 415 407 l 1,17,18
 419 328 419 328 457.5 272 c 128,-1,19
 496 216 496 216 583 214 c 0,20,21
 701 211 701 211 759.5 300.5 c 128,-1,22
 818 390 818 390 830 493 c 0,23,24
 841 588 841 588 805 663 c 128,-1,25
 769 738 769 738 660 740 c 0,26,27
 552 741 552 741 464 661 c 1,28,-1
 232 721 l 1,29,-1
 372 1216 l 1,30,-1
 164 1216 l 1,0,-1
EndSplineSet
EndChar

StartChar: tonefive
Encoding: 445 445 209
Width: 1088
Flags: W
LayerCount: 2
Fore
SplineSet
93 852 m 1,0,-1
 133 1082 l 1,1,-1
 1044 1082 l 1,2,-1
 1004 852 l 1,3,-1
 517 852 l 1,4,-1
 445 662 l 1,5,6
 492 689 492 689 545.5 700.5 c 128,-1,7
 599 712 599 712 652 712 c 0,8,9
 812 712 812 712 904.5 616 c 128,-1,10
 997 520 997 520 988 360 c 0,11,12
 977 158 977 158 827 68 c 128,-1,13
 677 -22 677 -22 493 -19 c 0,14,15
 335 -16 335 -16 200.5 64 c 128,-1,16
 66 144 66 144 63 320 c 1,17,-1
 345 337 l 1,18,19
 348 268 348 268 394.5 243 c 128,-1,20
 441 218 441 218 504 217 c 0,21,22
 581 216 581 216 639 256 c 128,-1,23
 697 296 697 296 709 376 c 0,24,25
 718 445 718 445 679.5 481.5 c 128,-1,26
 641 518 641 518 575 519 c 0,27,28
 474 521 474 521 408 463 c 1,29,-1
 139 476 l 1,30,-1
 252 852 l 1,31,-1
 93 852 l 1,0,-1
EndSplineSet
EndChar

StartChar: glottalstopbarinv
Encoding: 446 446 210
Width: 1022
Flags: W
LayerCount: 2
Fore
SplineSet
899 319 m 0,0,1
 895 197 895 197 820 121.5 c 128,-1,2
 745 46 745 46 636.5 12 c 128,-1,3
 528 -22 528 -22 423 -20 c 0,4,5
 259 -17 259 -17 133 77.5 c 128,-1,6
 7 172 7 172 4 347 c 1,7,-1
 271 346 l 1,8,9
 272 190 272 190 433 188 c 0,10,11
 494 188 494 188 553.5 215 c 128,-1,12
 613 242 613 242 626 308 c 0,13,14
 639 366 639 366 597.5 419.5 c 128,-1,15
 556 473 556 473 498 530.5 c 128,-1,16
 440 588 440 588 398.5 657 c 128,-1,17
 357 726 357 726 369 815 c 2,18,-1
 379 873 l 1,19,-1
 213 871 l 1,20,-1
 251 1082 l 1,21,-1
 405 1082 l 1,22,-1
 451 1349 l 1,23,-1
 734 1349 l 1,24,-1
 687 1082 l 1,25,-1
 866 1082 l 1,26,-1
 828 871 l 1,27,-1
 660 872 l 1,28,-1
 646 812 l 2,29,30
 630 726 630 726 667 670.5 c 128,-1,31
 704 615 704 615 759.5 568 c 128,-1,32
 815 521 815 521 858.5 464.5 c 128,-1,33
 902 408 902 408 899 319 c 0,0,1
EndSplineSet
EndChar

StartChar: wynn
Encoding: 447 447 211
Width: 1118
Flags: W
LayerCount: 2
Fore
SplineSet
1043 533 m 1,0,1
 1017 321 1017 321 903 182.5 c 128,-1,2
 789 44 789 44 620.5 -39.5 c 128,-1,3
 452 -123 452 -123 263 -170 c 1,4,-1
 213 -416 l 1,5,-1
 -70 -416 l 1,6,-1
 189 1082 l 1,7,-1
 448 1083 l 1,8,-1
 431 975 l 1,9,10
 547 1105 547 1105 707 1102 c 0,11,12
 855 1099 855 1099 932.5 1013.5 c 128,-1,13
 1010 928 1010 928 1034 803 c 128,-1,14
 1058 678 1058 678 1045 555 c 2,15,-1
 1043 533 l 1,0,1
623 868 m 0,16,17
 558 871 558 871 508 843 c 128,-1,18
 458 815 458 815 419 764 c 1,19,-1
 286 54 l 1,20,21
 463 109 463 109 596 225 c 128,-1,22
 729 341 729 341 758 535 c 2,23,-1
 761 555 l 2,24,25
 768 613 768 613 766 685 c 128,-1,26
 764 757 764 757 733 811 c 128,-1,27
 702 865 702 865 623 868 c 0,16,17
EndSplineSet
EndChar

StartChar: pipe
Encoding: 448 448 212
Width: 467
Flags: W
LayerCount: 2
Fore
SplineSet
468 1456 m 1,0,-1
 215 0 l 1,1,-1
 43 0 l 1,2,-1
 296 1456 l 1,3,-1
 468 1456 l 1,0,-1
EndSplineSet
EndChar

StartChar: uni01C5
Encoding: 453 453 217
Width: 2217
Flags: W
LayerCount: 2
Fore
SplineSet
1741 1525 m 1,0,-1
 1844 1388 l 1,1,-1
 1996 1524 l 1,2,-1
 2244 1529 l 1,3,-1
 2245 1506 l 1,4,-1
 1942 1252 l 1,5,-1
 1750 1252 l 1,6,-1
 1508 1506 l 1,7,-1
 1508 1529 l 1,8,-1
 1741 1525 l 1,0,-1
21 0 m 1,9,-1
 274 1456 l 1,10,-1
 692 1455 l 2,11,12
 887 1451 887 1451 1015 1354 c 128,-1,13
 1143 1257 1143 1257 1199 1100 c 128,-1,14
 1255 943 1255 943 1234 760 c 2,15,-1
 1226 695 l 2,16,17
 1200 499 1200 499 1098.5 341 c 128,-1,18
 997 183 997 183 836.5 91 c 128,-1,19
 676 -1 676 -1 472 0 c 2,20,-1
 21 0 l 1,9,-1
686 1212 m 2,21,-1
 526 1213 l 1,22,-1
 357 242 l 1,23,-1
 479 241 l 2,24,25
 682 240 682 240 791 374 c 128,-1,26
 900 508 900 508 927 695 c 2,27,-1
 937 763 l 2,28,29
 950 865 950 865 938.5 967 c 128,-1,30
 927 1069 927 1069 869.5 1138.5 c 128,-1,31
 812 1208 812 1208 686 1212 c 2,21,-1
1336 849 m 1,32,-1
 1377 1082 l 1,33,-1
 2219 1082 l 1,34,-1
 2187 897 l 1,35,-1
 1578 235 l 1,36,-1
 2088 233 l 1,37,-1
 2047 0 l 1,38,-1
 1174 0 l 1,39,-1
 1207 191 l 1,40,-1
 1812 847 l 1,41,-1
 1336 849 l 1,32,-1
EndSplineSet
EndChar

StartChar: uni01C6
Encoding: 454 454 218
Width: 2033
Flags: W
LayerCount: 2
Fore
SplineSet
666 0 m 1,0,-1
 677 121 l 1,1,2
 620 55 620 55 549 16.5 c 128,-1,3
 478 -22 478 -22 389 -20 c 0,4,5
 245 -17 245 -17 167 69.5 c 128,-1,6
 89 156 89 156 63.5 281 c 128,-1,7
 38 406 38 406 50 525 c 1,8,-1
 53 547 l 2,9,10
 69 681 69 681 125.5 810 c 128,-1,11
 182 939 182 939 284 1022 c 128,-1,12
 386 1105 386 1105 540 1102 c 0,13,14
 692 1098 692 1098 784 983 c 1,15,-1
 894 1560 l 1,16,-1
 1178 1560 l 1,17,-1
 907 0 l 1,18,-1
 666 0 l 1,0,-1
1557 1525 m 1,19,-1
 1659 1388 l 1,20,-1
 1812 1524 l 1,21,-1
 2060 1528 l 1,22,-1
 2060 1505 l 1,23,-1
 1758 1252 l 1,24,-1
 1566 1252 l 1,25,-1
 1323 1506 l 1,26,-1
 1323 1529 l 1,27,-1
 1557 1525 l 1,19,-1
1152 849 m 1,28,-1
 1193 1082 l 1,29,-1
 2035 1082 l 1,30,-1
 2003 897 l 1,31,-1
 1394 235 l 1,32,-1
 1903 233 l 1,33,-1
 1862 0 l 1,34,-1
 989 0 l 1,35,-1
 1022 191 l 1,36,-1
 1628 847 l 1,37,-1
 1152 849 l 1,28,-1
336 526 m 2,38,39
 330 469 330 469 332 397 c 128,-1,40
 334 325 334 325 364.5 271.5 c 128,-1,41
 395 218 395 218 474 215 c 0,42,43
 540 212 540 212 590 243.5 c 128,-1,44
 640 275 640 275 679 325 c 1,45,-1
 756 759 l 1,46,47
 718 866 718 866 601 870 c 0,48,49
 513 873 513 873 458.5 822 c 128,-1,50
 404 771 404 771 376 695 c 128,-1,51
 348 619 348 619 338 547 c 2,52,-1
 336 526 l 2,38,39
EndSplineSet
EndChar

StartChar: Gbar
Encoding: 484 484 219
Width: 1404
GlyphClass: 2
Flags: W
AnchorPoint: "Anchor-5" 1577 1609 basechar 0
AnchorPoint: "Anchor-1" 584 -3 basechar 0
AnchorPoint: "Anchor-0" 848 1609 basechar 0
LayerCount: 2
Fore
SplineSet
1181 183 m 1,0,1
 1085 64 1085 64 922.5 21 c 128,-1,2
 760 -22 760 -22 616 -19 c 0,3,4
 416 -17 416 -17 296 84 c 128,-1,5
 176 185 176 185 130 344.5 c 128,-1,6
 84 504 84 504 106 684 c 2,7,-1
 118 771 l 2,8,9
 144 958 144 958 230 1120.5 c 128,-1,10
 316 1283 316 1283 462 1382 c 128,-1,11
 608 1481 608 1481 814 1477 c 0,12,13
 1048 1473 1048 1473 1174 1345.5 c 128,-1,14
 1300 1218 1300 1218 1317 991 c 1,15,-1
 1035 992 l 1,16,17
 1026 1100 1026 1100 976 1165.5 c 128,-1,18
 926 1231 926 1231 810 1236 c 0,19,20
 681 1240 681 1240 600 1169 c 128,-1,21
 519 1098 519 1098 475.5 989 c 128,-1,22
 432 880 432 880 416 773 c 2,23,-1
 404 683 l 2,24,25
 391 586 391 586 399 480.5 c 128,-1,26
 407 375 407 375 461 300.5 c 128,-1,27
 515 226 515 226 641 223 c 0,28,29
 782 220 782 220 898 291 c 1,30,-1
 909 329 l 1,31,-1
 675 326 l 1,32,-1
 705 483 l 1,33,-1
 926 480 l 1,34,-1
 947 548 l 1,35,-1
 677 545 l 1,36,-1
 716 765 l 1,37,-1
 1274 765 l 1,38,-1
 1224 483 l 1,39,-1
 1385 483 l 1,40,-1
 1358 326 l 1,41,-1
 1198 325 l 1,42,-1
 1181 183 l 1,0,1
EndSplineSet
EndChar

StartChar: gbar
Encoding: 485 485 220
Width: 1135
GlyphClass: 2
Flags: W
AnchorPoint: "Anchor-9" 446 -124 basechar 0
AnchorPoint: "Anchor-5" 1254 1290 basechar 0
AnchorPoint: "Anchor-1" 353 -487 basechar 0
AnchorPoint: "Anchor-0" 660 1290 basechar 0
LayerCount: 2
Fore
SplineSet
990 -189 m 1,0,-1
 895 -189 l 1,1,2
 823 -363 823 -363 680 -449 c 128,-1,3
 537 -535 537 -535 349 -531 c 0,4,5
 240 -530 240 -530 141.5 -493.5 c 128,-1,6
 43 -457 43 -457 -37 -382 c 1,7,-1
 86 -215 l 1,8,9
 139 -264 139 -264 204 -285.5 c 128,-1,10
 269 -307 269 -307 340 -308 c 0,11,12
 494 -310 494 -310 596 -185 c 1,13,-1
 -96 -189 l 1,14,-1
 -72 -54 l 1,15,-1
 635 -55 l 1,16,-1
 673 96 l 1,17,18
 559 -23 559 -23 407 -20 c 0,19,20
 262 -18 262 -18 182 68 c 128,-1,21
 102 154 102 154 74 279 c 128,-1,22
 46 404 46 404 58 525 c 2,23,-1
 60 547 l 2,24,25
 76 683 76 683 135 812 c 128,-1,26
 194 941 194 941 299.5 1023.5 c 128,-1,27
 405 1106 405 1106 559 1102 c 0,28,29
 637 1101 637 1101 704.5 1071.5 c 128,-1,30
 772 1042 772 1042 819 978 c 1,31,-1
 855 1083 l 1,32,-1
 1114 1082 l 1,33,-1
 917 -54 l 1,34,-1
 1013 -54 l 1,35,-1
 990 -189 l 1,0,-1
340 526 m 2,36,37
 334 466 334 466 339 394.5 c 128,-1,38
 344 323 344 323 377.5 270.5 c 128,-1,39
 411 218 411 218 491 215 c 0,40,41
 555 213 555 213 605.5 240 c 128,-1,42
 656 267 656 267 696 314 c 1,43,-1
 780 770 l 1,44,45
 738 866 738 866 621 870 c 0,46,47
 489 874 489 874 423.5 766 c 128,-1,48
 358 658 358 658 343 547 c 2,49,-1
 340 526 l 2,36,37
EndSplineSet
EndChar

StartChar: uni01EF
Encoding: 495 495 222
Width: 1150
Flags: W
LayerCount: 2
Fore
SplineSet
596 1525 m 1,0,-1
 698 1388 l 1,1,-1
 851 1524 l 1,2,-1
 1099 1528 l 1,3,-1
 1100 1505 l 1,4,-1
 797 1252 l 1,5,-1
 605 1252 l 1,6,-1
 362 1506 l 1,7,-1
 362 1529 l 1,8,-1
 596 1525 l 1,0,-1
501 309 m 1,9,-1
 350 310 l 1,10,-1
 384 506 l 1,11,-1
 766 847 l 1,12,-1
 175 849 l 1,13,-1
 216 1082 l 1,14,-1
 1140 1082 l 1,15,-1
 1106 877 l 1,16,-1
 688 488 l 1,17,18
 854 454 854 454 928 328.5 c 128,-1,19
 1002 203 1002 203 990 43 c 0,20,21
 979 -106 979 -106 894.5 -204.5 c 128,-1,22
 810 -303 810 -303 683.5 -350.5 c 128,-1,23
 557 -398 557 -398 420 -395 c 0,24,25
 228 -391 228 -391 100.5 -280 c 128,-1,26
 -27 -169 -27 -169 -23 30 c 1,27,-1
 258 30 l 1,28,29
 256 -54 256 -54 302 -106 c 128,-1,30
 348 -158 348 -158 434 -161 c 0,31,32
 531 -164 531 -164 613.5 -110 c 128,-1,33
 696 -56 696 -56 711 45 c 0,34,35
 748 301 748 301 501 309 c 1,9,-1
EndSplineSet
EndChar

StartChar: uni01F6
Encoding: 502 502 223
Width: 2123
Flags: W
LayerCount: 2
Fore
SplineSet
1133 1456 m 1,0,-1
 1426 1456 l 1,1,-1
 1264 494 l 1,2,3
 1251 389 1251 389 1279 307 c 128,-1,4
 1307 225 1307 225 1431 221 c 0,5,6
 1561 217 1561 217 1624 297 c 128,-1,7
 1687 377 1687 377 1705 496 c 2,8,-1
 1804 1082 l 1,9,-1
 2097 1082 l 1,10,-1
 1998 496 l 1,11,12
 1966 259 1966 259 1812 116 c 128,-1,13
 1658 -27 1658 -27 1414 -22 c 0,14,15
 1182 -18 1182 -18 1063 124.5 c 128,-1,16
 944 267 944 267 970 496 c 1,17,-1
 989 624 l 1,18,-1
 424 624 l 1,19,-1
 315 0 l 1,20,-1
 21 0 l 1,21,-1
 274 1456 l 1,22,-1
 568 1456 l 1,23,-1
 465 866 l 1,24,-1
 1031 866 l 1,25,-1
 1133 1456 l 1,0,-1
EndSplineSet
EndChar

StartChar: uni01F7
Encoding: 503 503 224
Width: 1328
Flags: W
LayerCount: 2
Fore
SplineSet
1275 787 m 2,0,1
 1240 538 1240 538 1092 351 c 128,-1,2
 944 164 944 164 732 39 c 128,-1,3
 520 -86 520 -86 294 -148 c 1,4,-1
 240 -417 l 1,5,-1
 -52 -417 l 1,6,-1
 273 1456 l 1,7,-1
 551 1457 l 1,8,-1
 544 1424 l 1,9,10
 659 1477 659 1477 788 1476 c 0,11,12
 1066 1473 1066 1473 1189.5 1286.5 c 128,-1,13
 1313 1100 1313 1100 1282 841 c 2,14,-1
 1275 787 l 2,0,1
776 1234 m 0,15,16
 699 1236 699 1236 634 1205.5 c 128,-1,17
 569 1175 569 1175 511 1127 c 1,18,-1
 320 99 l 1,19,20
 472 162 472 162 612.5 257 c 128,-1,21
 753 352 753 352 852 484 c 128,-1,22
 951 616 951 616 978 790 c 2,23,-1
 986 845 l 2,24,25
 998 935 998 935 992 1024 c 128,-1,26
 986 1113 986 1113 937.5 1172.5 c 128,-1,27
 889 1232 889 1232 776 1234 c 0,15,16
EndSplineSet
EndChar

StartChar: uni021C
Encoding: 540 540 225
Width: 1196
Flags: W
LayerCount: 2
Fore
SplineSet
1066 350 m 0,0,1
 1049 152 1049 152 943.5 13 c 128,-1,2
 838 -126 838 -126 679 -217 c 128,-1,3
 520 -308 520 -308 340 -360.5 c 128,-1,4
 160 -413 160 -413 -6 -437 c 1,5,-1
 19 -196 l 1,6,7
 173 -164 173 -164 337.5 -103.5 c 128,-1,8
 502 -43 502 -43 625 66.5 c 128,-1,9
 748 176 748 176 777 356 c 0,10,11
 784 397 784 397 785 445.5 c 128,-1,12
 786 494 786 494 754 527 c 1,13,14
 605 450 605 450 447 396 c 128,-1,15
 289 342 289 342 126 302 c 1,16,-1
 144 532 l 1,17,18
 242 562 242 562 360.5 598.5 c 128,-1,19
 479 635 479 635 590 689.5 c 128,-1,20
 701 744 701 744 779 827 c 128,-1,21
 857 910 857 910 874 1034 c 0,22,23
 887 1132 887 1132 835.5 1182.5 c 128,-1,24
 784 1233 784 1233 687 1235 c 0,25,26
 602 1237 602 1237 530.5 1193.5 c 128,-1,27
 459 1150 459 1150 443 1062 c 1,28,-1
 150 1061 l 1,29,30
 158 1202 158 1202 241.5 1294.5 c 128,-1,31
 325 1387 325 1387 448.5 1432 c 128,-1,32
 572 1477 572 1477 700 1476 c 0,33,34
 826 1474 826 1474 937.5 1431.5 c 128,-1,35
 1049 1389 1049 1389 1114.5 1300 c 128,-1,36
 1180 1211 1180 1211 1169 1069 c 0,37,38
 1158 943 1158 943 1098 844 c 128,-1,39
 1038 745 1038 745 944 666 c 1,40,41
 1016 607 1016 607 1044.5 524 c 128,-1,42
 1073 441 1073 441 1066 350 c 0,0,1
EndSplineSet
EndChar

StartChar: uni021D
Encoding: 541 541 226
Width: 1006
Flags: W
LayerCount: 2
Fore
SplineSet
863 193 m 0,0,1
 852 36 852 36 766 -74 c 128,-1,2
 680 -184 680 -184 550.5 -256 c 128,-1,3
 421 -328 421 -328 276.5 -371 c 128,-1,4
 132 -414 132 -414 3 -437 c 1,5,-1
 24 -219 l 1,6,7
 137 -181 137 -181 258.5 -132 c 128,-1,8
 380 -83 380 -83 472.5 -2 c 128,-1,9
 565 79 565 79 591 213 c 0,10,11
 603 280 603 280 589 337 c 1,12,13
 476 274 476 274 354 232 c 128,-1,14
 232 190 232 190 106 160 c 1,15,-1
 126 372 l 1,16,17
 221 403 221 403 339 447.5 c 128,-1,18
 457 492 457 492 548.5 565.5 c 128,-1,19
 640 639 640 639 657 757 c 0,20,21
 675 883 675 883 552 885 c 0,22,23
 492 887 492 887 444 859.5 c 128,-1,24
 396 832 396 832 381 772 c 1,25,-1
 97 770 l 1,26,27
 103 886 103 886 171.5 960 c 128,-1,28
 240 1034 240 1034 341 1068.5 c 128,-1,29
 442 1103 442 1103 546 1102 c 0,30,31
 642 1100 642 1100 736 1071 c 128,-1,32
 830 1042 830 1042 890.5 975 c 128,-1,33
 951 908 951 908 944 795 c 0,34,35
 938 692 938 692 889.5 611 c 128,-1,36
 841 530 841 530 766 464 c 1,37,38
 826 412 826 412 847.5 341 c 128,-1,39
 869 270 869 270 863 193 c 0,0,1
EndSplineSet
EndChar

StartChar: uni0220
Encoding: 544 544 227
Width: 1276
Flags: W
LayerCount: 2
Fore
SplineSet
1233 1021 m 1,0,-1
 988 -417 l 1,1,-1
 704 -417 l 1,2,-1
 951 1022 l 1,3,4
 978 1236 978 1236 774 1242 c 0,5,6
 704 1244 704 1244 638.5 1222.5 c 128,-1,7
 573 1201 573 1201 512 1170 c 1,8,-1
 304 0 l 1,9,-1
 21 0 l 1,10,-1
 274 1456 l 1,11,-1
 543 1460 l 1,12,-1
 532 1404 l 1,13,14
 671 1477 671 1477 816 1475 c 0,15,16
 1012 1473 1012 1473 1132.5 1346.5 c 128,-1,17
 1253 1220 1253 1220 1233 1021 c 1,0,-1
EndSplineSet
EndChar

StartChar: uni0221
Encoding: 545 545 228
Width: 1471
Flags: W
LayerCount: 2
Fore
SplineSet
889 1536 m 1,0,-1
 1172 1536 l 1,1,-1
 916 107 l 1,2,3
 969 116 969 116 1020 116 c 0,4,5
 1142 115 1142 115 1228 49 c 128,-1,6
 1314 -17 1314 -17 1310 -149 c 0,7,8
 1306 -300 1306 -300 1192.5 -369 c 128,-1,9
 1079 -438 1079 -438 943 -436 c 0,10,11
 848 -435 848 -435 756.5 -398 c 128,-1,12
 665 -361 665 -361 633 -262 c 1,13,-1
 441 -412 l 1,14,-1
 335 -220 l 1,15,-1
 626 -5 l 1,16,-1
 653 100 l 1,17,18
 600 43 600 43 534.5 11 c 128,-1,19
 469 -21 469 -21 389 -20 c 0,20,21
 244 -17 244 -17 167 69.5 c 128,-1,22
 90 156 90 156 65 281 c 128,-1,23
 40 406 40 406 52 525 c 2,24,-1
 54 547 l 2,25,26
 70 681 70 681 126 810.5 c 128,-1,27
 182 940 182 940 284 1023 c 128,-1,28
 386 1106 386 1106 541 1102 c 0,29,30
 692 1098 692 1098 783 983 c 1,31,-1
 889 1536 l 1,0,-1
335 526 m 2,32,33
 329 469 329 469 330.5 397 c 128,-1,34
 332 325 332 325 362.5 271 c 128,-1,35
 393 217 393 217 473 215 c 0,36,37
 539 212 539 212 589 243.5 c 128,-1,38
 639 275 639 275 678 325 c 1,39,-1
 755 758 l 1,40,41
 716 865 716 865 600 870 c 0,42,43
 512 873 512 873 457.5 822 c 128,-1,44
 403 771 403 771 374.5 695 c 128,-1,45
 346 619 346 619 337 547 c 2,46,-1
 335 526 l 2,32,33
884 -136 m 2,47,48
 878 -176 878 -176 890 -209.5 c 128,-1,49
 902 -243 902 -243 951 -243 c 0,50,51
 990 -244 990 -244 1021.5 -220 c 128,-1,52
 1053 -196 1053 -196 1061 -157 c 0,53,54
 1068 -118 1068 -118 1042 -101 c 128,-1,55
 1016 -84 1016 -84 983 -83 c 0,56,57
 959 -83 959 -83 936 -88 c 128,-1,58
 913 -93 913 -93 890 -99 c 1,59,-1
 884 -136 l 2,47,48
EndSplineSet
EndChar

StartChar: uni0222
Encoding: 546 546 229
Width: 1265
Flags: W
LayerCount: 2
Fore
SplineSet
1157 469 m 0,0,1
 1137 227 1137 227 960.5 102.5 c 128,-1,2
 784 -22 784 -22 555 -20 c 2,3,-1
 534 -20 l 1,4,5
 324 -14 324 -14 183 106.5 c 128,-1,6
 42 227 42 227 61 451 c 0,7,8
 80 686 80 686 288 820 c 1,9,10
 163 925 163 925 173 1102 c 0,11,12
 184 1303 184 1303 322.5 1388 c 128,-1,13
 461 1473 461 1473 643 1478 c 1,14,-1
 618 1244 l 1,15,16
 560 1228 560 1228 520.5 1196.5 c 128,-1,17
 481 1165 481 1165 471 1101 c 0,18,19
 455 1005 455 1005 521 978 c 128,-1,20
 587 951 587 951 665 949 c 2,21,-1
 691 948 l 2,22,23
 783 948 783 948 871 979.5 c 128,-1,24
 959 1011 959 1011 976 1118 c 0,25,26
 985 1176 985 1176 960.5 1202 c 128,-1,27
 936 1228 936 1228 884 1243 c 1,28,-1
 908 1477 l 1,29,30
 1068 1467 1068 1467 1173.5 1379 c 128,-1,31
 1279 1291 1279 1291 1269 1118 c 0,32,33
 1262 1008 1262 1008 1204 933.5 c 128,-1,34
 1146 859 1146 859 1051 809 c 1,35,36
 1115 738 1115 738 1139.5 651 c 128,-1,37
 1164 564 1164 564 1157 469 c 0,0,1
668 702 m 2,38,-1
 647 703 l 1,39,40
 531 703 531 703 451 635 c 128,-1,41
 371 567 371 567 356 450 c 0,42,43
 343 349 343 349 392.5 288 c 128,-1,44
 442 227 442 227 544 222 c 2,45,-1
 563 221 l 1,46,47
 680 220 680 220 762 285.5 c 128,-1,48
 844 351 844 351 859 469 c 0,49,50
 873 573 873 573 822.5 635 c 128,-1,51
 772 697 772 697 668 702 c 2,38,-1
EndSplineSet
EndChar

StartChar: uni0223
Encoding: 547 547 230
Width: 1216
Flags: W
LayerCount: 2
Fore
SplineSet
1123 463 m 0,0,1
 1104 222 1104 222 931 100 c 128,-1,2
 758 -22 758 -22 530 -20 c 2,3,-1
 509 -20 l 1,4,5
 300 -14 300 -14 162 104 c 128,-1,6
 24 222 24 222 42 445 c 0,7,8
 61 684 61 684 270 812 c 1,9,10
 203 877 203 877 179 960.5 c 128,-1,11
 155 1044 155 1044 162 1136 c 0,12,13
 176 1339 176 1339 306.5 1446 c 128,-1,14
 437 1553 437 1553 632 1559 c 1,15,-1
 609 1334 l 1,16,17
 466 1276 466 1276 445 1130 c 0,18,19
 429 1023 429 1023 483.5 977.5 c 128,-1,20
 538 932 538 932 637 928 c 2,21,-1
 663 927 l 1,22,23
 776 927 776 927 861.5 976.5 c 128,-1,24
 947 1026 947 1026 964 1147 c 0,25,26
 974 1213 974 1213 954.5 1259 c 128,-1,27
 935 1305 935 1305 874 1332 c 1,28,-1
 896 1557 l 1,29,30
 1068 1546 1068 1546 1162 1435.5 c 128,-1,31
 1256 1325 1256 1325 1244 1152 c 0,32,33
 1227 919 1227 919 1019 801 c 1,34,35
 1084 731 1084 731 1107.5 644 c 128,-1,36
 1131 557 1131 557 1123 463 c 0,0,1
643 695 m 2,37,-1
 622 696 l 1,38,39
 506 696 506 696 423 629 c 128,-1,40
 340 562 340 562 324 445 c 0,41,42
 310 342 310 342 362 280 c 128,-1,43
 414 218 414 218 516 213 c 2,44,-1
 536 212 l 1,45,46
 654 211 654 211 739.5 276.5 c 128,-1,47
 825 342 825 342 841 463 c 0,48,49
 855 569 855 569 801.5 629.5 c 128,-1,50
 748 690 748 690 643 695 c 2,37,-1
EndSplineSet
EndChar

StartChar: uni0224
Encoding: 548 548 231
Width: 1277
Flags: W
LayerCount: 2
Fore
SplineSet
176 1213 m 1,0,-1
 219 1456 l 1,1,-1
 1280 1456 l 1,2,-1
 1247 1269 l 1,3,-1
 378 244 l 1,4,-1
 775 241 l 2,5,6
 942 237 942 237 1035.5 137.5 c 128,-1,7
 1129 38 1129 38 1116 -131 c 0,8,9
 1113 -169 1113 -169 1105 -206 c 128,-1,10
 1097 -243 1097 -243 1087 -279 c 1,11,-1
 846 -279 l 1,12,13
 852 -256 852 -256 857 -233.5 c 128,-1,14
 862 -211 862 -211 865 -188 c 0,15,16
 873 -123 873 -123 860 -65 c 128,-1,17
 847 -7 847 -7 769 0 c 1,18,-1
 -34 0 l 1,19,-1
 -1 191 l 1,20,-1
 871 1211 l 1,21,-1
 176 1213 l 1,0,-1
EndSplineSet
EndChar

StartChar: uni0225
Encoding: 549 549 232
Width: 1113
Flags: W
LayerCount: 2
Fore
SplineSet
980 897 m 1,0,-1
 372 235 l 1,1,-1
 606 232 l 2,2,3
 769 227 769 227 865.5 137 c 128,-1,4
 962 47 962 47 950 -122 c 0,5,6
 947 -160 947 -160 939.5 -197 c 128,-1,7
 932 -234 932 -234 921 -271 c 1,8,-1
 693 -271 l 1,9,10
 698 -249 698 -249 703 -226 c 128,-1,11
 708 -203 708 -203 711 -180 c 0,12,13
 719 -114 719 -114 699 -60 c 128,-1,14
 679 -6 679 -6 602 0 c 1,15,-1
 -34 0 l 1,16,-1
 -1 191 l 1,17,-1
 604 847 l 1,18,-1
 128 849 l 1,19,-1
 169 1082 l 1,20,-1
 1012 1082 l 1,21,-1
 980 897 l 1,0,-1
EndSplineSet
EndChar

StartChar: uni0234
Encoding: 564 564 233
Width: 1014
Flags: W
LayerCount: 2
Fore
SplineSet
432 1536 m 1,0,-1
 716 1536 l 1,1,-1
 459 107 l 1,2,3
 513 116 513 116 563 116 c 0,4,5
 686 115 686 115 772 48.5 c 128,-1,6
 858 -18 858 -18 854 -149 c 0,7,8
 850 -301 850 -301 736.5 -370 c 128,-1,9
 623 -439 623 -439 486 -437 c 0,10,11
 391 -436 391 -436 299.5 -398.5 c 128,-1,12
 208 -361 208 -361 176 -262 c 1,13,-1
 -16 -412 l 1,14,-1
 -123 -219 l 1,15,-1
 161 -21 l 1,16,-1
 168 0 l 1,17,-1
 168 0 l 1,18,-1
 432 1536 l 1,0,-1
427 -135 m 2,19,20
 422 -176 422 -176 434 -209.5 c 128,-1,21
 446 -243 446 -243 495 -243 c 0,22,23
 534 -244 534 -244 565.5 -220 c 128,-1,24
 597 -196 597 -196 604 -157 c 0,25,26
 612 -117 612 -117 586 -100.5 c 128,-1,27
 560 -84 560 -84 526 -83 c 0,28,29
 502 -82 502 -82 479 -87 c 128,-1,30
 456 -92 456 -92 434 -98 c 1,31,-1
 427 -135 l 2,19,20
EndSplineSet
EndChar

